font.ufo
<glyph name="parenright" format="2">
	<unicode hex="0029"/>
	<advance width="600"/>
	<outline>
		<contour>
			<point x="178" y="-176" type="line"/>
			<point x="315" y="-67"/>
			<point x="399" y="86"/>
			<point x="399" y="278" type="curve" smooth="yes"/>
			<point x="399" y="470"/>
			<point x="315" y="623"/>
			<point x="178" y="732" type="curve"/>
			<point x="123" y="685" type="line"/>
			<point x="253" y="571"/>
			<point x="313" y="443"/>
			<point x="313" y="278" type="curve" smooth="yes"/>
			<point x="313" y="113"/>
			<point x="253" y="-15"/>
			<point x="123" y="-129" type="curve"/>
		</contour>
	</outline>
</glyph>
<glyph name="asterisk" format="1">
	<unicode hex="002A"/>
	<advance width="600"/>
	<outline>
		<contour>
			<point x="181" y="106" type="line"/>
			<point x="300" y="261" type="line"/>
			<point x="419" y="106" type="line"/>
			<point x="467" y="139" type="line"/>
			<point x="361" y="302" type="line"/>
			<point x="521" y="372" type="line"/>
			<point x="504" y="424" type="line"/>
			<point x="337" y="372" type="line"/>
			<point x="328" y="559" type="line"/>
			<point x="272" y="559" type="line"/>
			<point x="263" y="372" type="line"/>
			<point x="96" y="424" type="line"/>
			<point x="79" y="372" type="line"/>
			<point x="239" y="302" type="line"/>
			<point x="133" y="139" type="line"/>
		</contour>
	</outline>
</glyph>
<glyph name="period" format="2">
	<unicode hex="002E"/>
	<advance width="600"/>
	<outline>
		<contour>
			<point x="300" y="-12" type="curve" smooth="yes"/>
			<point x="351" y="-12"/>
			<point x="390" y="26"/>
			<point x="390" y="81" type="curve" smooth="yes"/>
			<point x="390" y="135"/>
			<point x="351" y="174"/>
			<point x="300" y="174" type="curve" smooth="yes"/>
			<point x="249" y="174"/>
			<point x="210" y="135"/>
			<point x="210" y="81" type="curve" smooth="yes"/>
			<point x="210" y="26"/>
			<point x="249" y="-12"/>
		</contour>
	</outline>
</glyph>
<glyph name="one" format="2">
	<unicode hex="0031"/>
	<advance width="600"/>
	<outline>
		<contour>
			<point x="93" y="0" type="line"/>
			<point x="533" y="0" type="line"/>
			<point x="533" y="81" type="line"/>
			<point x="372" y="81" type="line"/>
			<point x="372" y="637" type="line"/>
			<point x="299" y="637" type="line"/>
			<point x="256" y="613"/>
			<point x="209" y="598"/>
			<point x="131" y="587" type="curve"/>
			<point x="131" y="525" type="line"/>
			<point x="273" y="525" type="line"/>
			<point x="273" y="81" type="line"/>
			<point x="93" y="81" type="line"/>
		</contour>
	</outline>
</glyph>
<glyph name="two" format="1">
	<unicode hex="0032"/>
	<advance width="600"/>
	<outline>
		<contour>
			<point x="69" y="0" type="line"/>
			<point x="525" y="0" type="line"/>
			<point x="525" y="84" type="line"/>
			<point x="330" y="84" type="line" smooth="yes"/>
			<point x="294" y="84"/>
			<point x="251" y="81"/>
			<point x="213" y="78" type="curve"/>
			<point x="373" y="223"/>
			<point x="491" y="341"/>
			<point x="491" y="458" type="curve" smooth="yes"/>
			<point x="491" y="573"/>
			<point x="408" y="649"/>
			<point x="279" y="649" type="curve" smooth="yes"/>
			<point x="187" y="649"/>
			<point x="124" y="612"/>
			<point x="64" y="551" type="curve"/>
			<point x="120" y="496" type="line"/>
			<point x="159" y="536"/>
			<point x="209" y="570"/>
			<point x="266" y="570" type="curve" smooth="yes"/>
			<point x="353" y="570"/>
			<point x="396" y="523"/>
			<point x="396" y="453" type="curve" smooth="yes"/>
			<point x="396" y="350"/>
			<point x="277" y="239"/>
			<point x="69" y="58" type="curve"/>
		</contour>
	</outline>
</glyph>
<glyph name="five" format="1">
	<unicode hex="0035"/>
	<advance width="600"/>
	<outline>
		<contour>
			<point x="285" y="-12" type="curve" smooth="yes"/>
			<point x="409" y="-12"/>
			<point x="525" y="67"/>
			<point x="525" y="206" type="curve" smooth="yes"/>
			<point x="525" y="343"/>
			<point x="426" y="405"/>
			<point x="306" y="405" type="curve" smooth="yes"/>
			<point x="262" y="405"/>
			<point x="231" y="396"/>
			<point x="197" y="382" type="curve"/>
			<point x="212" y="553" type="line"/>
			<point x="494" y="553" type="line"/>
			<point x="494" y="637" type="line"/>
			<point x="125" y="637" type="line"/>
			<point x="105" y="327" type="line"/>
			<point x="155" y="295" type="line"/>
			<point x="199" y="320"/>
			<point x="228" y="332"/>
			<point x="278" y="332" type="curve" smooth="yes"/>
			<point x="366" y="332"/>
			<point x="425" y="285"/>
			<point x="425" y="203" type="curve" smooth="yes"/>
			<point x="425" y="120"/>
			<point x="358" y="69"/>
			<point x="273" y="69" type="curve" smooth="yes"/>
			<point x="194" y="69"/>
			<point x="143" y="103"/>
			<point x="101" y="140" type="curve"/>
			<point x="53" y="76" type="line"/>
			<point x="103" y="30"/>
			<point x="172" y="-12"/>
		</contour>
	</outline>
</glyph>
<glyph name="six" format="1">
	<unicode hex="0036"/>
	<advance width="600"/>
	<outline>
		<contour>
			<point x="320" y="-12" type="curve" smooth="yes"/>
			<point x="436" y="-12"/>
			<point x="537" y="70"/>
			<point x="537" y="195" type="curve" smooth="yes"/>
			<point x="537" y="327"/>
			<point x="455" y="392"/>
			<point x="339" y="392" type="curve" smooth="yes"/>
			<point x="277" y="392"/>
			<point x="211" y="360"/>
			<point x="160" y="307" type="curve"/>
			<point x="164" y="234" type="line"/>
			<point x="215" y="296"/>
			<point x="272" y="319"/>
			<point x="319" y="319" type="curve" smooth="yes"/>
			<point x="399" y="319"/>
			<point x="444" y="276"/>
			<point x="444" y="195" type="curve" smooth="yes"/>
			<point x="444" y="114"/>
			<point x="388" y="65"/>
			<point x="319" y="65" type="curve" smooth="yes"/>
			<point x="225" y="65"/>
			<point x="165" y="140"/>
			<point x="165" y="297" type="curve" smooth="yes"/>
			<point x="165" y="499"/>
			<point x="250" y="568"/>
			<point x="348" y="568" type="curve" smooth="yes"/>
			<point x="395" y="568"/>
			<point x="440" y="548"/>
			<point x="472" y="518" type="curve"/>
			<point x="526" y="579" type="line"/>
			<point x="483" y="618"/>
			<point x="422" y="649"/>
			<point x="341" y="649" type="curve" smooth="yes"/>
			<point x="202" y="649"/>
			<point x="73" y="548"/>
			<point x="73" y="297" type="curve" smooth="yes"/>
			<point x="73" y="87"/>
			<point x="183" y="-12"/>
		</contour>
	</outline>
</glyph>
<glyph name="seven" format="1">
	<unicode hex="0037"/>
	<advance width="600"/>
	<outline>
		<contour>
			<point x="217" y="0" type="curve"/>
			<point x="319" y="0" type="line"/>
			<point x="330" y="250"/>
			<point x="367" y="387"/>
			<point x="534" y="576" type="curve"/>
			<point x="534" y="637" type="line"/>
			<point x="68" y="637" type="line"/>
			<point x="68" y="553" type="line"/>
			<point x="423" y="553" type="line"/>
			<point x="281" y="377"/>
			<point x="228" y="234"/>
		</contour>
	</outline>
</glyph>
<glyph name="less" format="1">
	<unicode hex="003C"/>
	<advance width="600"/>
	<outline>
		<contour>
			<point x="496" y="44" type="line"/>
			<point x="496" y="137" type="line"/>
			<point x="204" y="330" type="line"/>
			<point x="204" y="334" type="line"/>
			<point x="496" y="527" type="line"/>
			<point x="496" y="620" type="line"/>
			<point x="119" y="368" type="line"/>
			<point x="119" y="296" type="line"/>
		</contour>
	</outline>
</glyph>
<glyph name="greater" format="2">
	<unicode hex="003E"/>
	<advance width="600"/>
	<outline>
		<contour>
			<point x="104" y="44" type="line"/>
			<point x="481" y="296" type="line"/>
			<point x="481" y="368" type="line"/>
			<point x="104" y="620" type="line"/>
			<point x="104" y="527" type="line"/>
			<point x="396" y="334" type="line"/>
			<point x="396" y="330" type="line"/>
			<point x="104" y="137" type="line"/>
		</contour>
	</outline>
</glyph>
<glyph name="at" format="1">
	<unicode hex="0040"/>
	<advance width="600"/>
	<outline>
		<contour>
			<point x="340" y="-145" type="curve" smooth="yes"/>
			<point x="408" y="-145"/>
			<point x="461" y="-125"/>
			<point x="514" y="-90" type="curve"/>
			<point x="482" y="-38" type="line"/>
			<point x="443" y="-65"/>
			<point x="403" y="-81"/>
			<point x="343" y="-81" type="curve" smooth="yes"/>
			<point x="219" y="-81"/>
			<point x="117" y="35"/>
			<point x="117" y="248" type="curve" smooth="yes"/>
			<point x="117" y="468"/>
			<point x="223" y="574"/>
			<point x="336" y="574" type="curve" smooth="yes"/>
			<point x="437" y="574"/>
			<point x="481" y="497"/>
			<point x="481" y="407" type="curve" smooth="yes"/>
			<point x="481" y="393" type="line"/>
			<point x="315" y="372"/>
			<point x="220" y="325"/>
			<point x="220" y="222" type="curve" smooth="yes"/>
			<point x="220" y="141"/>
			<point x="278" y="88"/>
			<point x="349" y="88" type="curve" smooth="yes"/>
			<point x="401" y="88"/>
			<point x="450" y="119"/>
			<point x="478" y="156" type="curve"/>
			<point x="482" y="156" type="line"/>
			<point x="490" y="100" type="line"/>
			<point x="547" y="100" type="line"/>
			<point x="547" y="398" type="line" smooth="yes"/>
			<point x="547" y="533"/>
			<point x="482" y="638"/>
			<point x="340" y="638" type="curve" smooth="yes"/>
			<point x="175" y="638"/>
			<point x="45" y="510"/>
			<point x="45" y="251" type="curve" smooth="yes"/>
			<point x="45" y="-10"/>
			<point x="182" y="-145"/>
		</contour>
		<contour>
			<point x="370" y="156" type="curve" smooth="yes"/>
			<point x="325" y="156"/>
			<point x="297" y="181"/>
			<point x="297" y="224" type="curve" smooth="yes"/>
			<point x="297" y="281"/>
			<point x="346" y="312"/>
			<point x="472" y="330" type="curve"/>
			<point x="472" y="213" type="line"/>
			<point x="439" y="176"/>
			<point x="404" y="156"/>
		</contour>
	</outline>
</glyph>
<glyph name="A" format="1">
	<unicode hex="0041"/>
	<advance width="600"/>
	<outline>
		<contour>
			<point x="26" y="0" type="line"/>
			<point x="128" y="0" type="line"/>
			<point x="235" y="357" type="line" smooth="yes"/>
			<point x="256" y="428"/>
			<point x="277" y="501"/>
			<point x="296" y="575" type="curve"/>
			<point x="300" y="575" type="line"/>
			<point x="319" y="501"/>
			<point x="341" y="428"/>
			<point x="362" y="357" type="curve" smooth="yes"/>
			<point x="468" y="0" type="line"/>
			<point x="574" y="0" type="line"/>
			<point x="358" y="655" type="line"/>
			<point x="242" y="655" type="line"/>
		</contour>
		<contour>
			<point x="147" y="188" type="line"/>
			<point x="451" y="188" type="line"/>
			<point x="451" y="267" type="line"/>
			<point x="147" y="267" type="line"/>
		</contour>
		<contour>
			<point name="aboveUC" x="300" y="675" type="move"/>
		</contour>
		<contour>
			<point name="ogonekCXT-ATH" x="300" y="0" type="move"/>
		</contour>
		<contour>
			<point name="ogonekUC" x="501" y="0" type="move"/>
		</contour>
		<contour>
			<point name="baseLC" x="519" y="0" type="move"/>
		</contour>
		<contour>
			<point name="belowLC" x="300" y="-20" type="move"/>
		</contour>
	</outline>
</glyph>
<glyph name="D" format="1">
	<unicode hex="0044"/>
	<advance width="600"/>
	<outline>
		<contour>
			<point x="83" y="0" type="line"/>
			<point x="254" y="0" type="line" smooth="yes"/>
			<point x="445" y="0"/>
			<point x="556" y="118"/>
			<point x="556" y="330" type="curve" smooth="yes"/>
			<point x="556" y="543"/>
			<point x="445" y="655"/>
			<point x="249" y="655" type="curve" smooth="yes"/>
			<point x="83" y="655" type="line"/>
		</contour>
		<contour>
			<point x="183" y="81" type="line"/>
			<point x="183" y="574" type="line"/>
			<point x="243" y="574" type="line" smooth="yes"/>
			<point x="380" y="574"/>
			<point x="453" y="493"/>
			<point x="453" y="330" type="curve" smooth="yes"/>
			<point x="453" y="167"/>
			<point x="380" y="81"/>
			<point x="243" y="81" type="curve" smooth="yes"/>
		</contour>
		<contour>
			<point name="aboveUC" x="300" y="675" type="move"/>
		</contour>
		<contour>
			<point name="baseLC" x="285" y="0" type="move"/>
		</contour>
		<contour>
			<point name="belowLC" x="295" y="-20" type="move"/>
		</contour>
	</outline>
</glyph>
<glyph name="F" format="1">
	<unicode hex="0046"/>
	<advance width="600"/>
	<outline>
		<contour>
			<point x="126" y="0" type="line"/>
			<point x="226" y="0" type="line"/>
			<point x="226" y="283" type="line"/>
			<point x="489" y="283" type="line"/>
			<point x="489" y="368" type="line"/>
			<point x="226" y="368" type="line"/>
			<point x="226" y="571" type="line"/>
			<point x="536" y="571" type="line"/>
			<point x="536" y="655" type="line"/>
			<point x="126" y="655" type="line"/>
		</contour>
		<contour>
			<point name="aboveUC" x="340" y="675" type="move"/>
		</contour>
		<contour>
			<point name="baseLC" x="172" y="0" type="move"/>
		</contour>
		<contour>
			<point name="belowLC" x="181" y="-20" type="move"/>
		</contour>
	</outline>
</glyph>
<glyph name="H" format="2">
	<unicode hex="0048"/>
	<advance width="600"/>
	<outline>
		<contour>
			<point x="75" y="0" type="line"/>
			<point x="176" y="0" type="line"/>
			<point x="176" y="299" type="line"/>
			<point x="424" y="299" type="line"/>
			<point x="424" y="0" type="line"/>
			<point x="525" y="0" type="line"/>
			<point x="525" y="655" type="line"/>
			<point x="424" y="655" type="line"/>
			<point x="424" y="386" type="line"/>
			<point x="176" y="386" type="line"/>
			<point x="176" y="655" type="line"/>
			<point x="75" y="655" type="line"/>
		</contour>
	</outline>
	<anchor name="aboveUC" x="300" y="675"/>
	<anchor name="baseLC" x="126" y="0"/>
	<anchor name="belowLC" x="300" y="-20"/>
</glyph>
<glyph name="I" format="1">
	<unicode hex="0049"/>
	<advance width="600"/>
	<outline>
		<contour>
			<point x="90" y="0" type="line"/>
			<point x="510" y="0" type="line"/>
			<point x="510" y="84" type="line"/>
			<point x="350" y="84" type="line"/>
			<point x="350" y="571" type="line"/>
			<point x="510" y="571" type="line"/>
			<point x="510" y="655" type="line"/>
			<point x="90" y="655" type="line"/>
			<point x="90" y="571" type="line"/>
			<point x="250" y="571" type="line"/>
			<point x="250" y="84" type="line"/>
			<point x="90" y="84" type="line"/>
		</contour>
		<contour>
			<point name="aboveUC" x="300" y="675" type="move"/>
		</contour>
		<contour>
			<point name="ogonekUC" x="300" y="0" type="move"/>
		</contour>
		<contour>
			<point name="baseLC" x="300" y="0" type="move"/>
		</contour>
		<contour>
			<point name="belowLC" x="300" y="-20" type="move"/>
		</contour>
	</outline>
</glyph>
<glyph name="J" format="1">
	<unicode hex="004A"/>
	<advance width="600"/>
	<outline>
		<contour>
			<point x="275" y="-12" type="curve" smooth="yes"/>
			<point x="443" y="-12"/>
			<point x="499" y="89"/>
			<point x="499" y="213" type="curve" smooth="yes"/>
			<point x="499" y="656" type="line"/>
			<point x="130" y="656" type="line"/>
			<point x="130" y="572" type="line"/>
			<point x="399" y="572" type="line"/>
			<point x="399" y="221" type="line" smooth="yes"/>
			<point x="399" y="118"/>
			<point x="359" y="75"/>
			<point x="272" y="75" type="curve" smooth="yes"/>
			<point x="224" y="75"/>
			<point x="173" y="102"/>
			<point x="136" y="158" type="curve"/>
			<point x="75" y="97" type="line"/>
			<point x="123" y="20"/>
			<point x="202" y="-12"/>
		</contour>
		<contour>
			<point name="aboveUC" x="325" y="675" type="move"/>
		</contour>
		<contour>
			<point name="belowLC" x="300" y="-20" type="move"/>
		</contour>
	</outline>
</glyph>
<glyph name="K" format="1">
	<unicode hex="004B"/>
	<advance width="600"/>
	<outline>
		<contour>
			<point x="90" y="0" type="line"/>
			<point x="191" y="0" type="line"/>
			<point x="191" y="201" type="line"/>
			<point x="561" y="655" type="line"/>
			<point x="448" y="655" type="line"/>
			<point x="194" y="342" type="line"/>
			<point x="191" y="342" type="line"/>
			<point x="191" y="655" type="line"/>
			<point x="90" y="655" type="line"/>
		</contour>
		<contour>
			<point x="472" y="0" type="line"/>
			<point x="584" y="0" type="line"/>
			<point x="342" y="428" type="line"/>
			<point x="282" y="350" type="line"/>
		</contour>
		<contour>
			<point name="aboveUC" x="325" y="675" type="move"/>
		</contour>
		<contour>
			<point name="belowLC" x="335" y="-20" type="move"/>
		</contour>
	</outline>
</glyph>
<glyph name="L" format="1">
	<unicode hex="004C"/>
	<advance width="600"/>
	<outline>
		<contour>
			<point x="127" y="0" type="line"/>
			<point x="541" y="0" type="line"/>
			<point x="541" y="84" type="line"/>
			<point x="226" y="84" type="line"/>
			<point x="226" y="655" type="line"/>
			<point x="127" y="655" type="line"/>
		</contour>
		<contour>
			<point name="aboveUC" x="190" y="675" type="move"/>
		</contour>
		<contour>
			<point name="center" x="177" y="340" type="move"/>
		</contour>
		<contour>
			<point name="baseLC" x="345" y="0" type="move"/>
		</contour>
		<contour>
			<point name="belowLC" x="345" y="-20" type="move"/>
		</contour>
	</outline>
</glyph>
<glyph name="M" format="2">
	<unicode hex="004D"/>
	<advance width="600"/>
	<outline>
		<contour>
			<point x="68" y="0" type="line"/>
			<point x="158" y="0" type="line"/>
			<point x="158" y="295" type="line" smooth="yes"/>
			<point x="158" y="362"/>
			<point x="149" y="486"/>
			<point x="142" y="546" type="curve"/>
			<point x="145" y="546" type="line"/>
			<point x="185" y="405" type="line"/>
			<point x="267" y="174" type="line"/>
			<point x="329" y="174" type="line"/>
			<point x="412" y="405" type="line"/>
			<point x="453" y="546" type="line"/>
			<point x="456" y="546" type="line"/>
			<point x="451" y="486"/>
			<point x="440" y="362"/>
			<point x="440" y="295" type="curve" smooth="yes"/>
			<point x="440" y="0" type="line"/>
			<point x="532" y="0" type="line"/>
			<point x="532" y="655" type="line"/>
			<point x="416" y="655" type="line"/>
			<point x="331" y="388" type="line"/>
			<point x="302" y="286" type="line"/>
			<point x="298" y="286" type="line"/>
			<point x="269" y="388" type="line"/>
			<point x="184" y="655" type="line"/>
			<point x="68" y="655" type="line"/>
		</contour>
	</outline>
</glyph>
<glyph name="O" format="1">
	<unicode hex="004F"/>
	<advance width="600"/>
	<outline>
		<contour>
			<point x="300" y="-12" type="curve" smooth="yes"/>
			<point x="450" y="-12"/>
			<point x="555" y="113"/>
			<point x="555" y="330" type="curve" smooth="yes"/>
			<point x="555" y="544"/>
			<point x="450" y="667"/>
			<point x="300" y="667" type="curve" smooth="yes"/>
			<point x="150" y="667"/>
			<point x="45" y="544"/>
			<point x="45" y="330" type="curve" smooth="yes"/>
			<point x="45" y="113"/>
			<point x="150" y="-12"/>
		</contour>
		<contour>
			<point x="300" y="75" type="curve" smooth="yes"/>
			<point x="209" y="75"/>
			<point x="148" y="169"/>
			<point x="148" y="330" type="curve" smooth="yes"/>
			<point x="148" y="488"/>
			<point x="209" y="580"/>
			<point x="300" y="580" type="curve" smooth="yes"/>
			<point x="391" y="580"/>
			<point x="452" y="488"/>
			<point x="452" y="330" type="curve" smooth="yes"/>
			<point x="452" y="169"/>
			<point x="391" y="75"/>
		</contour>
		<contour>
			<point name="aboveUC" x="300" y="675" type="move"/>
		</contour>
		<contour>
			<point name="hornLC" x="421" y="645" type="move"/>
		</contour>
		<contour>
			<point name="ogonekUC" x="300" y="0" type="move"/>
		</contour>
		<contour>
			<point name="baseLC" x="300" y="0" type="move"/>
		</contour>
		<contour>
			<point name="belowLC" x="300" y="-20" type="move"/>
		</contour>
	</outline>
</glyph>
<glyph name="Q" format="2">
	<unicode hex="0051"/>
	<advance width="600"/>
	<outline>
		<contour>
			<point x="300" y="-12" type="curve" smooth="yes"/>
			<point x="450" y="-12"/>
			<point x="555" y="113"/>
			<point x="555" y="330" type="curve" smooth="yes"/>
			<point x="555" y="544"/>
			<point x="450" y="667"/>
			<point x="300" y="667" type="curve" smooth="yes"/>
			<point x="150" y="667"/>
			<point x="45" y="544"/>
			<point x="45" y="330" type="curve" smooth="yes"/>
			<point x="45" y="113"/>
			<point x="150" y="-12"/>
		</contour>
		<contour>
			<point x="300" y="70" type="curve" smooth="yes"/>
			<point x="209" y="70"/>
			<point x="148" y="162"/>
			<point x="148" y="330" type="curve" smooth="yes"/>
			<point x="148" y="488"/>
			<point x="209" y="580"/>
			<point x="300" y="580" type="curve" smooth="yes"/>
			<point x="391" y="580"/>
			<point x="452" y="488"/>
			<point x="452" y="330" type="curve" smooth="yes"/>
			<point x="452" y="162"/>
			<point x="391" y="70"/>
		</contour>
		<contour>
			<point x="482" y="-167" type="curve" smooth="yes"/>
			<point x="514" y="-167"/>
			<point x="541" y="-160"/>
			<point x="562" y="-151" type="curve"/>
			<point x="544" y="-73" type="line"/>
			<point x="531" y="-79"/>
			<point x="514" y="-83"/>
			<point x="494" y="-83" type="curve" smooth="yes"/>
			<point x="426" y="-83"/>
			<point x="371" y="-55"/>
			<point x="352" y="10" type="curve"/>
			<point x="249" y="0" type="line"/>
			<point x="283" y="-96"/>
			<point x="361" y="-167"/>
		</contour>
	</outline>
	<anchor name="aboveUC" x="303" y="682"/>
</glyph>
<glyph name="R" format="1">
	<unicode hex="0052"/>
	<advance width="600"/>
	<outline>
		<contour>
			<point x="92" y="0" type="line"/>
			<point x="192" y="0" type="line"/>
			<point x="192" y="266" type="line"/>
			<point x="303" y="266" type="line" smooth="yes"/>
			<point x="438" y="266"/>
			<point x="538" y="330"/>
			<point x="538" y="466" type="curve" smooth="yes"/>
			<point x="538" y="607"/>
			<point x="438" y="655"/>
			<point x="303" y="655" type="curve" smooth="yes"/>
			<point x="92" y="655" type="line"/>
		</contour>
		<contour>
			<point x="192" y="347" type="line"/>
			<point x="192" y="575" type="line"/>
			<point x="291" y="575" type="line" smooth="yes"/>
			<point x="387" y="575"/>
			<point x="439" y="546"/>
			<point x="439" y="466" type="curve" smooth="yes"/>
			<point x="439" y="386"/>
			<point x="387" y="347"/>
			<point x="291" y="347" type="curve" smooth="yes"/>
		</contour>
		<contour>
			<point x="284" y="293" type="line"/>
			<point x="448" y="0" type="line"/>
			<point x="561" y="0" type="line"/>
			<point x="359" y="350" type="line"/>
		</contour>
		<contour>
			<point name="aboveUC" x="303" y="675" type="move"/>
		</contour>
		<contour>
			<point name="baseLC" x="139" y="0" type="move"/>
		</contour>
		<contour>
			<point name="belowLC" x="320" y="-20" type="move"/>
		</contour>
	</outline>
</glyph>
<glyph name="S" format="1">
	<unicode hex="0053"/>
	<advance width="600"/>
	<outline>
		<contour>
			<point x="303" y="-12" type="curve" smooth="yes"/>
			<point x="452" y="-12"/>
			<point x="541" y="74"/>
			<point x="541" y="179" type="curve" smooth="yes"/>
			<point x="541" y="275"/>
			<point x="479" y="322"/>
			<point x="397" y="354" type="curve" smooth="yes"/>
			<point x="308" y="393" type="line" smooth="yes"/>
			<point x="250" y="416"/>
			<point x="194" y="437"/>
			<point x="194" y="494" type="curve" smooth="yes"/>
			<point x="194" y="547"/>
			<point x="240" y="580"/>
			<point x="309" y="580" type="curve" smooth="yes"/>
			<point x="376" y="580"/>
			<point x="424" y="558"/>
			<point x="467" y="521" type="curve"/>
			<point x="519" y="585" type="line"/>
			<point x="468" y="635"/>
			<point x="395" y="667"/>
			<point x="314" y="667" type="curve" smooth="yes"/>
			<point x="184" y="667"/>
			<point x="93" y="590"/>
			<point x="93" y="488" type="curve" smooth="yes"/>
			<point x="93" y="392"/>
			<point x="166" y="343"/>
			<point x="233" y="317" type="curve" smooth="yes"/>
			<point x="325" y="276" type="line" smooth="yes"/>
			<point x="391" y="249"/>
			<point x="439" y="231"/>
			<point x="439" y="167" type="curve" smooth="yes"/>
			<point x="439" y="113"/>
			<point x="392" y="75"/>
			<point x="309" y="75" type="curve" smooth="yes"/>
			<point x="237" y="75"/>
			<point x="171" y="106"/>
			<point x="121" y="153" type="curve"/>
			<point x="63" y="85" type="line"/>
			<point x="125" y="24"/>
			<point x="209" y="-12"/>
		</contour>
		<contour>
			<point name="aboveUC" x="317" y="675" type="move"/>
		</contour>
		<contour>
			<point name="baseLC" x="315" y="0" type="move"/>
		</contour>
		<contour>
			<point name="belowLC" x="310" y="-20" type="move"/>
		</contour>
	</outline>
</glyph>
<glyph name="T" format="1">
	<unicode hex="0054"/>
	<advance width="600"/>
	<outline>
		<contour>
			<point x="250" y="0" type="line"/>
			<point x="350" y="0" type="line"/>
			<point x="350" y="571" type="line"/>
			<point x="561" y="571" type="line"/>
			<point x="561" y="655" type="line"/>
			<point x="39" y="655" type="line"/>
			<point x="39" y="571" type="line"/>
			<point x="250" y="571" type="line"/>
		</contour>
		<contour>
			<point name="aboveUC" x="300" y="675" type="move"/>
		</contour>
		<contour>
			<point name="baseLC" x="300" y="0" type="move"/>
		</contour>
		<contour>
			<point name="belowLC" x="300" y="-20" type="move"/>
		</contour>
	</outline>
</glyph>
<glyph name="U" format="2">
	<unicode hex="0055"/>
	<advance width="600"/>
	<outline>
		<contour>
			<point x="301" y="-12" type="curve" smooth="yes"/>
			<point x="437" y="-12"/>
			<point x="525" y="65"/>
			<point x="525" y="249" type="curve" smooth="yes"/>
			<point x="525" y="655" type="line"/>
			<point x="428" y="655" type="line"/>
			<point x="428" y="243" type="line" smooth="yes"/>
			<point x="428" y="123"/>
			<point x="376" y="75"/>
			<point x="301" y="75" type="curve" smooth="yes"/>
			<point x="227" y="75"/>
			<point x="176" y="123"/>
			<point x="176" y="243" type="curve" smooth="yes"/>
			<point x="176" y="655" type="line"/>
			<point x="75" y="655" type="line"/>
			<point x="75" y="249" type="line" smooth="yes"/>
			<point x="75" y="65"/>
			<point x="165" y="-12"/>
		</contour>
	</outline>
	<anchor name="aboveUC" x="300" y="675"/>
	<anchor name="baseLC" x="300" y="0"/>
	<anchor name="belowLC" x="300" y="-20"/>
	<anchor name="hornLC" x="505" y="665"/>
	<anchor name="ogonekUC" x="300" y="0"/>
</glyph>
<glyph name="W" format="1">
	<unicode hex="0057"/>
	<advance width="600"/>
	<outline>
		<contour>
			<point x="105" y="0" type="line"/>
			<point x="220" y="0" type="line"/>
			<point x="277" y="248" type="line" smooth="yes"/>
			<point x="287" y="288"/>
			<point x="293" y="328"/>
			<point x="299" y="368" type="curve"/>
			<point x="302" y="368" type="line"/>
			<point x="307" y="328"/>
			<point x="315" y="288"/>
			<point x="324" y="248" type="curve" smooth="yes"/>
			<point x="382" y="0" type="line"/>
			<point x="500" y="0" type="line"/>
			<point x="592" y="656" type="line"/>
			<point x="488" y="656" type="line"/>
			<point x="449" y="260" type="line" smooth="yes"/>
			<point x="444" y="206"/>
			<point x="442" y="169"/>
			<point x="439" y="106" type="curve"/>
			<point x="435" y="106" type="line"/>
			<point x="424" y="169"/>
			<point x="416" y="206"/>
			<point x="403" y="260" type="curve" smooth="yes"/>
			<point x="347" y="488" type="line"/>
			<point x="263" y="488" type="line"/>
			<point x="204" y="260" type="line" smooth="yes"/>
			<point x="192" y="205"/>
			<point x="183" y="169"/>
			<point x="172" y="106" type="curve"/>
			<point x="169" y="106" type="line"/>
			<point x="166" y="169"/>
			<point x="163" y="205"/>
			<point x="158" y="260" type="curve"/>
			<point x="118" y="656" type="line"/>
			<point x="9" y="656" type="line"/>
		</contour>
		<contour>
			<point name="aboveUC" x="300" y="675" type="move"/>
		</contour>
		<contour>
			<point name="belowLC" x="302" y="-20" type="move"/>
		</contour>
	</outline>
</glyph>
<glyph name="Y" format="1">
	<unicode hex="0059"/>
	<advance width="600"/>
	<outline>
		<contour>
			<point x="250" y="0" type="line"/>
			<point x="350" y="0" type="line"/>
			<point x="350" y="230" type="line"/>
			<point x="567" y="655" type="line"/>
			<point x="464" y="655" type="line"/>
			<point x="377" y="470" type="line" smooth="yes"/>
			<point x="353" y="419"/>
			<point x="329" y="370"/>
			<point x="304" y="318" type="curve"/>
			<point x="300" y="318" type="line"/>
			<point x="275" y="370"/>
			<point x="253" y="419"/>
			<point x="229" y="470" type="curve" smooth="yes"/>
			<point x="139" y="655" type="line"/>
			<point x="33" y="655" type="line"/>
			<point x="250" y="230" type="line"/>
		</contour>
		<contour>
			<point name="aboveUC" x="300" y="675" type="move"/>
		</contour>
		<contour>
			<point name="ogonekUC" x="300" y="0" type="move"/>
		</contour>
		<contour>
			<point name="belowLC" x="300" y="-20" type="move"/>
		</contour>
	</outline>
</glyph>
<glyph name="Z" format="1">
	<unicode hex="005A"/>
	<advance width="600"/>
	<outline>
		<contour>
			<point x="63" y="0" type="line"/>
			<point x="541" y="0" type="line"/>
			<point x="541" y="84" type="line"/>
			<point x="185" y="84" type="line"/>
			<point x="536" y="595" type="line"/>
			<point x="536" y="656" type="line"/>
			<point x="94" y="656" type="line"/>
			<point x="94" y="572" type="line"/>
			<point x="413" y="572" type="line"/>
			<point x="63" y="60" type="line"/>
		</contour>
		<contour>
			<point name="aboveUC" x="318" y="675" type="move"/>
		</contour>
		<contour>
			<point name="baseLC" x="320" y="0" type="move"/>
		</contour>
		<contour>
			<point name="belowLC" x="315" y="-20" type="move"/>
		</contour>
	</outline>
</glyph>
<glyph name="underscore" format="1">
	<unicode hex="005F"/>
	<advance width="600"/>
	<outline>
		<contour>
			<point x="60" y="-146" type="line"/>
			<point x="540" y="-146" type="line"/>
			<point x="540" y="-65" type="line"/>
			<point x="60" y="-65" type="line"/>
		</contour>
	</outline>
</glyph>
<glyph name="j" format="1">
	<unicode hex="006A"/>
	<advance width="600"/>
	<outline>
		<component base="dotlessj"/>
		<component base="dotaccentcmb" xOffset="47"/>
		<contour>
			<point name="aboveUC" x="347" y="744" type="move"/>
		</contour>
		<contour>
			<point name="belowLC" x="240" y="-215" type="move"/>
		</contour>
	</outline>
</glyph>
<glyph name="n" format="1">
	<unicode hex="006E"/>
	<advance width="600"/>
	<outline>
		<contour>
			<point x="88" y="0" type="line"/>
			<point x="187" y="0" type="line"/>
			<point x="187" y="337" type="line"/>
			<point x="237" y="389"/>
			<point x="274" y="415"/>
			<point x="326" y="415" type="curve" smooth="yes"/>
			<point x="400" y="415"/>
			<point x="428" y="375"/>
			<point x="428" y="290" type="curve" smooth="yes"/>
			<point x="428" y="0" type="line"/>
			<point x="527" y="0" type="line"/>
			<point x="527" y="303" type="line" smooth="yes"/>
			<point x="527" y="430"/>
			<point x="475" y="501"/>
			<point x="361" y="501" type="curve" smooth="yes"/>
			<point x="285" y="501"/>
			<point x="230" y="461"/>
			<point x="181" y="410" type="curve"/>
			<point x="177" y="410" type="line"/>
			<point x="169" y="489" type="line"/>
			<point x="88" y="489" type="line"/>
		</contour>
		<contour>
			<point name="aboveLC" x="317" y="510" type="move"/>
		</contour>
		<contour>
			<point name="baseLC" x="477" y="0" type="move"/>
		</contour>
		<contour>
			<point name="belowLC" x="311" y="-20" type="move"/>
		</contour>
	</outline>
</glyph>
<glyph name="o" format="1">
	<unicode hex="006F"/>
	<advance width="600"/>
	<outline>
		<contour>
			<point x="300" y="-12" type="curve" smooth="yes"/>
			<point x="428" y="-12"/>
			<point x="544" y="82"/>
			<point x="544" y="244" type="curve" smooth="yes"/>
			<point x="544" y="407"/>
			<point x="428" y="501"/>
			<point x="300" y="501" type="curve" smooth="yes"/>
			<point x="172" y="501"/>
			<point x="56" y="407"/>
			<point x="56" y="244" type="curve" smooth="yes"/>
			<point x="56" y="82"/>
			<point x="172" y="-12"/>
		</contour>
		<contour>
			<point x="300" y="69" type="curve" smooth="yes"/>
			<point x="213" y="69"/>
			<point x="158" y="139"/>
			<point x="158" y="244" type="curve" smooth="yes"/>
			<point x="158" y="349"/>
			<point x="213" y="419"/>
			<point x="300" y="419" type="curve" smooth="yes"/>
			<point x="387" y="419"/>
			<point x="442" y="349"/>
			<point x="442" y="244" type="curve" smooth="yes"/>
			<point x="442" y="139"/>
			<point x="387" y="69"/>
		</contour>
		<contour>
			<point name="hornLC" x="412" y="489" type="move"/>
		</contour>
		<contour>
			<point name="aboveLC" x="300" y="510" type="move"/>
		</contour>
		<contour>
			<point name="ogonekLC" x="300" y="0" type="move"/>
		</contour>
		<contour>
			<point name="baseLC" x="300" y="0" type="move"/>
		</contour>
		<contour>
			<point name="belowLC" x="300" y="-20" type="move"/>
		</contour>
	</outline>
</glyph>
<glyph name="u" format="2">
	<unicode hex="0075"/>
	<advance width="600"/>
	<outline>
		<contour>
			<point x="240" y="-12" type="curve" smooth="yes"/>
			<point x="314" y="-12"/>
			<point x="369" y="26"/>
			<point x="417" y="81" type="curve"/>
			<point x="421" y="81" type="line"/>
			<point x="429" y="0" type="line"/>
			<point x="510" y="0" type="line"/>
			<point x="510" y="489" type="line"/>
			<point x="411" y="489" type="line"/>
			<point x="411" y="154" type="line"/>
			<point x="363" y="96"/>
			<point x="325" y="73"/>
			<point x="274" y="73" type="curve" smooth="yes"/>
			<point x="200" y="73"/>
			<point x="172" y="113"/>
			<point x="172" y="199" type="curve" smooth="yes"/>
			<point x="172" y="489" type="line"/>
			<point x="73" y="489" type="line"/>
			<point x="73" y="186" type="line" smooth="yes"/>
			<point x="73" y="58"/>
			<point x="125" y="-12"/>
		</contour>
	</outline>
	<anchor name="aboveLC" x="295" y="510"/>
	<anchor name="baseLC" x="463" y="0"/>
	<anchor name="belowLC" x="304" y="-20"/>
	<anchor name="ogonekCXT-ATH" x="285" y="0"/>
	<anchor name="ogonekLC" x="425" y="0"/>
</glyph>
<glyph name="y" format="2">
	<unicode hex="0079"/>
	<advance width="600"/>
	<outline>
		<contour>
			<point x="134" y="-205" type="curve" smooth="yes"/>
			<point x="248" y="-205"/>
			<point x="308" y="-135"/>
			<point x="347" y="-31" type="curve"/>
			<point x="556" y="489" type="line"/>
			<point x="462" y="489" type="line"/>
			<point x="365" y="234" type="line" smooth="yes"/>
			<point x="349" y="189"/>
			<point x="331" y="138"/>
			<point x="315" y="91" type="curve"/>
			<point x="311" y="91" type="line"/>
			<point x="291" y="139"/>
			<point x="272" y="190"/>
			<point x="254" y="234" type="curve" smooth="yes"/>
			<point x="144" y="489" type="line"/>
			<point x="45" y="489" type="line"/>
			<point x="268" y="3" type="line"/>
			<point x="255" y="-31" type="line" smooth="yes"/>
			<point x="233" y="-85"/>
			<point x="194" y="-125"/>
			<point x="129" y="-125" type="curve" smooth="yes"/>
			<point x="114" y="-125"/>
			<point x="99" y="-122"/>
			<point x="87" y="-118" type="curve"/>
			<point x="67" y="-195" type="line"/>
			<point x="85" y="-201"/>
			<point x="110" y="-205"/>
		</contour>
	</outline>
	<anchor name="aboveLC" x="305" y="510"/>
	<anchor name="belowLC" x="267" y="-215"/>
	<anchor name="ogonekLC" x="269" y="-101"/>
</glyph>
<glyph name="z" format="1">
	<unicode hex="007A"/>
	<advance width="600"/>
	<outline>
		<contour>
			<point x="71" y="0" type="line"/>
			<point x="534" y="0" type="line"/>
			<point x="534" y="80" type="line"/>
			<point x="210" y="80" type="line"/>
			<point x="525" y="436" type="line"/>
			<point x="525" y="489" type="line"/>
			<point x="106" y="489" type="line"/>
			<point x="106" y="409" type="line"/>
			<point x="384" y="409" type="line"/>
			<point x="71" y="53" type="line"/>
		</contour>
		<contour>
			<point name="aboveLC" x="324" y="510" type="move"/>
		</contour>
		<contour>
			<point name="baseLC" x="320" y="0" type="move"/>
		</contour>
		<contour>
			<point name="belowLC" x="313" y="-20" type="move"/>
		</contour>
	</outline>
</glyph>
<glyph name="braceleft" format="2">
	<unicode hex="007B"/>
	<advance width="600"/>
	<outline>
		<contour>
			<point x="435" y="-152" type="curve" smooth="yes"/>
			<point x="500" y="-152" type="line"/>
			<point x="500" y="-97" type="line"/>
			<point x="451" y="-97" type="line" smooth="yes"/>
			<point x="354" y="-97"/>
			<point x="333" y="-74"/>
			<point x="333" y="-11" type="curve" smooth="yes"/>
			<point x="333" y="48"/>
			<point x="339" y="99"/>
			<point x="339" y="165" type="curve" smooth="yes"/>
			<point x="339" y="232"/>
			<point x="315" y="264"/>
			<point x="245" y="276" type="curve"/>
			<point x="245" y="280" type="line"/>
			<point x="315" y="292"/>
			<point x="339" y="324"/>
			<point x="339" y="391" type="curve" smooth="yes"/>
			<point x="339" y="452"/>
			<point x="333" y="511"/>
			<point x="333" y="567" type="curve" smooth="yes"/>
			<point x="333" y="630"/>
			<point x="354" y="653"/>
			<point x="451" y="653" type="curve" smooth="yes"/>
			<point x="500" y="653" type="line"/>
			<point x="500" y="708" type="line"/>
			<point x="435" y="708" type="line" smooth="yes"/>
			<point x="309" y="708"/>
			<point x="250" y="677"/>
			<point x="250" y="572" type="curve" smooth="yes"/>
			<point x="250" y="503"/>
			<point x="259" y="448"/>
			<point x="259" y="385" type="curve" smooth="yes"/>
			<point x="259" y="347"/>
			<point x="232" y="309"/>
			<point x="116" y="308" type="curve"/>
			<point x="116" y="248" type="line"/>
			<point x="232" y="247"/>
			<point x="259" y="209"/>
			<point x="259" y="171" type="curve" smooth="yes"/>
			<point x="259" y="104"/>
			<point x="250" y="56"/>
			<point x="250" y="-16" type="curve" smooth="yes"/>
			<point x="250" y="-121"/>
			<point x="309" y="-152"/>
		</contour>
	</outline>
</glyph>
<glyph name="yen" format="1">
	<unicode hex="00A5"/>
	<advance width="600"/>
	<outline>
		<contour>
			<point x="250" y="0" type="line"/>
			<point x="349" y="0" type="line"/>
			<point x="349" y="155" type="line"/>
			<point x="528" y="155" type="line"/>
			<point x="528" y="209" type="line"/>
			<point x="349" y="209" type="line"/>
			<point x="349" y="271" type="line"/>
			<point x="528" y="271" type="line"/>
			<point x="528" y="324" type="line"/>
			<point x="373" y="324" type="line"/>
			<point x="553" y="637" type="line"/>
			<point x="454" y="637" type="line"/>
			<point x="370" y="476" type="line" smooth="yes"/>
			<point x="347" y="432"/>
			<point x="326" y="388"/>
			<point x="303" y="342" type="curve"/>
			<point x="299" y="342" type="line"/>
			<point x="276" y="388"/>
			<point x="255" y="432"/>
			<point x="233" y="476" type="curve" smooth="yes"/>
			<point x="149" y="637" type="line"/>
			<point x="47" y="637" type="line"/>
			<point x="226" y="324" type="line"/>
			<point x="72" y="324" type="line"/>
			<point x="72" y="271" type="line"/>
			<point x="250" y="271" type="line"/>
			<point x="250" y="209" type="line"/>
			<point x="72" y="209" type="line"/>
			<point x="72" y="155" type="line"/>
			<point x="250" y="155" type="line"/>
		</contour>
	</outline>
</glyph>
<glyph name="copyright" format="1">
	<unicode hex="00A9"/>
	<advance width="600"/>
	<outline>
		<contour>
			<point x="300" y="-10" type="curve" smooth="yes"/>
			<point x="453" y="-10"/>
			<point x="573" y="119"/>
			<point x="573" y="324" type="curve" smooth="yes"/>
			<point x="573" y="528"/>
			<point x="453" y="654"/>
			<point x="300" y="654" type="curve" smooth="yes"/>
			<point x="147" y="654"/>
			<point x="27" y="528"/>
			<point x="27" y="324" type="curve" smooth="yes"/>
			<point x="27" y="119"/>
			<point x="147" y="-10"/>
		</contour>
		<contour>
			<point x="300" y="36" type="curve" smooth="yes"/>
			<point x="167" y="36"/>
			<point x="78" y="152"/>
			<point x="78" y="324" type="curve" smooth="yes"/>
			<point x="78" y="496"/>
			<point x="167" y="608"/>
			<point x="300" y="608" type="curve" smooth="yes"/>
			<point x="433" y="608"/>
			<point x="522" y="496"/>
			<point x="522" y="324" type="curve" smooth="yes"/>
			<point x="522" y="152"/>
			<point x="433" y="36"/>
		</contour>
		<contour>
			<point x="309" y="126" type="curve" smooth="yes"/>
			<point x="358" y="126"/>
			<point x="391" y="145"/>
			<point x="422" y="171" type="curve"/>
			<point x="387" y="220" type="line"/>
			<point x="365" y="203"/>
			<point x="344" y="189"/>
			<point x="312" y="189" type="curve" smooth="yes"/>
			<point x="256" y="189"/>
			<point x="221" y="240"/>
			<point x="221" y="323" type="curve" smooth="yes"/>
			<point x="221" y="397"/>
			<point x="258" y="450"/>
			<point x="316" y="450" type="curve" smooth="yes"/>
			<point x="341" y="450"/>
			<point x="358" y="439"/>
			<point x="378" y="421" type="curve"/>
			<point x="418" y="466" type="line"/>
			<point x="391" y="492"/>
			<point x="360" y="513"/>
			<point x="311" y="513" type="curve" smooth="yes"/>
			<point x="223" y="513"/>
			<point x="144" y="440"/>
			<point x="144" y="323" type="curve" smooth="yes"/>
			<point x="144" y="200"/>
			<point x="216" y="126"/>
		</contour>
	</outline>
</glyph>
<glyph name="registered" format="1">
	<unicode hex="00AE"/>
	<advance width="600"/>
	<outline>
		<contour>
			<point x="300" y="317" type="curve" smooth="yes"/>
			<point x="404" y="317"/>
			<point x="490" y="398"/>
			<point x="490" y="515" type="curve" smooth="yes"/>
			<point x="490" y="632"/>
			<point x="404" y="714"/>
			<point x="300" y="714" type="curve" smooth="yes"/>
			<point x="195" y="714"/>
			<point x="109" y="632"/>
			<point x="109" y="515" type="curve" smooth="yes"/>
			<point x="109" y="398"/>
			<point x="195" y="317"/>
		</contour>
		<contour>
			<point x="300" y="357" type="curve" smooth="yes"/>
			<point x="216" y="357"/>
			<point x="152" y="421"/>
			<point x="152" y="515" type="curve" smooth="yes"/>
			<point x="152" y="609"/>
			<point x="216" y="674"/>
			<point x="300" y="674" type="curve" smooth="yes"/>
			<point x="384" y="674"/>
			<point x="447" y="609"/>
			<point x="447" y="515" type="curve" smooth="yes"/>
			<point x="447" y="421"/>
			<point x="384" y="357"/>
		</contour>
		<contour>
			<point x="225" y="417" type="line"/>
			<point x="270" y="417" type="line"/>
			<point x="270" y="484" type="line"/>
			<point x="308" y="484" type="line"/>
			<point x="342" y="417" type="line"/>
			<point x="391" y="417" type="line"/>
			<point x="346" y="498" type="line"/>
			<point x="369" y="507"/>
			<point x="383" y="529"/>
			<point x="383" y="553" type="curve" smooth="yes"/>
			<point x="383" y="600"/>
			<point x="347" y="618"/>
			<point x="304" y="618" type="curve" smooth="yes"/>
			<point x="225" y="618" type="line"/>
		</contour>
		<contour>
			<point x="270" y="519" type="line"/>
			<point x="270" y="582" type="line"/>
			<point x="296" y="582" type="line" smooth="yes"/>
			<point x="324" y="582"/>
			<point x="335" y="569"/>
			<point x="335" y="550" type="curve" smooth="yes"/>
			<point x="335" y="530"/>
			<point x="320" y="519"/>
			<point x="294" y="519" type="curve" smooth="yes"/>
		</contour>
	</outline>
</glyph>
<glyph name="Eth" format="2">
	<unicode hex="00D0"/>
	<advance width="600"/>
	<outline>
		<contour>
			<point x="83" y="0" type="line"/>
			<point x="255" y="0" type="line" smooth="yes"/>
			<point x="444" y="0"/>
			<point x="556" y="118"/>
			<point x="556" y="330" type="curve" smooth="yes"/>
			<point x="556" y="543"/>
			<point x="444" y="655"/>
			<point x="250" y="655" type="curve" smooth="yes"/>
			<point x="83" y="655" type="line"/>
			<point x="83" y="375" type="line"/>
			<point x="9" y="369" type="line"/>
			<point x="9" y="310" type="line"/>
			<point x="83" y="310" type="line"/>
		</contour>
		<contour>
			<point x="182" y="81" type="line"/>
			<point x="182" y="310" type="line"/>
			<point x="317" y="310" type="line"/>
			<point x="317" y="375" type="line"/>
			<point x="182" y="375" type="line"/>
			<point x="182" y="574" type="line"/>
			<point x="243" y="574" type="line" smooth="yes"/>
			<point x="379" y="574"/>
			<point x="452" y="493"/>
			<point x="452" y="330" type="curve" smooth="yes"/>
			<point x="452" y="167"/>
			<point x="379" y="81"/>
			<point x="243" y="81" type="curve" smooth="yes"/>
		</contour>
	</outline>
</glyph>
<glyph name="Oslash" format="1">
	<unicode hex="00D8"/>
	<advance width="600"/>
	<outline>
		<contour>
			<point x="32" y="5" type="line"/>
			<point x="94" y="-35" type="line"/>
			<point x="565" y="649" type="line"/>
			<point x="503" y="689" type="line"/>
		</contour>
		<component base="O"/>
		<contour>
			<point name="aboveUC" x="300" y="675" type="move"/>
		</contour>
		<contour>
			<point name="baseLC" x="300" y="0" type="move"/>
		</contour>
	</outline>
</glyph>
<glyph name="eth" format="2">
	<unicode hex="00F0"/>
	<advance width="600"/>
	<outline>
		<contour>
			<point x="297" y="-12" type="curve" smooth="yes"/>
			<point x="447" y="-12"/>
			<point x="540" y="99"/>
			<point x="540" y="259" type="curve" smooth="yes"/>
			<point x="540" y="518"/>
			<point x="386" y="647"/>
			<point x="202" y="733" type="curve"/>
			<point x="157" y="671" type="line"/>
			<point x="340" y="583"/>
			<point x="446" y="482"/>
			<point x="446" y="255" type="curve" smooth="yes"/>
			<point x="446" y="143"/>
			<point x="396" y="69"/>
			<point x="300" y="69" type="curve" smooth="yes"/>
			<point x="217" y="69"/>
			<point x="148" y="129"/>
			<point x="148" y="223" type="curve" smooth="yes"/>
			<point x="148" y="312"/>
			<point x="202" y="373"/>
			<point x="299" y="373" type="curve" smooth="yes"/>
			<point x="351" y="373"/>
			<point x="405" y="351"/>
			<point x="449" y="290" type="curve"/>
			<point x="448" y="352" type="line"/>
			<point x="415" y="414"/>
			<point x="350" y="449"/>
			<point x="283" y="449" type="curve" smooth="yes"/>
			<point x="155" y="449"/>
			<point x="57" y="361"/>
			<point x="57" y="223" type="curve" smooth="yes"/>
			<point x="57" y="78"/>
			<point x="169" y="-12"/>
		</contour>
		<contour>
			<point x="172" y="489" type="line"/>
			<point x="515" y="665" type="line"/>
			<point x="483" y="719" type="line"/>
			<point x="139" y="545" type="line"/>
		</contour>
	</outline>
</glyph>
<glyph name="dcroat" format="2">
	<unicode hex="0111"/>
	<advance width="600"/>
	<outline>
		<contour>
			<point x="267" y="-12" type="curve" smooth="yes"/>
			<point x="324" y="-12"/>
			<point x="381" y="21"/>
			<point x="420" y="61" type="curve"/>
			<point x="423" y="61" type="line"/>
			<point x="431" y="0" type="line"/>
			<point x="512" y="0" type="line"/>
			<point x="512" y="709" type="line"/>
			<point x="414" y="709" type="line"/>
			<point x="414" y="507" type="line"/>
			<point x="418" y="420" type="line"/>
			<point x="415" y="420" type="line"/>
			<point x="376" y="457"/>
			<point x="333" y="481"/>
			<point x="275" y="481" type="curve" smooth="yes"/>
			<point x="162" y="481"/>
			<point x="57" y="387"/>
			<point x="57" y="233" type="curve" smooth="yes"/>
			<point x="57" y="77"/>
			<point x="140" y="-12"/>
		</contour>
		<contour>
			<point x="289" y="70" type="curve" smooth="yes"/>
			<point x="207" y="70"/>
			<point x="159" y="130"/>
			<point x="159" y="235" type="curve" smooth="yes"/>
			<point x="159" y="334"/>
			<point x="221" y="398"/>
			<point x="299" y="398" type="curve" smooth="yes"/>
			<point x="336" y="398"/>
			<point x="374" y="384"/>
			<point x="414" y="348" type="curve"/>
			<point x="414" y="136" type="line"/>
			<point x="375" y="92"/>
			<point x="334" y="70"/>
		</contour>
		<contour>
			<point x="244" y="560" type="line"/>
			<point x="508" y="560" type="line"/>
			<point x="584" y="566" type="line"/>
			<point x="584" y="627" type="line"/>
			<point x="244" y="627" type="line"/>
		</contour>
	</outline>
</glyph>
<glyph name="Iogonek" format="2">
	<unicode hex="012E"/>
	<advance width="600"/>
	<outline>
		<contour>
			<point x="310" y="-226" type="curve" smooth="yes"/>
			<point x="348" y="-226"/>
			<point x="382" y="-210"/>
			<point x="406" y="-189" type="curve"/>
			<point x="378" y="-138" type="line"/>
			<point x="367" y="-148"/>
			<point x="351" y="-158"/>
			<point x="331" y="-158" type="curve" smooth="yes"/>
			<point x="305" y="-158"/>
			<point x="279" y="-143"/>
			<point x="279" y="-110" type="curve" smooth="yes"/>
			<point x="279" y="-74"/>
			<point x="302" y="-34"/>
			<point x="354" y="0" type="curve"/>
			<point x="510" y="0" type="line"/>
			<point x="510" y="84" type="line"/>
			<point x="350" y="84" type="line"/>
			<point x="350" y="571" type="line"/>
			<point x="510" y="571" type="line"/>
			<point x="510" y="655" type="line"/>
			<point x="90" y="655" type="line"/>
			<point x="90" y="571" type="line"/>
			<point x="250" y="571" type="line"/>
			<point x="250" y="84" type="line"/>
			<point x="90" y="84" type="line"/>
			<point x="90" y="0" type="line"/>
			<point x="276" y="0" type="line"/>
			<point x="244" y="-29"/>
			<point x="204" y="-75"/>
			<point x="204" y="-133" type="curve" smooth="yes"/>
			<point x="204" y="-194"/>
			<point x="250" y="-226"/>
		</contour>
	</outline>
	<anchor name="aboveUC" x="300" y="675"/>
</glyph>
<glyph name="dotlessi" format="2">
	<unicode hex="0131"/>
	<advance width="600"/>
	<outline>
		<contour>
			<point x="306" y="0" type="line"/>
			<point x="405" y="0" type="line"/>
			<point x="405" y="489" type="line"/>
			<point x="87" y="489" type="line"/>
			<point x="87" y="409" type="line"/>
			<point x="306" y="409" type="line"/>
		</contour>
	</outline>
	<anchor name="aboveLC" x="347" y="510"/>
	<anchor name="baseLC" x="354" y="0"/>
	<anchor name="belowLC" x="347" y="-20"/>
	<anchor name="ogonekLC" x="355" y="0"/>
</glyph>
<glyph name="IJ" format="1">
	<unicode hex="0132"/>
	<advance width="600"/>
	<outline>
		<contour>
			<point x="102" y="0" type="line"/>
			<point x="202" y="0" type="line"/>
			<point x="202" y="655" type="line"/>
			<point x="102" y="655" type="line"/>
		</contour>
		<contour>
			<point x="349" y="-169" type="curve" smooth="yes"/>
			<point x="459" y="-169"/>
			<point x="498" y="-99"/>
			<point x="498" y="2" type="curve" smooth="yes"/>
			<point x="498" y="655" type="line"/>
			<point x="398" y="655" type="line"/>
			<point x="398" y="4" type="line" smooth="yes"/>
			<point x="398" y="-55"/>
			<point x="385" y="-88"/>
			<point x="337" y="-88" type="curve" smooth="yes"/>
			<point x="320" y="-88"/>
			<point x="303" y="-83"/>
			<point x="289" y="-79" type="curve"/>
			<point x="270" y="-156" type="line"/>
			<point x="289" y="-163"/>
			<point x="315" y="-169"/>
		</contour>
	</outline>
</glyph>
<glyph name="ij" format="2">
	<unicode hex="0133"/>
	<advance width="600"/>
	<outline>
		<contour>
			<point x="103" y="0" type="line"/>
			<point x="202" y="0" type="line"/>
			<point x="202" y="489" type="line"/>
			<point x="103" y="489" type="line"/>
		</contour>
		<contour>
			<point x="153" y="582" type="curve" smooth="yes"/>
			<point x="192" y="582"/>
			<point x="220" y="607"/>
			<point x="220" y="645" type="curve" smooth="yes"/>
			<point x="220" y="683"/>
			<point x="192" y="708"/>
			<point x="153" y="708" type="curve" smooth="yes"/>
			<point x="115" y="708"/>
			<point x="86" y="683"/>
			<point x="86" y="645" type="curve" smooth="yes"/>
			<point x="86" y="607"/>
			<point x="115" y="582"/>
		</contour>
		<contour>
			<point x="367" y="-212" type="curve" smooth="yes"/>
			<point x="474" y="-212"/>
			<point x="512" y="-142"/>
			<point x="512" y="-40" type="curve" smooth="yes"/>
			<point x="512" y="489" type="line"/>
			<point x="413" y="489" type="line"/>
			<point x="413" y="-41" type="line" smooth="yes"/>
			<point x="413" y="-99"/>
			<point x="401" y="-132"/>
			<point x="355" y="-132" type="curve" smooth="yes"/>
			<point x="339" y="-132"/>
			<point x="324" y="-128"/>
			<point x="311" y="-124" type="curve"/>
			<point x="292" y="-199" type="line"/>
			<point x="310" y="-206"/>
			<point x="335" y="-212"/>
		</contour>
		<contour>
			<point x="463" y="582" type="curve" smooth="yes"/>
			<point x="502" y="582"/>
			<point x="530" y="607"/>
			<point x="530" y="645" type="curve" smooth="yes"/>
			<point x="530" y="683"/>
			<point x="502" y="708"/>
			<point x="463" y="708" type="curve" smooth="yes"/>
			<point x="425" y="708"/>
			<point x="396" y="683"/>
			<point x="396" y="645" type="curve" smooth="yes"/>
			<point x="396" y="607"/>
			<point x="425" y="582"/>
		</contour>
	</outline>
</glyph>
<glyph name="Lslash" format="1">
	<unicode hex="0141"/>
	<advance width="600"/>
	<outline>
		<contour>
			<point x="40" y="178" type="line"/>
			<point x="137" y="232" type="line"/>
			<point x="217" y="266" type="line"/>
			<point x="463" y="398" type="line"/>
			<point x="429" y="460" type="line"/>
			<point x="217" y="346" type="line"/>
			<point x="137" y="311" type="line"/>
			<point x="6" y="240" type="line"/>
		</contour>
		<component base="L"/>
		<contour>
			<point name="aboveUC" x="190" y="675" type="move"/>
		</contour>
		<contour>
			<point name="belowLC" x="345" y="-20" type="move"/>
		</contour>
	</outline>
</glyph>
<glyph name="lslash" format="2">
	<unicode hex="0142"/>
	<advance width="600"/>
	<outline>
		<contour>
			<point x="135" y="260" type="line"/>
			<point x="241" y="323" type="line"/>
			<point x="318" y="357" type="line"/>
			<point x="510" y="465" type="line"/>
			<point x="476" y="529" type="line"/>
			<point x="318" y="440" type="line"/>
			<point x="241" y="405" type="line"/>
			<point x="100" y="324" type="line"/>
		</contour>
		<component base="l"/>
	</outline>
	<anchor name="aboveUC" x="282" y="735"/>
	<anchor name="belowLC" x="381" y="-20"/>
</glyph>
<glyph name="Tbar" format="1">
	<unicode hex="0166"/>
	<advance width="600"/>
	<outline>
		<contour>
			<point x="110" y="300" type="line"/>
			<point x="490" y="300" type="line"/>
			<point x="490" y="365" type="line"/>
			<point x="201" y="365" type="line"/>
			<point x="110" y="361" type="line"/>
		</contour>
		<component base="T"/>
		<contour>
			<point name="aboveUC" x="300" y="675" type="move"/>
		</contour>
		<contour>
			<point name="belowLC" x="300" y="-20" type="move"/>
		</contour>
	</outline>
</glyph>
<glyph name="tbar" format="1">
	<unicode hex="0167"/>
	<advance width="600"/>
	<outline>
		<contour>
			<point x="65" y="219" type="line"/>
			<point x="509" y="219" type="line"/>
			<point x="509" y="286" type="line"/>
			<point x="204" y="286" type="line"/>
			<point x="65" y="280" type="line"/>
		</contour>
		<component base="t"/>
		<contour>
			<point name="aboveLC" x="258" y="647" type="move"/>
		</contour>
		<contour>
			<point name="belowLC" x="377" y="-20" type="move"/>
		</contour>
	</outline>
</glyph>
<glyph name="Dhook" format="2">
	<unicode hex="018A"/>
	<advance width="600"/>
	<outline>
		<contour>
			<point x="204" y="0" type="line"/>
			<point x="309" y="0" type="line" smooth="yes"/>
			<point x="470" y="0"/>
			<point x="571" y="118"/>
			<point x="571" y="337" type="curve" smooth="yes"/>
			<point x="571" y="552"/>
			<point x="470" y="667"/>
			<point x="272" y="667" type="curve" smooth="yes"/>
			<point x="99" y="667"/>
			<point x="16" y="572"/>
			<point x="16" y="441" type="curve" smooth="yes"/>
			<point x="16" y="350"/>
			<point x="58" y="294"/>
			<point x="126" y="260" type="curve"/>
			<point x="170" y="327" type="line"/>
			<point x="124" y="355"/>
			<point x="100" y="387"/>
			<point x="100" y="447" type="curve" smooth="yes"/>
			<point x="100" y="525"/>
			<point x="149" y="585"/>
			<point x="249" y="585" type="curve" smooth="yes"/>
			<point x="285" y="585" type="line" smooth="yes"/>
			<point x="414" y="585"/>
			<point x="471" y="501"/>
			<point x="471" y="337" type="curve" smooth="yes"/>
			<point x="471" y="169"/>
			<point x="416" y="81"/>
			<point x="318" y="81" type="curve" smooth="yes"/>
			<point x="299" y="81" type="line"/>
			<point x="299" y="616" type="line"/>
			<point x="204" y="616" type="line"/>
		</contour>
	</outline>
</glyph>
<glyph name="Istroke" format="2">
	<unicode hex="0197"/>
	<advance width="600"/>
	<outline>
		<contour>
			<point x="144" y="309" type="line"/>
			<point x="452" y="309" type="line"/>
			<point x="452" y="378" type="line"/>
			<point x="254" y="378" type="line"/>
			<point x="144" y="373" type="line"/>
		</contour>
		<component base="I"/>
	</outline>
</glyph>
<glyph name="lambdastroke" format="2">
	<unicode hex="019B"/>
	<advance width="424"/>
	<outline>
		<contour>
			<point x="50" y="494" type="line"/>
			<point x="352" y="652" type="line"/>
			<point x="340" y="674" type="line"/>
			<point x="38" y="516" type="line"/>
		</contour>
		<component base="lambda.latin"/>
	</outline>
	<anchor name="aboveUC" x="180" y="732"/>
	<anchor name="belowLC" x="210" y="-22"/>
</glyph>
<glyph name="Ohorn" format="2">
	<unicode hex="01A0"/>
	<advance width="600"/>
	<outline>
		<contour>
			<point x="459" y="600" type="line"/>
			<point x="531" y="619"/>
			<point x="571" y="662"/>
			<point x="571" y="732" type="curve" smooth="yes"/>
			<point x="571" y="765"/>
			<point x="560" y="795"/>
			<point x="546" y="817" type="curve"/>
			<point x="470" y="785" type="line"/>
			<point x="478" y="769"/>
			<point x="485" y="746"/>
			<point x="485" y="725" type="curve" smooth="yes"/>
			<point x="485" y="676"/>
			<point x="459" y="649"/>
			<point x="406" y="638" type="curve"/>
		</contour>
		<component base="O"/>
	</outline>
	<anchor name="aboveUC" x="300" y="675"/>
	<anchor name="belowLC" x="300" y="-20"/>
</glyph>
<glyph name="uhorn" format="1">
	<unicode hex="01B0"/>
	<advance width="600"/>
	<outline>
		<contour>
			<point x="500" y="453" type="line"/>
			<point x="553" y="471"/>
			<point x="604" y="510"/>
			<point x="604" y="591" type="curve" smooth="yes"/>
			<point x="604" y="623"/>
			<point x="594" y="655"/>
			<point x="579" y="678" type="curve"/>
			<point x="504" y="644" type="line"/>
			<point x="514" y="628"/>
			<point x="519" y="605"/>
			<point x="519" y="584" type="curve" smooth="yes"/>
			<point x="519" y="515"/>
			<point x="478" y="494"/>
			<point x="432" y="489" type="curve"/>
		</contour>
		<component base="u"/>
		<contour>
			<point name="aboveLC" x="295" y="510" type="move"/>
		</contour>
		<contour>
			<point name="belowLC" x="304" y="-20" type="move"/>
		</contour>
	</outline>
</glyph>
<glyph name="clickretroflex" format="2">
	<unicode hex="01C3"/>
	<advance width="419"/>
	<outline>
		<contour>
			<point x="176" y="217" type="line"/>
			<point x="243" y="217" type="line"/>
			<point x="258" y="566" type="line"/>
			<point x="261" y="709" type="line"/>
			<point x="159" y="709" type="line"/>
			<point x="161" y="566" type="line"/>
		</contour>
		<contour>
			<point x="210" y="-12" type="curve" smooth="yes"/>
			<point x="250" y="-12"/>
			<point x="282" y="18"/>
			<point x="282" y="61" type="curve" smooth="yes"/>
			<point x="282" y="106"/>
			<point x="250" y="135"/>
			<point x="210" y="135" type="curve" smooth="yes"/>
			<point x="169" y="135"/>
			<point x="138" y="106"/>
			<point x="138" y="61" type="curve" smooth="yes"/>
			<point x="138" y="18"/>
			<point x="169" y="-12"/>
		</contour>
	</outline>
	<anchor name="aboveUC" x="210" y="726"/>
	<anchor name="belowLC" x="210" y="-22"/>
</glyph>
<glyph name="Aringacute" format="1">
	<unicode hex="01FA"/>
	<advance width="600"/>
	<outline>
		<contour>
			<point x="263" y="841" type="line"/>
			<point x="415" y="920" type="line"/>
			<point x="373" y="978" type="line"/>
			<point x="229" y="860" type="line"/>
		</contour>
		<component base="Aring"/>
	</outline>
</glyph>
<glyph name="aringacute" format="1">
	<unicode hex="01FB"/>
	<advance width="600"/>
	<outline>
		<contour>
			<point x="289" y="729" type="line"/>
			<point x="430" y="796" type="line"/>
			<point x="389" y="852" type="line"/>
			<point x="245" y="744" type="line"/>
		</contour>
		<component base="aring"/>
	</outline>
</glyph>
<glyph name="dotlessj" format="1">
	<unicode hex="0237"/>
	<advance width="600"/>
	<outline>
		<contour>
			<point x="194" y="-212" type="curve" smooth="yes"/>
			<point x="357" y="-212"/>
			<point x="405" y="-121"/>
			<point x="405" y="-1" type="curve" smooth="yes"/>
			<point x="405" y="489" type="line"/>
			<point x="87" y="489" type="line"/>
			<point x="87" y="409" type="line"/>
			<point x="306" y="409" type="line"/>
			<point x="306" y="-7" type="line" smooth="yes"/>
			<point x="306" y="-87"/>
			<point x="281" y="-132"/>
			<point x="191" y="-132" type="curve" smooth="yes"/>
			<point x="156" y="-132"/>
			<point x="119" y="-123"/>
			<point x="83" y="-106" type="curve"/>
			<point x="52" y="-179" type="line"/>
			<point x="91" y="-198"/>
			<point x="141" y="-212"/>
		</contour>
		<contour>
			<point name="aboveLC" x="347" y="510" type="move"/>
		</contour>
		<contour>
			<point name="belowLC" x="240" y="-215" type="move"/>
		</contour>
	</outline>
</glyph>
<glyph name="Glottalstop" format="2">
	<unicode hex="0241"/>
	<advance width="494"/>
	<outline>
		<contour>
			<point x="173" y="0" type="line"/>
			<point x="273" y="0" type="line"/>
			<point x="273" y="226" type="line"/>
			<point x="385" y="276"/>
			<point x="462" y="356"/>
			<point x="462" y="470" type="curve" smooth="yes"/>
			<point x="462" y="599"/>
			<point x="355" y="667"/>
			<point x="227" y="667" type="curve" smooth="yes"/>
			<point x="129" y="667"/>
			<point x="52" y="624"/>
			<point x="0" y="573" type="curve"/>
			<point x="53" y="509" type="line"/>
			<point x="95" y="548"/>
			<point x="157" y="580"/>
			<point x="220" y="580" type="curve" smooth="yes"/>
			<point x="305" y="580"/>
			<point x="359" y="535"/>
			<point x="359" y="463" type="curve" smooth="yes"/>
			<point x="359" y="384"/>
			<point x="309" y="323"/>
			<point x="173" y="272" type="curve"/>
		</contour>
	</outline>
	<anchor name="aboveUC" x="244" y="677"/>
	<anchor name="belowLC" x="219" y="-22"/>
</glyph>
<glyph name="alphalatin" format="2">
	<unicode hex="0251"/>
	<advance width="600"/>
	<outline>
		<contour>
			<point x="266" y="-12" type="curve" smooth="yes"/>
			<point x="324" y="-12"/>
			<point x="381" y="21"/>
			<point x="420" y="60" type="curve"/>
			<point x="423" y="60" type="line"/>
			<point x="431" y="0" type="line"/>
			<point x="512" y="0" type="line"/>
			<point x="512" y="489" type="line"/>
			<point x="434" y="489" type="line"/>
			<point x="425" y="436" type="line"/>
			<point x="422" y="436" type="line"/>
			<point x="378" y="479"/>
			<point x="332" y="501"/>
			<point x="277" y="501" type="curve" smooth="yes"/>
			<point x="161" y="501"/>
			<point x="56" y="403"/>
			<point x="56" y="244" type="curve" smooth="yes"/>
			<point x="56" y="82"/>
			<point x="141" y="-12"/>
		</contour>
		<contour>
			<point x="290" y="70" type="curve" smooth="yes"/>
			<point x="207" y="70"/>
			<point x="158" y="133"/>
			<point x="158" y="245" type="curve" smooth="yes"/>
			<point x="158" y="351"/>
			<point x="221" y="418"/>
			<point x="297" y="418" type="curve" smooth="yes"/>
			<point x="336" y="418"/>
			<point x="374" y="405"/>
			<point x="413" y="368" type="curve"/>
			<point x="413" y="136" type="line"/>
			<point x="375" y="92"/>
			<point x="334" y="70"/>
		</contour>
	</outline>
	<anchor name="aboveLC" x="305" y="510"/>
	<anchor name="baseLC" x="466" y="0"/>
	<anchor name="belowLC" x="305" y="-20"/>
</glyph>
<glyph name="oopen" format="1">
	<unicode hex="0254"/>
	<advance width="600"/>
	<outline>
		<contour>
			<point x="256" y="-12" type="curve" smooth="yes"/>
			<point x="406" y="-12"/>
			<point x="524" y="82"/>
			<point x="524" y="244" type="curve" smooth="yes"/>
			<point x="524" y="407"/>
			<point x="403" y="501"/>
			<point x="262" y="501" type="curve" smooth="yes"/>
			<point x="175" y="501"/>
			<point x="110" y="470"/>
			<point x="68" y="431" type="curve"/>
			<point x="117" y="368" type="line"/>
			<point x="158" y="401"/>
			<point x="202" y="419"/>
			<point x="256" y="419" type="curve" smooth="yes"/>
			<point x="351" y="419"/>
			<point x="422" y="349"/>
			<point x="422" y="244" type="curve" smooth="yes"/>
			<point x="422" y="139"/>
			<point x="350" y="69"/>
			<point x="246" y="69" type="curve" smooth="yes"/>
			<point x="188" y="69"/>
			<point x="139" y="95"/>
			<point x="102" y="127" type="curve"/>
			<point x="58" y="63" type="line"/>
			<point x="112" y="15"/>
			<point x="182" y="-12"/>
		</contour>
		<contour>
			<point name="aboveLC" x="290" y="510" type="move"/>
		</contour>
		<contour>
			<point name="baseLC" x="280" y="0" type="move"/>
		</contour>
		<contour>
			<point name="belowLC" x="280" y="-20" type="move"/>
		</contour>
	</outline>
</glyph>
<glyph name="ereversed" format="1">
	<unicode hex="0258"/>
	<advance width="600"/>
	<outline>
		<contour>
			<point x="270" y="-12" type="curve" smooth="yes"/>
			<point x="417" y="-12"/>
			<point x="535" y="83"/>
			<point x="535" y="243" type="curve" smooth="yes"/>
			<point x="535" y="403"/>
			<point x="425" y="501"/>
			<point x="296" y="501" type="curve" smooth="yes"/>
			<point x="153" y="501"/>
			<point x="61" y="406"/>
			<point x="61" y="270" type="curve" smooth="yes"/>
			<point x="61" y="251"/>
			<point x="62" y="228"/>
			<point x="64" y="216" type="curve"/>
			<point x="466" y="216" type="line"/>
			<point x="466" y="289" type="line"/>
			<point x="126" y="289" type="line"/>
			<point x="148" y="265" type="line"/>
			<point x="148" y="370"/>
			<point x="206" y="423"/>
			<point x="289" y="423" type="curve" smooth="yes"/>
			<point x="374" y="423"/>
			<point x="438" y="360"/>
			<point x="438" y="245" type="curve" smooth="yes"/>
			<point x="438" y="125"/>
			<point x="362" y="66"/>
			<point x="258" y="66" type="curve" smooth="yes"/>
			<point x="204" y="66"/>
			<point x="159" y="82"/>
			<point x="115" y="108" type="curve"/>
			<point x="81" y="45" type="line"/>
			<point x="131" y="13"/>
			<point x="195" y="-12"/>
		</contour>
		<contour>
			<point name="aboveLC" x="309" y="509" type="move"/>
		</contour>
		<contour>
			<point name="belowLC" x="295" y="-20" type="move"/>
		</contour>
	</outline>
</glyph>
<glyph name="schwa" format="2">
	<unicode hex="0259"/>
	<advance width="600"/>
	<outline>
		<contour>
			<point x="295" y="-12" type="curve" smooth="yes"/>
			<point x="429" y="-12"/>
			<point x="539" y="83"/>
			<point x="539" y="245" type="curve" smooth="yes"/>
			<point x="539" y="405"/>
			<point x="434" y="501"/>
			<point x="287" y="501" type="curve" smooth="yes"/>
			<point x="211" y="501"/>
			<point x="147" y="476"/>
			<point x="96" y="443" type="curve"/>
			<point x="131" y="380" type="line"/>
			<point x="175" y="407"/>
			<point x="220" y="423"/>
			<point x="275" y="423" type="curve" smooth="yes"/>
			<point x="379" y="423"/>
			<point x="443" y="364"/>
			<point x="443" y="243" type="curve" smooth="yes"/>
			<point x="443" y="126"/>
			<point x="383" y="66"/>
			<point x="293" y="66" type="curve" smooth="yes"/>
			<point x="204" y="66"/>
			<point x="153" y="122"/>
			<point x="153" y="231" type="curve"/>
			<point x="132" y="206" type="line"/>
			<point x="471" y="206" type="line"/>
			<point x="471" y="279" type="line"/>
			<point x="70" y="279" type="line"/>
			<point x="68" y="267"/>
			<point x="65" y="245"/>
			<point x="65" y="225" type="curve" smooth="yes"/>
			<point x="65" y="87"/>
			<point x="147" y="-12"/>
		</contour>
	</outline>
</glyph>
<glyph name="schwahookrhotic" format="1">
	<unicode hex="025A"/>
	<advance width="600"/>
	<outline>
		<contour>
			<point x="213" y="-12" type="curve" smooth="yes"/>
			<point x="336" y="-12"/>
			<point x="417" y="92"/>
			<point x="417" y="237" type="curve" smooth="yes"/>
			<point x="417" y="405"/>
			<point x="332" y="501"/>
			<point x="201" y="501" type="curve" smooth="yes"/>
			<point x="140" y="501"/>
			<point x="90" y="482"/>
			<point x="45" y="451" type="curve"/>
			<point x="79" y="385" type="line"/>
			<point x="113" y="408"/>
			<point x="145" y="424"/>
			<point x="193" y="424" type="curve" smooth="yes"/>
			<point x="268" y="424"/>
			<point x="324" y="369"/>
			<point x="324" y="216" type="curve" smooth="yes"/>
			<point x="324" y="125"/>
			<point x="279" y="65"/>
			<point x="212" y="65" type="curve" smooth="yes"/>
			<point x="156" y="65"/>
			<point x="112" y="97"/>
			<point x="98" y="187" type="curve"/>
			<point x="85" y="158" type="line"/>
			<point x="461" y="323" type="line"/>
			<point x="476" y="250"/>
			<point x="518" y="229"/>
			<point x="558" y="229" type="curve" smooth="yes"/>
			<point x="585" y="229"/>
			<point x="606" y="242"/>
			<point x="622" y="254" type="curve"/>
			<point x="598" y="304" type="line"/>
			<point x="589" y="297"/>
			<point x="578" y="290"/>
			<point x="565" y="290" type="curve" smooth="yes"/>
			<point x="537" y="290"/>
			<point x="522" y="307"/>
			<point x="517" y="382" type="curve"/>
			<point x="468" y="402" type="line"/>
			<point x="17" y="202" type="line"/>
			<point x="26" y="84"/>
			<point x="88" y="-12"/>
		</contour>
		<contour>
			<point name="aboveLC" x="225" y="510" type="move"/>
		</contour>
		<contour>
			<point name="belowLC" x="221" y="-20" type="move"/>
		</contour>
	</outline>
</glyph>
<glyph name="dotlessjstroke" format="1">
	<unicode hex="025F"/>
	<advance width="600"/>
	<outline>
		<contour>
			<point x="118" y="201" type="line"/>
			<point x="563" y="201" type="line"/>
			<point x="563" y="270" type="line"/>
			<point x="308" y="270" type="line"/>
			<point x="118" y="264" type="line"/>
		</contour>
		<component base="dotlessj"/>
		<contour>
			<point name="aboveLC" x="347" y="509" type="move"/>
		</contour>
		<contour>
			<point name="belowLC" x="239" y="-215" type="move"/>
		</contour>
	</outline>
</glyph>
<glyph name="henghook" format="1">
	<unicode hex="0267"/>
	<advance width="600"/>
	<outline>
		<contour>
			<point x="378" y="-184" type="curve" smooth="yes"/>
			<point x="488" y="-184"/>
			<point x="527" y="-112"/>
			<point x="527" y="-7" type="curve"/>
			<point x="527" y="293" type="line" smooth="yes"/>
			<point x="527" y="421"/>
			<point x="475" y="491"/>
			<point x="361" y="491" type="curve" smooth="yes"/>
			<point x="286" y="491"/>
			<point x="230" y="451"/>
			<point x="184" y="401" type="curve"/>
			<point x="180" y="401" type="line"/>
			<point x="187" y="532" type="line"/>
			<point x="190" y="602"/>
			<point x="220" y="642"/>
			<point x="288" y="642" type="curve" smooth="yes"/>
			<point x="309" y="642"/>
			<point x="332" y="636"/>
			<point x="354" y="627" type="curve"/>
			<point x="375" y="701" type="line"/>
			<point x="349" y="711"/>
			<point x="314" y="721"/>
			<point x="277" y="721" type="curve" smooth="yes"/>
			<point x="147" y="721"/>
			<point x="88" y="639"/>
			<point x="88" y="527" type="curve"/>
			<point x="88" y="0" type="line"/>
			<point x="187" y="0" type="line"/>
			<point x="187" y="328" type="line"/>
			<point x="237" y="379"/>
			<point x="274" y="406"/>
			<point x="326" y="406" type="curve" smooth="yes"/>
			<point x="400" y="406"/>
			<point x="428" y="366"/>
			<point x="428" y="280" type="curve" smooth="yes"/>
			<point x="428" y="-8" type="line"/>
			<point x="428" y="-69"/>
			<point x="416" y="-104"/>
			<point x="365" y="-104" type="curve" smooth="yes"/>
			<point x="347" y="-104"/>
			<point x="330" y="-100"/>
			<point x="316" y="-95" type="curve"/>
			<point x="297" y="-170" type="line"/>
			<point x="316" y="-177"/>
			<point x="344" y="-184"/>
		</contour>
		<contour>
			<point name="aboveUC" x="275" y="735" type="move"/>
		</contour>
		<contour>
			<point name="belowLC" x="351" y="-215" type="move"/>
		</contour>
	</outline>
</glyph>
<glyph name="ismall" format="1">
	<unicode hex="026A"/>
	<advance width="600"/>
	<outline>
		<contour>
			<point x="84" y="0" type="line"/>
			<point x="516" y="0" type="line"/>
			<point x="516" y="80" type="line"/>
			<point x="349" y="80" type="line"/>
			<point x="349" y="409" type="line"/>
			<point x="516" y="409" type="line"/>
			<point x="516" y="489" type="line"/>
			<point x="84" y="489" type="line"/>
			<point x="84" y="409" type="line"/>
			<point x="250" y="409" type="line"/>
			<point x="250" y="80" type="line"/>
			<point x="84" y="80" type="line"/>
		</contour>
		<contour>
			<point name="aboveLC" x="300" y="510" type="move"/>
		</contour>
		<contour>
			<point name="belowLC" x="300" y="-20" type="move"/>
		</contour>
	</outline>
</glyph>
<glyph name="lmiddletilde" format="1">
	<unicode hex="026B"/>
	<advance width="600"/>
	<outline>
		<component base="l"/>
		<component base="tildeoverlaycmb" xOffset="-15" yOffset="136"/>
		<contour>
			<point name="aboveUC" x="282" y="735" type="move"/>
		</contour>
		<contour>
			<point name="belowLC" x="381" y="-20" type="move"/>
		</contour>
	</outline>
</glyph>
<glyph name="lretroflex" format="2">
	<unicode hex="026D"/>
	<advance width="600"/>
	<outline>
		<contour>
			<point x="403" y="-184" type="curve" smooth="yes"/>
			<point x="459" y="-184"/>
			<point x="493" y="-171"/>
			<point x="539" y="-156" type="curve"/>
			<point x="515" y="-82" type="line"/>
			<point x="480" y="-96"/>
			<point x="453" y="-102"/>
			<point x="427" y="-102" type="curve" smooth="yes"/>
			<point x="373" y="-102"/>
			<point x="335" y="-75"/>
			<point x="335" y="-7" type="curve" smooth="yes"/>
			<point x="335" y="709" type="line"/>
			<point x="68" y="709" type="line"/>
			<point x="68" y="630" type="line"/>
			<point x="236" y="630" type="line"/>
			<point x="236" y="-1" type="line" smooth="yes"/>
			<point x="236" y="-119"/>
			<point x="294" y="-184"/>
		</contour>
	</outline>
	<anchor name="aboveUC" x="282" y="735"/>
	<anchor name="belowLC" x="381" y="-215"/>
</glyph>
<glyph name="oesmall" format="1">
	<unicode hex="0276"/>
	<advance width="600"/>
	<outline>
		<contour>
			<point x="239" y="-12" type="curve" smooth="yes"/>
			<point x="272" y="-12"/>
			<point x="300" y="-9"/>
			<point x="339" y="0" type="curve"/>
			<point x="589" y="0" type="line"/>
			<point x="589" y="80" type="line"/>
			<point x="397" y="80" type="line"/>
			<point x="397" y="216" type="line"/>
			<point x="543" y="216" type="line"/>
			<point x="543" y="289" type="line"/>
			<point x="397" y="289" type="line"/>
			<point x="397" y="408" type="line"/>
			<point x="579" y="408" type="line"/>
			<point x="579" y="489" type="line"/>
			<point x="339" y="489" type="line"/>
			<point x="298" y="498"/>
			<point x="272" y="501"/>
			<point x="239" y="501" type="curve" smooth="yes"/>
			<point x="127" y="501"/>
			<point x="29" y="413"/>
			<point x="29" y="244" type="curve" smooth="yes"/>
			<point x="29" y="75"/>
			<point x="127" y="-12"/>
		</contour>
		<contour>
			<point x="247" y="68" type="curve" smooth="yes"/>
			<point x="183" y="68"/>
			<point x="131" y="120"/>
			<point x="131" y="244" type="curve" smooth="yes"/>
			<point x="131" y="364"/>
			<point x="183" y="420"/>
			<point x="247" y="420" type="curve" smooth="yes"/>
			<point x="267" y="420"/>
			<point x="289" y="414"/>
			<point x="307" y="409" type="curve"/>
			<point x="307" y="78" type="line"/>
			<point x="288" y="73"/>
			<point x="266" y="68"/>
		</contour>
		<contour>
			<point name="aboveLC" x="355" y="509" type="move"/>
		</contour>
		<contour>
			<point name="belowLC" x="350" y="-20" type="move"/>
		</contour>
	</outline>
</glyph>
<glyph name="dotlessjstrokehook" format="1">
	<unicode hex="0284"/>
	<advance width="600"/>
	<outline>
		<contour>
			<point x="83" y="222" type="line"/>
			<point x="518" y="222" type="line"/>
			<point x="518" y="289" type="line"/>
			<point x="254" y="289" type="line"/>
			<point x="83" y="283" type="line"/>
		</contour>
		<component base="esh"/>
		<contour>
			<point name="aboveUC" x="369" y="735" type="move"/>
		</contour>
		<contour>
			<point name="belowLC" x="249" y="-215" type="move"/>
		</contour>
	</outline>
</glyph>
<glyph name="tturned" format="1">
	<unicode hex="0287"/>
	<advance width="600"/>
	<outline>
		<component base="t" xScale="-1" yScale="-1" xOffset="600" yOffset="489"/>
		<contour>
			<point name="aboveLC" x="239" y="510" type="move"/>
		</contour>
		<contour>
			<point name="belowLC" x="349" y="-88" type="move"/>
		</contour>
	</outline>
</glyph>
<glyph name="lsmall" format="2">
	<unicode hex="029F"/>
	<advance width="600"/>
	<outline>
		<contour>
			<point x="141" y="0" type="line"/>
			<point x="533" y="0" type="line"/>
			<point x="533" y="80" type="line"/>
			<point x="240" y="80" type="line"/>
			<point x="240" y="489" type="line"/>
			<point x="141" y="489" type="line"/>
		</contour>
	</outline>
	<anchor name="aboveLC" x="192" y="510"/>
	<anchor name="belowLC" x="340" y="-20"/>
</glyph>
<glyph name="glottalstopstrokereversed" format="1">
	<unicode hex="02A2"/>
	<advance width="600"/>
	<outline>
		<contour>
			<point x="270" y="0" type="line"/>
			<point x="369" y="0" type="line"/>
			<point x="369" y="248" type="line"/>
			<point x="530" y="248" type="line"/>
			<point x="530" y="314" type="line"/>
			<point x="354" y="314" type="line"/>
			<point x="245" y="377"/>
			<point x="184" y="442"/>
			<point x="184" y="516" type="curve" smooth="yes"/>
			<point x="184" y="592"/>
			<point x="235" y="640"/>
			<point x="322" y="640" type="curve" smooth="yes"/>
			<point x="394" y="640"/>
			<point x="446" y="602"/>
			<point x="482" y="562" type="curve"/>
			<point x="534" y="625" type="line"/>
			<point x="487" y="674"/>
			<point x="418" y="721"/>
			<point x="313" y="721" type="curve" smooth="yes"/>
			<point x="186" y="721"/>
			<point x="85" y="653"/>
			<point x="85" y="518" type="curve" smooth="yes"/>
			<point x="85" y="429"/>
			<point x="149" y="365"/>
			<point x="222" y="314" type="curve"/>
			<point x="152" y="314" type="line"/>
			<point x="76" y="309" type="line"/>
			<point x="76" y="248" type="line"/>
			<point x="270" y="248" type="line"/>
		</contour>
		<contour>
			<point name="aboveUC" x="305" y="735" type="move"/>
		</contour>
		<contour>
			<point name="belowLC" x="320" y="-20" type="move"/>
		</contour>
	</outline>
</glyph>
<glyph name="dezh" format="1">
	<unicode hex="02A4"/>
	<advance width="600"/>
	<outline>
		<contour>
			<point x="153" y="-12" type="curve" smooth="yes"/>
			<point x="197" y="-12"/>
			<point x="231" y="18"/>
			<point x="253" y="54" type="curve"/>
			<point x="256" y="54" type="line"/>
			<point x="264" y="0" type="line"/>
			<point x="331" y="0" type="line"/>
			<point x="331" y="709" type="line"/>
			<point x="245" y="709" type="line" smooth="yes"/>
			<point x="245" y="540" type="line"/>
			<point x="250" y="447" type="line"/>
			<point x="248" y="447" type="line"/>
			<point x="227" y="480"/>
			<point x="197" y="501"/>
			<point x="160" y="501" type="curve" smooth="yes"/>
			<point x="73" y="501"/>
			<point x="-2" y="400"/>
			<point x="-2" y="243" type="curve" smooth="yes"/>
			<point x="-2" y="84"/>
			<point x="63" y="-12"/>
		</contour>
		<contour>
			<point x="174" y="70" type="curve" smooth="yes"/>
			<point x="121" y="70"/>
			<point x="92" y="135"/>
			<point x="92" y="245" type="curve" smooth="yes"/>
			<point x="92" y="350"/>
			<point x="128" y="418"/>
			<point x="179" y="418" type="curve" smooth="yes"/>
			<point x="207" y="418"/>
			<point x="226" y="400"/>
			<point x="245" y="368" type="curve"/>
			<point x="245" y="139" type="line"/>
			<point x="228" y="98"/>
			<point x="205" y="70"/>
		</contour>
		<contour>
			<point x="447" y="-212" type="curve" smooth="yes"/>
			<point x="546" y="-212"/>
			<point x="618" y="-128"/>
			<point x="618" y="7" type="curve" smooth="yes"/>
			<point x="618" y="117"/>
			<point x="562" y="203"/>
			<point x="468" y="204" type="curve" smooth="yes"/>
			<point x="455" y="204"/>
			<point x="443" y="198"/>
			<point x="429" y="194" type="curve"/>
			<point x="445" y="167" type="line"/>
			<point x="597" y="436" type="line"/>
			<point x="597" y="489" type="line"/>
			<point x="304" y="489" type="line"/>
			<point x="304" y="409" type="line"/>
			<point x="498" y="409" type="line"/>
			<point x="361" y="176" type="line"/>
			<point x="397" y="116" type="line"/>
			<point x="414" y="125"/>
			<point x="423" y="129"/>
			<point x="442" y="129" type="curve" smooth="yes"/>
			<point x="494" y="129"/>
			<point x="524" y="86"/>
			<point x="524" y="7" type="curve" smooth="yes"/>
			<point x="524" y="-86"/>
			<point x="488" y="-131"/>
			<point x="438" y="-131" type="curve" smooth="yes"/>
			<point x="400" y="-131"/>
			<point x="374" y="-115"/>
			<point x="349" y="-91" type="curve"/>
			<point x="305" y="-154" type="line"/>
			<point x="341" y="-188"/>
			<point x="382" y="-212"/>
		</contour>
		<contour>
			<point name="aboveUC" x="280" y="730" type="move"/>
		</contour>
		<contour>
			<point name="belowLC" x="330" y="-215" type="move"/>
		</contour>
	</outline>
</glyph>
<glyph name="ts" format="2">
	<unicode hex="02A6"/>
	<advance width="600"/>
	<outline>
		<contour>
			<point x="328" y="-12" type="curve" smooth="yes"/>
			<point x="511" y="-12"/>
			<point x="575" y="44"/>
			<point x="575" y="137" type="curve" smooth="yes"/>
			<point x="575" y="300"/>
			<point x="390" y="296"/>
			<point x="390" y="377" type="curve" smooth="yes"/>
			<point x="390" y="410"/>
			<point x="412" y="429"/>
			<point x="447" y="429" type="curve" smooth="yes"/>
			<point x="479" y="429"/>
			<point x="504" y="418"/>
			<point x="534" y="396" type="curve"/>
			<point x="570" y="452" type="line"/>
			<point x="534" y="483"/>
			<point x="489" y="501"/>
			<point x="439" y="501" type="curve" smooth="yes"/>
			<point x="354" y="501"/>
			<point x="296" y="458"/>
			<point x="296" y="380" type="curve" smooth="yes"/>
			<point x="296" y="243"/>
			<point x="486" y="251"/>
			<point x="486" y="138" type="curve" smooth="yes"/>
			<point x="486" y="93"/>
			<point x="449" y="64"/>
			<point x="336" y="64" type="curve" smooth="yes"/>
			<point x="231" y="64"/>
			<point x="191" y="97"/>
			<point x="191" y="179" type="curve" smooth="yes"/>
			<point x="191" y="409" type="line"/>
			<point x="394" y="409" type="line"/>
			<point x="394" y="489" type="line"/>
			<point x="191" y="489" type="line"/>
			<point x="191" y="644" type="line"/>
			<point x="108" y="644" type="line"/>
			<point x="96" y="489" type="line"/>
			<point x="21" y="484" type="line"/>
			<point x="21" y="409" type="line"/>
			<point x="92" y="409" type="line"/>
			<point x="92" y="179" type="line" smooth="yes"/>
			<point x="92" y="58"/>
			<point x="154" y="-12"/>
		</contour>
	</outline>
	<anchor name="aboveLC" x="330" y="647"/>
	<anchor name="belowLC" x="335" y="-20"/>
</glyph>
<glyph name="ringhalfrightmod" format="2">
	<unicode hex="02BE"/>
	<advance width="600"/>
	<outline>
		<contour>
			<point x="225" y="538" type="line"/>
			<point x="351" y="534"/>
			<point x="413" y="592"/>
			<point x="413" y="683" type="curve" smooth="yes"/>
			<point x="413" y="774"/>
			<point x="351" y="832"/>
			<point x="225" y="828" type="curve"/>
			<point x="225" y="771" type="line"/>
			<point x="299" y="771"/>
			<point x="337" y="738"/>
			<point x="337" y="683" type="curve" smooth="yes"/>
			<point x="337" y="627"/>
			<point x="299" y="595"/>
			<point x="225" y="595" type="curve"/>
		</contour>
	</outline>
</glyph>
<glyph name="ringhalfleftmod" format="1">
	<unicode hex="02BF"/>
	<advance width="600"/>
	<outline>
		<contour>
			<point x="375" y="538" type="curve"/>
			<point x="375" y="595" type="line"/>
			<point x="301" y="595"/>
			<point x="263" y="627"/>
			<point x="263" y="683" type="curve" smooth="yes"/>
			<point x="263" y="738"/>
			<point x="301" y="771"/>
			<point x="375" y="771" type="curve"/>
			<point x="375" y="828" type="line"/>
			<point x="249" y="832"/>
			<point x="187" y="774"/>
			<point x="187" y="683" type="curve" smooth="yes"/>
			<point x="187" y="592"/>
			<point x="249" y="534"/>
		</contour>
	</outline>
</glyph>
<glyph name="glottalstopreversedmod" format="1">
	<unicode hex="02C1"/>
	<advance width="600"/>
	<outline>
		<contour>
			<point x="277" y="442" type="line"/>
			<point x="350" y="442" type="line"/>
			<point x="350" y="559" type="line"/>
			<point x="268" y="603"/>
			<point x="231" y="642"/>
			<point x="231" y="694" type="curve" smooth="yes"/>
			<point x="231" y="740"/>
			<point x="268" y="768"/>
			<point x="321" y="768" type="curve" smooth="yes"/>
			<point x="362" y="768"/>
			<point x="392" y="748"/>
			<point x="416" y="723" type="curve"/>
			<point x="455" y="769" type="line"/>
			<point x="425" y="801"/>
			<point x="380" y="828"/>
			<point x="315" y="828" type="curve" smooth="yes"/>
			<point x="231" y="828"/>
			<point x="156" y="782"/>
			<point x="156" y="696" type="curve" smooth="yes"/>
			<point x="156" y="620"/>
			<point x="210" y="575"/>
			<point x="277" y="530" type="curve"/>
		</contour>
	</outline>
</glyph>
<glyph name="verticallinelowmod" format="1">
	<unicode hex="02CC"/>
	<advance width="600"/>
	<outline>
		<contour>
			<point x="242" y="-257" type="line"/>
			<point x="358" y="-257" type="line"/>
			<point x="332" y="74" type="line"/>
			<point x="268" y="74" type="line"/>
		</contour>
	</outline>
</glyph>
<glyph name="colontriangularhalfmod" format="1">
	<unicode hex="02D1"/>
	<advance width="600"/>
	<outline>
		<contour>
			<point x="294" y="336" type="line"/>
			<point x="306" y="336" type="line"/>
			<point x="408" y="511" type="line"/>
			<point x="192" y="511" type="line"/>
		</contour>
	</outline>
</glyph>
<glyph name="gravecmb" format="1">
	<unicode hex="0300"/>
	<advance width="600"/>
	<outline>
		<contour>
			<point x="317" y="566" type="line"/>
			<point x="368" y="615" type="line"/>
			<point x="223" y="787" type="line"/>
			<point x="154" y="720" type="line"/>
		</contour>
		<contour>
			<point name="_aboveLC" x="300" y="510" type="move"/>
		</contour>
		<contour>
			<point name="aboveLC" x="300" y="656" type="move"/>
		</contour>
	</outline>
</glyph>
<glyph name="acutecmb" format="1">
	<unicode hex="0301"/>
	<advance width="600"/>
	<outline>
		<contour>
			<point x="283" y="566" type="line"/>
			<point x="446" y="720" type="line"/>
			<point x="377" y="787" type="line"/>
			<point x="232" y="615" type="line"/>
		</contour>
		<contour>
			<point name="_aboveLC" x="300" y="510" type="move"/>
		</contour>
		<contour>
			<point name="aboveLC" x="300" y="656" type="move"/>
		</contour>
	</outline>
</glyph>
<glyph name="macroncmb" format="2">
	<unicode hex="0304"/>
	<advance width="600"/>
	<outline>
		<contour>
			<point x="163" y="598" type="line"/>
			<point x="437" y="598" type="line"/>
			<point x="437" y="665" type="line"/>
			<point x="163" y="665" type="line"/>
		</contour>
	</outline>
	<anchor name="_aboveLC" x="300" y="510"/>
	<anchor name="aboveLC" x="300" y="597"/>
</glyph>
<glyph name="dotaccentcmb" format="1">
	<unicode hex="0307"/>
	<advance width="600"/>
	<outline>
		<contour>
			<point x="300" y="584" type="curve" smooth="yes"/>
			<point x="342" y="584"/>
			<point x="374" y="612"/>
			<point x="374" y="655" type="curve" smooth="yes"/>
			<point x="374" y="697"/>
			<point x="342" y="726"/>
			<point x="300" y="726" type="curve" smooth="yes"/>
			<point x="258" y="726"/>
			<point x="226" y="697"/>
			<point x="226" y="655" type="curve" smooth="yes"/>
			<point x="226" y="612"/>
			<point x="258" y="584"/>
		</contour>
		<contour>
			<point name="_aboveLC" x="300" y="510" type="move"/>
		</contour>
		<contour>
			<point name="aboveLC" x="300" y="721" type="move"/>
		</contour>
	</outline>
</glyph>
<glyph name="dieresiscmb" format="1">
	<unicode hex="0308"/>
	<advance width="600"/>
	<outline>
		<contour>
			<point x="199" y="584" type="curve" smooth="yes"/>
			<point x="235" y="584"/>
			<point x="261" y="611"/>
			<point x="261" y="646" type="curve" smooth="yes"/>
			<point x="261" y="681"/>
			<point x="235" y="708"/>
			<point x="199" y="708" type="curve" smooth="yes"/>
			<point x="163" y="708"/>
			<point x="138" y="681"/>
			<point x="138" y="646" type="curve" smooth="yes"/>
			<point x="138" y="611"/>
			<point x="163" y="584"/>
		</contour>
		<contour>
			<point x="401" y="584" type="curve" smooth="yes"/>
			<point x="437" y="584"/>
			<point x="462" y="611"/>
			<point x="462" y="646" type="curve" smooth="yes"/>
			<point x="462" y="681"/>
			<point x="437" y="708"/>
			<point x="401" y="708" type="curve" smooth="yes"/>
			<point x="365" y="708"/>
			<point x="339" y="681"/>
			<point x="339" y="646" type="curve" smooth="yes"/>
			<point x="339" y="611"/>
			<point x="365" y="584"/>
		</contour>
		<contour>
			<point name="_aboveLC" x="300" y="510" type="move"/>
		</contour>
		<contour>
			<point name="aboveLC" x="300" y="599" type="move"/>
		</contour>
	</outline>
</glyph>
<glyph name="ringcmb" format="1">
	<unicode hex="030A"/>
	<advance width="600"/>
	<outline>
		<contour>
			<point x="300" y="569" type="curve" smooth="yes"/>
			<point x="373" y="569"/>
			<point x="415" y="612"/>
			<point x="415" y="667" type="curve" smooth="yes"/>
			<point x="415" y="722"/>
			<point x="373" y="765"/>
			<point x="300" y="765" type="curve" smooth="yes"/>
			<point x="227" y="765"/>
			<point x="185" y="722"/>
			<point x="185" y="667" type="curve" smooth="yes"/>
			<point x="185" y="612"/>
			<point x="227" y="569"/>
		</contour>
		<contour>
			<point x="300" y="610" type="curve" smooth="yes"/>
			<point x="270" y="610"/>
			<point x="247" y="635"/>
			<point x="247" y="667" type="curve" smooth="yes"/>
			<point x="247" y="699"/>
			<point x="270" y="723"/>
			<point x="300" y="723" type="curve" smooth="yes"/>
			<point x="330" y="723"/>
			<point x="353" y="699"/>
			<point x="353" y="667" type="curve" smooth="yes"/>
			<point x="353" y="635"/>
			<point x="330" y="610"/>
		</contour>
		<contour>
			<point name="_aboveLC" x="300" y="510" type="move"/>
		</contour>
		<contour>
			<point name="aboveLC" x="300" y="626" type="move"/>
		</contour>
	</outline>
</glyph>
<glyph name="hungarumlautcmb" format="1">
	<unicode hex="030B"/>
	<advance width="600"/>
	<outline>
		<contour>
			<point x="244" y="567" type="line"/>
			<point x="346" y="734" type="line"/>
			<point x="277" y="766" type="line"/>
			<point x="190" y="592" type="line"/>
		</contour>
		<contour>
			<point x="402" y="567" type="line"/>
			<point x="504" y="734" type="line"/>
			<point x="435" y="766" type="line"/>
			<point x="348" y="592" type="line"/>
		</contour>
		<contour>
			<point name="_aboveLC" x="300" y="510" type="move"/>
		</contour>
	</outline>
</glyph>
<glyph name="commaturnedabovecmb" format="2">
	<unicode hex="0312"/>
	<advance width="600"/>
	<outline>
		<contour>
			<point x="305" y="556" type="curve" smooth="yes"/>
			<point x="333" y="556"/>
			<point x="356" y="574"/>
			<point x="356" y="607" type="curve" smooth="yes"/>
			<point x="356" y="640"/>
			<point x="331" y="657"/>
			<point x="306" y="657" type="curve" smooth="yes"/>
			<point x="293" y="657"/>
			<point x="282" y="649"/>
			<point x="271" y="637" type="curve"/>
			<point x="307" y="594" type="line"/>
			<point x="291" y="647" type="line"/>
			<point x="292" y="679"/>
			<point x="312" y="702"/>
			<point x="357" y="720" type="curve"/>
			<point x="338" y="758" type="line"/>
			<point x="271" y="734"/>
			<point x="241" y="688"/>
			<point x="241" y="635" type="curve" smooth="yes"/>
			<point x="241" y="584"/>
			<point x="266" y="556"/>
		</contour>
	</outline>
	<anchor name="_aboveLC" x="300" y="510"/>
</glyph>
<glyph name="lefttackbelowcmb" format="1">
	<unicode hex="0318"/>
	<advance width="600"/>
	<outline>
		<contour>
			<point x="336" y="-251" type="line"/>
			<point x="397" y="-251" type="line"/>
			<point x="397" y="-57" type="line"/>
			<point x="336" y="-57" type="line"/>
			<point x="336" y="-127" type="line"/>
			<point x="221" y="-127" type="line"/>
			<point x="221" y="-181" type="line"/>
			<point x="336" y="-181" type="line"/>
		</contour>
		<contour>
			<point name="_belowLC" x="300" y="-20" type="move"/>
		</contour>
	</outline>
</glyph>
<glyph name="righttackbelowcmb" format="1">
	<unicode hex="0319"/>
	<advance width="600"/>
	<outline>
		<contour>
			<point x="203" y="-251" type="line"/>
			<point x="264" y="-251" type="line"/>
			<point x="264" y="-181" type="line"/>
			<point x="379" y="-181" type="line"/>
			<point x="379" y="-127" type="line"/>
			<point x="264" y="-127" type="line"/>
			<point x="264" y="-57" type="line"/>
			<point x="203" y="-57" type="line"/>
		</contour>
		<contour>
			<point name="_belowLC" x="300" y="-20" type="move"/>
		</contour>
	</outline>
</glyph>
<glyph name="leftangleabovecmb" format="1">
	<unicode hex="031A"/>
	<advance width="600"/>
	<outline>
		<contour>
			<point x="331" y="573" type="line"/>
			<point x="389" y="573" type="line"/>
			<point x="389" y="717" type="line"/>
			<point x="221" y="717" type="line"/>
			<point x="221" y="663" type="line"/>
			<point x="331" y="663" type="line"/>
		</contour>
		<contour>
			<point name="_aboverightLC" x="300" y="510" type="move"/>
		</contour>
	</outline>
</glyph>
<glyph name="ringhalfleftbelowcmb" format="2">
	<unicode hex="031C"/>
	<advance width="600"/>
	<outline>
		<contour>
			<point x="364" y="-257" type="curve"/>
			<point x="364" y="-217" type="line"/>
			<point x="314" y="-217"/>
			<point x="289" y="-194"/>
			<point x="289" y="-160" type="curve" smooth="yes"/>
			<point x="289" y="-126"/>
			<point x="314" y="-104"/>
			<point x="364" y="-104" type="curve"/>
			<point x="364" y="-63" type="line"/>
			<point x="265" y="-60"/>
			<point x="219" y="-99"/>
			<point x="219" y="-160" type="curve" smooth="yes"/>
			<point x="219" y="-222"/>
			<point x="265" y="-260"/>
		</contour>
	</outline>
	<anchor name="_belowLC" x="300" y="-20"/>
</glyph>
<glyph name="downtackbelowcmb" format="2">
	<unicode hex="031E"/>
	<advance width="600"/>
	<outline>
		<contour>
			<point x="269" y="-251" type="line"/>
			<point x="331" y="-251" type="line"/>
			<point x="331" y="-146" type="line"/>
			<point x="419" y="-146" type="line"/>
			<point x="419" y="-92" type="line"/>
			<point x="181" y="-92" type="line"/>
			<point x="181" y="-146" type="line"/>
			<point x="269" y="-146" type="line"/>
		</contour>
	</outline>
	<anchor name="_belowLC" x="300" y="-20"/>
</glyph>
<glyph name="verticallinebelowcmb" format="2">
	<unicode hex="0329"/>
	<advance width="600"/>
	<outline>
		<contour>
			<point x="259" y="-267" type="line"/>
			<point x="341" y="-267" type="line"/>
			<point x="335" y="-69" type="line"/>
			<point x="265" y="-69" type="line"/>
		</contour>
	</outline>
	<anchor name="_belowLC" x="300" y="-20"/>
</glyph>
<glyph name="bridgebelowcmb" format="2">
	<unicode hex="032A"/>
	<advance width="600"/>
	<outline>
		<contour>
			<point x="175" y="-224" type="line"/>
			<point x="230" y="-224" type="line"/>
			<point x="230" y="-134" type="line"/>
			<point x="370" y="-134" type="line"/>
			<point x="370" y="-224" type="line"/>
			<point x="425" y="-224" type="line"/>
			<point x="425" y="-81" type="line"/>
			<point x="175" y="-81" type="line"/>
		</contour>
	</outline>
	<anchor name="_belowLC" x="300" y="-20"/>
</glyph>
<glyph name="tildeoverlaycmb" format="1">
	<unicode hex="0334"/>
	<advance width="600"/>
	<outline>
		<contour>
			<point x="400" y="171" type="curve" smooth="yes"/>
			<point x="465" y="171"/>
			<point x="495" y="225"/>
			<point x="499" y="301" type="curve"/>
			<point x="434" y="313" type="line"/>
			<point x="431" y="270"/>
			<point x="418" y="242"/>
			<point x="391" y="242" type="curve" smooth="yes"/>
			<point x="333" y="242"/>
			<point x="292" y="321"/>
			<point x="201" y="321" type="curve" smooth="yes"/>
			<point x="135" y="321"/>
			<point x="105" y="268"/>
			<point x="101" y="191" type="curve"/>
			<point x="166" y="179" type="line"/>
			<point x="169" y="222"/>
			<point x="182" y="250"/>
			<point x="209" y="250" type="curve" smooth="yes"/>
			<point x="267" y="250"/>
			<point x="309" y="171"/>
		</contour>
		<contour>
			<point name="_center" x="300" y="245" type="move"/>
		</contour>
	</outline>
</glyph>
<glyph name="bridgeinvertedbelowcmb" format="2">
	<unicode hex="033A"/>
	<advance width="600"/>
	<outline>
		<contour>
			<point x="175" y="-222" type="line"/>
			<point x="425" y="-222" type="line"/>
			<point x="425" y="-79" type="line"/>
			<point x="370" y="-79" type="line"/>
			<point x="370" y="-169" type="line"/>
			<point x="230" y="-169" type="line"/>
			<point x="230" y="-79" type="line"/>
			<point x="175" y="-79" type="line"/>
		</contour>
	</outline>
	<anchor name="_belowLC" x="300" y="-20"/>
</glyph>
<glyph name="xabovecmb" format="1">
	<unicode hex="033D"/>
	<advance width="600"/>
	<outline>
		<contour>
			<point x="237" y="565" type="line"/>
			<point x="300" y="622" type="line"/>
			<point x="363" y="565" type="line"/>
			<point x="399" y="599" type="line"/>
			<point x="337" y="656" type="line"/>
			<point x="399" y="713" type="line"/>
			<point x="363" y="746" type="line"/>
			<point x="300" y="689" type="line"/>
			<point x="237" y="746" type="line"/>
			<point x="201" y="713" type="line"/>
			<point x="263" y="656" type="line"/>
			<point x="201" y="599" type="line"/>
		</contour>
		<contour>
			<point name="_aboveLC" x="300" y="510" type="move"/>
		</contour>
	</outline>
</glyph>
<glyph name="tonoscmb" format="2">
	<unicode hex="0341"/>
	<advance width="600"/>
	<outline>
		<contour>
			<point x="327" y="559" type="line"/>
			<point x="404" y="790" type="line"/>
			<point x="304" y="807" type="line"/>
			<point x="260" y="570" type="line"/>
		</contour>
	</outline>
	<anchor name="_aboveLC" x="300" y="510"/>
</glyph>
<glyph name="macrondoublebelowcmb" format="2">
	<unicode hex="035F"/>
	<advance width="600"/>
	<outline>
		<contour>
			<point x="-197" y="-175" type="line"/>
			<point x="797" y="-175" type="line"/>
			<point x="797" y="-109" type="line"/>
			<point x="-197" y="-109" type="line"/>
		</contour>
	</outline>
</glyph>
<glyph name="numeralsign" format="1">
	<unicode hex="0374"/>
	<advance width="600"/>
	<outline>
		<contour>
			<point x="251" y="433" type="line"/>
			<point x="315" y="433" type="line"/>
			<point x="353" y="588" type="line"/>
			<point x="370" y="689" type="line"/>
			<point x="272" y="689" type="line"/>
		</contour>
	</outline>
</glyph>
<glyph name="lownumeralsign" format="1">
	<unicode hex="0375"/>
	<advance width="600"/>
	<outline>
		<contour>
			<point x="230" y="0" type="line"/>
			<point x="328" y="0" type="line"/>
			<point x="349" y="256" type="line"/>
			<point x="285" y="256" type="line"/>
			<point x="247" y="101" type="line"/>
		</contour>
	</outline>
</glyph>
<glyph name="Alphatonos" format="2">
	<unicode hex="0386"/>
	<advance width="600"/>
	<outline>
		<contour>
			<point x="55" y="0" type="line"/>
			<point x="157" y="0" type="line"/>
			<point x="256" y="357" type="line" smooth="yes"/>
			<point x="276" y="428"/>
			<point x="291" y="488"/>
			<point x="311" y="566" type="curve"/>
			<point x="315" y="566" type="line"/>
			<point x="334" y="488"/>
			<point x="351" y="428"/>
			<point x="371" y="357" type="curve" smooth="yes"/>
			<point x="468" y="0" type="line"/>
			<point x="574" y="0" type="line"/>
			<point x="372" y="655" type="line"/>
			<point x="257" y="655" type="line"/>
		</contour>
		<contour>
			<point x="176" y="188" type="line"/>
			<point x="451" y="188" type="line"/>
			<point x="451" y="267" type="line"/>
			<point x="176" y="267" type="line"/>
		</contour>
		<component base="tonos.cap" xOffset="-205"/>
	</outline>
</glyph>
<glyph name="Epsilontonos" format="1">
	<unicode hex="0388"/>
	<advance width="600"/>
	<outline>
		<contour>
			<point x="203" y="0" type="line"/>
			<point x="531" y="0" type="line"/>
			<point x="531" y="84" type="line"/>
			<point x="293" y="84" type="line"/>
			<point x="293" y="300" type="line"/>
			<point x="473" y="300" type="line"/>
			<point x="473" y="384" type="line"/>
			<point x="293" y="384" type="line"/>
			<point x="293" y="571" type="line"/>
			<point x="521" y="571" type="line"/>
			<point x="521" y="655" type="line"/>
			<point x="203" y="655" type="line"/>
		</contour>
		<component base="tonos.cap" xOffset="-215"/>
	</outline>
</glyph>
<glyph name="Etatonos" format="1">
	<unicode hex="0389"/>
	<advance width="600"/>
	<outline>
		<contour>
			<point x="195" y="0" type="line"/>
			<point x="285" y="0" type="line"/>
			<point x="285" y="299" type="line"/>
			<point x="444" y="299" type="line"/>
			<point x="444" y="0" type="line"/>
			<point x="534" y="0" type="line"/>
			<point x="534" y="655" type="line"/>
			<point x="444" y="655" type="line"/>
			<point x="444" y="386" type="line"/>
			<point x="285" y="386" type="line"/>
			<point x="285" y="655" type="line"/>
			<point x="195" y="655" type="line"/>
		</contour>
		<component base="tonos.cap" xOffset="-215"/>
	</outline>
</glyph>
<glyph name="Iotatonos" format="1">
	<unicode hex="038A"/>
	<advance width="600"/>
	<outline>
		<contour>
			<point x="189" y="0" type="line"/>
			<point x="510" y="0" type="line"/>
			<point x="510" y="84" type="line"/>
			<point x="399" y="84" type="line"/>
			<point x="399" y="571" type="line"/>
			<point x="510" y="571" type="line"/>
			<point x="510" y="655" type="line"/>
			<point x="189" y="655" type="line"/>
			<point x="189" y="571" type="line"/>
			<point x="299" y="571" type="line"/>
			<point x="299" y="84" type="line"/>
			<point x="189" y="84" type="line"/>
		</contour>
		<component base="tonos.cap" xOffset="-215"/>
	</outline>
</glyph>
<glyph name="Upsilontonos" format="1">
	<unicode hex="038E"/>
	<advance width="600"/>
	<outline>
		<contour>
			<point x="354" y="0" type="line"/>
			<point x="445" y="0" type="line"/>
			<point x="445" y="230" type="line"/>
			<point x="607" y="655" type="line"/>
			<point x="519" y="655" type="line"/>
			<point x="453" y="470" type="line" smooth="yes"/>
			<point x="436" y="418"/>
			<point x="419" y="369"/>
			<point x="403" y="318" type="curve"/>
			<point x="399" y="318" type="line"/>
			<point x="382" y="369"/>
			<point x="366" y="415"/>
			<point x="348" y="470" type="curve" smooth="yes"/>
			<point x="283" y="655" type="line"/>
			<point x="192" y="655" type="line"/>
			<point x="354" y="230" type="line"/>
		</contour>
		<component base="tonos.cap" xOffset="-200"/>
	</outline>
</glyph>
<glyph name="Omegatonos" format="1">
	<unicode hex="038F"/>
	<advance width="600"/>
	<outline>
		<contour>
			<point x="135" y="0" type="line"/>
			<point x="312" y="0" type="line"/>
			<point x="312" y="73" type="line"/>
			<point x="265" y="153"/>
			<point x="241" y="230"/>
			<point x="241" y="350" type="curve" smooth="yes"/>
			<point x="241" y="492"/>
			<point x="281" y="580"/>
			<point x="349" y="580" type="curve" smooth="yes"/>
			<point x="417" y="580"/>
			<point x="456" y="492"/>
			<point x="456" y="350" type="curve" smooth="yes"/>
			<point x="456" y="230"/>
			<point x="433" y="153"/>
			<point x="385" y="73" type="curve"/>
			<point x="385" y="0" type="line"/>
			<point x="563" y="0" type="line"/>
			<point x="563" y="81" type="line"/>
			<point x="468" y="81" type="line"/>
			<point x="468" y="85" type="line"/>
			<point x="520" y="161"/>
			<point x="552" y="246"/>
			<point x="552" y="368" type="curve" smooth="yes"/>
			<point x="552" y="542"/>
			<point x="473" y="667"/>
			<point x="349" y="667" type="curve" smooth="yes"/>
			<point x="225" y="667"/>
			<point x="146" y="542"/>
			<point x="146" y="368" type="curve" smooth="yes"/>
			<point x="146" y="246"/>
			<point x="178" y="161"/>
			<point x="229" y="85" type="curve"/>
			<point x="229" y="81" type="line"/>
			<point x="135" y="81" type="line"/>
		</contour>
		<component base="tonos.cap" xOffset="-215"/>
	</outline>
</glyph>
<glyph name="Epsilon" format="1">
	<unicode hex="0395"/>
	<advance width="600"/>
	<outline>
		<component base="E"/>
		<contour>
			<point name="aboveUC" x="329" y="675" type="move"/>
		</contour>
	</outline>
</glyph>
<glyph name="Xi" format="1">
	<unicode hex="039E"/>
	<advance width="600"/>
	<outline>
		<contour>
			<point x="69" y="0" type="line"/>
			<point x="531" y="0" type="line"/>
			<point x="531" y="84" type="line"/>
			<point x="69" y="84" type="line"/>
		</contour>
		<contour>
			<point x="142" y="300" type="line"/>
			<point x="458" y="300" type="line"/>
			<point x="458" y="384" type="line"/>
			<point x="142" y="384" type="line"/>
		</contour>
		<contour>
			<point x="79" y="571" type="line"/>
			<point x="521" y="571" type="line"/>
			<point x="521" y="655" type="line"/>
			<point x="79" y="655" type="line"/>
		</contour>
	</outline>
</glyph>
<glyph name="Omega" format="1">
	<unicode hex="03A9"/>
	<advance width="600"/>
	<outline>
		<contour>
			<point x="36" y="0" type="line"/>
			<point x="251" y="0" type="line"/>
			<point x="251" y="73" type="line"/>
			<point x="190" y="139"/>
			<point x="148" y="217"/>
			<point x="148" y="345" type="curve" smooth="yes"/>
			<point x="148" y="480"/>
			<point x="202" y="580"/>
			<point x="300" y="580" type="curve" smooth="yes"/>
			<point x="398" y="580"/>
			<point x="452" y="480"/>
			<point x="452" y="345" type="curve" smooth="yes"/>
			<point x="452" y="217"/>
			<point x="410" y="139"/>
			<point x="349" y="73" type="curve"/>
			<point x="349" y="0" type="line"/>
			<point x="564" y="0" type="line"/>
			<point x="564" y="81" type="line"/>
			<point x="448" y="81" type="line"/>
			<point x="448" y="85" type="line"/>
			<point x="500" y="137"/>
			<point x="555" y="227"/>
			<point x="555" y="353" type="curve" smooth="yes"/>
			<point x="555" y="536"/>
			<point x="456" y="667"/>
			<point x="300" y="667" type="curve" smooth="yes"/>
			<point x="144" y="667"/>
			<point x="45" y="536"/>
			<point x="45" y="353" type="curve" smooth="yes"/>
			<point x="45" y="227"/>
			<point x="100" y="137"/>
			<point x="152" y="85" type="curve"/>
			<point x="152" y="81" type="line"/>
			<point x="36" y="81" type="line"/>
		</contour>
		<contour>
			<point name="aboveUC" x="300" y="675" type="move"/>
		</contour>
		<contour>
			<point name="belowLC" x="300" y="-20" type="move"/>
		</contour>
	</outline>
</glyph>
<glyph name="beta" format="1">
	<unicode hex="03B2"/>
	<advance width="600"/>
	<outline>
		<contour>
			<point x="88" y="-178" type="line"/>
			<point x="188" y="-178" type="line"/>
			<point x="186" y="-98"/>
			<point x="184" y="-21"/>
			<point x="181" y="60" type="curve"/>
			<point x="230" y="6"/>
			<point x="292" y="-12"/>
			<point x="351" y="-12" type="curve" smooth="yes"/>
			<point x="451" y="-12"/>
			<point x="548" y="60"/>
			<point x="548" y="195" type="curve" smooth="yes"/>
			<point x="548" y="294"/>
			<point x="483" y="365"/>
			<point x="390" y="380" type="curve"/>
			<point x="390" y="384" type="line"/>
			<point x="456" y="422"/>
			<point x="490" y="475"/>
			<point x="490" y="546" type="curve" smooth="yes"/>
			<point x="490" y="665"/>
			<point x="395" y="721"/>
			<point x="294" y="721" type="curve" smooth="yes"/>
			<point x="154" y="721"/>
			<point x="88" y="622"/>
			<point x="88" y="490" type="curve" smooth="yes"/>
		</contour>
		<contour>
			<point x="325" y="70" type="curve" smooth="yes"/>
			<point x="278" y="70"/>
			<point x="226" y="85"/>
			<point x="181" y="142" type="curve"/>
			<point x="181" y="253"/>
			<point x="182" y="363"/>
			<point x="184" y="474" type="curve" smooth="yes"/>
			<point x="185" y="585"/>
			<point x="226" y="642"/>
			<point x="295" y="642" type="curve" smooth="yes"/>
			<point x="348" y="642"/>
			<point x="394" y="608"/>
			<point x="394" y="538" type="curve" smooth="yes"/>
			<point x="394" y="476"/>
			<point x="358" y="413"/>
			<point x="262" y="395" type="curve"/>
			<point x="275" y="320" type="line"/>
			<point x="291" y="324"/>
			<point x="307" y="326"/>
			<point x="323" y="326" type="curve" smooth="yes"/>
			<point x="407" y="326"/>
			<point x="449" y="271"/>
			<point x="449" y="201" type="curve" smooth="yes"/>
			<point x="449" y="118"/>
			<point x="393" y="70"/>
		</contour>
	</outline>
</glyph>
<glyph name="epsilon" format="1">
	<unicode hex="03B5"/>
	<advance width="600"/>
	<outline>
		<contour>
			<point x="323" y="-12" type="curve" smooth="yes"/>
			<point x="403" y="-12"/>
			<point x="465" y="2"/>
			<point x="537" y="56" type="curve"/>
			<point x="496" y="121" type="line"/>
			<point x="440" y="77"/>
			<point x="388" y="66"/>
			<point x="333" y="66" type="curve" smooth="yes"/>
			<point x="231" y="66"/>
			<point x="184" y="96"/>
			<point x="184" y="145" type="curve" smooth="yes"/>
			<point x="184" y="194"/>
			<point x="229" y="217"/>
			<point x="322" y="217" type="curve" smooth="yes"/>
			<point x="347" y="217"/>
			<point x="372" y="216"/>
			<point x="400" y="214" type="curve"/>
			<point x="400" y="292" type="line"/>
			<point x="377" y="290"/>
			<point x="357" y="289"/>
			<point x="337" y="289" type="curve" smooth="yes"/>
			<point x="248" y="289"/>
			<point x="207" y="314"/>
			<point x="207" y="354" type="curve" smooth="yes"/>
			<point x="207" y="399"/>
			<point x="251" y="423"/>
			<point x="331" y="423" type="curve" smooth="yes"/>
			<point x="386" y="423"/>
			<point x="437" y="408"/>
			<point x="484" y="374" type="curve"/>
			<point x="522" y="439" type="line"/>
			<point x="467" y="479"/>
			<point x="398" y="501"/>
			<point x="327" y="501" type="curve" smooth="yes"/>
			<point x="200" y="501"/>
			<point x="109" y="458"/>
			<point x="109" y="367" type="curve" smooth="yes"/>
			<point x="109" y="323"/>
			<point x="139" y="281"/>
			<point x="197" y="260" type="curve"/>
			<point x="197" y="256" type="line"/>
			<point x="134" y="239"/>
			<point x="86" y="205"/>
			<point x="86" y="136" type="curve" smooth="yes"/>
			<point x="86" y="42"/>
			<point x="177" y="-12"/>
		</contour>
		<contour>
			<point name="aboveLC" x="335" y="509" type="move"/>
		</contour>
	</outline>
</glyph>
<glyph name="iota" format="2">
	<unicode hex="03B9"/>
	<advance width="600"/>
	<outline>
		<contour>
			<point x="398" y="-12" type="curve" smooth="yes"/>
			<point x="455" y="-12"/>
			<point x="495" y="0"/>
			<point x="529" y="15" type="curve"/>
			<point x="505" y="89" type="line"/>
			<point x="476" y="75"/>
			<point x="445" y="69"/>
			<point x="422" y="69" type="curve" smooth="yes"/>
			<point x="360" y="69"/>
			<point x="329" y="97"/>
			<point x="329" y="165" type="curve" smooth="yes"/>
			<point x="329" y="255"/>
			<point x="334" y="381"/>
			<point x="336" y="489" type="curve"/>
			<point x="76" y="489" type="line"/>
			<point x="76" y="409" type="line"/>
			<point x="236" y="409" type="line"/>
			<point x="236" y="171" type="line" smooth="yes"/>
			<point x="236" y="53"/>
			<point x="281" y="-12"/>
		</contour>
	</outline>
	<anchor name="aboveLC" x="281" y="510"/>
</glyph>
<glyph name="kappa" format="1">
	<unicode hex="03BA"/>
	<advance width="600"/>
	<outline>
		<contour>
			<point x="103" y="0" type="line"/>
			<point x="196" y="0" type="line"/>
			<point x="196" y="26" type="line" smooth="yes"/>
			<point x="196" y="92"/>
			<point x="210" y="140"/>
			<point x="235" y="173" type="curve" smooth="yes"/>
			<point x="339" y="308"/>
			<point x="441" y="381"/>
			<point x="541" y="408" type="curve"/>
			<point x="531" y="501" type="line"/>
			<point x="408" y="473"/>
			<point x="283" y="369"/>
			<point x="204" y="236" type="curve"/>
			<point x="200" y="236" type="line"/>
			<point x="200" y="373" type="line" smooth="yes"/>
			<point x="200" y="417"/>
			<point x="198" y="461"/>
			<point x="191" y="489" type="curve"/>
			<point x="93" y="489" type="line"/>
			<point x="102" y="443"/>
			<point x="103" y="389"/>
			<point x="103" y="350" type="curve" smooth="yes"/>
		</contour>
		<contour>
			<point x="467" y="-9" type="curve"/>
			<point x="579" y="0" type="line"/>
			<point x="499" y="88"/>
			<point x="401" y="214"/>
			<point x="349" y="318" type="curve"/>
			<point x="284" y="254" type="line"/>
			<point x="334" y="155"/>
			<point x="411" y="58"/>
		</contour>
	</outline>
</glyph>
<glyph name="lambda" format="2">
	<unicode hex="03BB"/>
	<advance width="600"/>
	<outline>
		<contour>
			<point x="157" y="-9" type="line"/>
			<point x="315" y="385" type="line"/>
			<point x="319" y="385" type="line"/>
			<point x="452" y="0" type="line"/>
			<point x="559" y="0" type="line"/>
			<point x="365" y="515" type="line" smooth="yes"/>
			<point x="317" y="658"/>
			<point x="265" y="721"/>
			<point x="159" y="721" type="curve" smooth="yes"/>
			<point x="112" y="721"/>
			<point x="86" y="713"/>
			<point x="60" y="702" type="curve"/>
			<point x="84" y="621" type="line"/>
			<point x="102" y="630"/>
			<point x="120" y="637"/>
			<point x="148" y="637" type="curve" smooth="yes"/>
			<point x="204" y="637"/>
			<point x="238" y="601"/>
			<point x="265" y="518" type="curve"/>
			<point x="272" y="497" type="line"/>
			<point x="50" y="0" type="line"/>
		</contour>
	</outline>
</glyph>
<glyph name="omicron" format="1">
	<unicode hex="03BF"/>
	<advance width="600"/>
	<outline>
		<contour>
			<point x="300" y="-12" type="curve" smooth="yes"/>
			<point x="428" y="-12"/>
			<point x="540" y="82"/>
			<point x="540" y="244" type="curve" smooth="yes"/>
			<point x="540" y="407"/>
			<point x="428" y="501"/>
			<point x="300" y="501" type="curve" smooth="yes"/>
			<point x="172" y="501"/>
			<point x="60" y="407"/>
			<point x="60" y="244" type="curve" smooth="yes"/>
			<point x="60" y="82"/>
			<point x="172" y="-12"/>
		</contour>
		<contour>
			<point x="300" y="69" type="curve" smooth="yes"/>
			<point x="214" y="69"/>
			<point x="162" y="139"/>
			<point x="162" y="244" type="curve" smooth="yes"/>
			<point x="162" y="349"/>
			<point x="214" y="419"/>
			<point x="300" y="419" type="curve" smooth="yes"/>
			<point x="386" y="419"/>
			<point x="438" y="349"/>
			<point x="438" y="244" type="curve" smooth="yes"/>
			<point x="438" y="139"/>
			<point x="386" y="69"/>
		</contour>
		<contour>
			<point name="aboveLC" x="300" y="510" type="move"/>
		</contour>
	</outline>
</glyph>
<glyph name="chi" format="1">
	<unicode hex="03C7"/>
	<advance width="600"/>
	<outline>
		<contour>
			<point x="153" y="-190" type="line"/>
			<point x="302" y="83" type="line"/>
			<point x="306" y="83" type="line"/>
			<point x="468" y="-190" type="line"/>
			<point x="565" y="-166" type="line"/>
			<point x="353" y="165" type="line"/>
			<point x="535" y="489" type="line"/>
			<point x="431" y="489" type="line"/>
			<point x="306" y="251" type="line"/>
			<point x="302" y="251" type="line"/>
			<point x="153" y="501" type="line"/>
			<point x="55" y="477" type="line"/>
			<point x="254" y="164" type="line"/>
			<point x="52" y="-178" type="line"/>
		</contour>
	</outline>
</glyph>
<glyph name="theta.a" format="1">
	<unicode hex="03D1"/>
	<advance width="600"/>
	<outline>
		<contour>
			<point x="298" y="-12" type="curve" smooth="yes"/>
			<point x="443" y="-12"/>
			<point x="532" y="94"/>
			<point x="532" y="360" type="curve" smooth="yes"/>
			<point x="532" y="591"/>
			<point x="444" y="721"/>
			<point x="276" y="721" type="curve" smooth="yes"/>
			<point x="163" y="721"/>
			<point x="73" y="646"/>
			<point x="73" y="536" type="curve" smooth="yes"/>
			<point x="73" y="437"/>
			<point x="154" y="292"/>
			<point x="451" y="338" type="curve"/>
			<point x="475" y="405" type="line"/>
			<point x="225" y="358"/>
			<point x="166" y="451"/>
			<point x="166" y="533" type="curve" smooth="yes"/>
			<point x="166" y="597"/>
			<point x="213" y="639"/>
			<point x="280" y="640" type="curve" smooth="yes"/>
			<point x="374" y="641"/>
			<point x="435" y="564"/>
			<point x="435" y="360" type="curve" smooth="yes"/>
			<point x="435" y="128"/>
			<point x="380" y="69"/>
			<point x="302" y="69" type="curve" smooth="yes"/>
			<point x="237" y="69"/>
			<point x="189" y="104"/>
			<point x="189" y="194" type="curve" smooth="yes"/>
			<point x="189" y="235"/>
			<point x="188" y="271"/>
			<point x="181" y="289" type="curve"/>
			<point x="88" y="289" type="line"/>
			<point x="95" y="258"/>
			<point x="96" y="231"/>
			<point x="96" y="181" type="curve" smooth="yes"/>
			<point x="96" y="60"/>
			<point x="166" y="-12"/>
		</contour>
	</outline>
</glyph>
<glyph name="phi.a" format="1">
	<unicode hex="03D5"/>
	<advance width="600"/>
	<outline>
		<contour>
			<point x="254" y="-178" type="line"/>
			<point x="352" y="-178" type="line"/>
			<point x="347" y="-23"/>
			<point x="345" y="138"/>
			<point x="345" y="294" type="curve" smooth="yes"/>
			<point x="345" y="384"/>
			<point x="368" y="418"/>
			<point x="404" y="418" type="curve" smooth="yes"/>
			<point x="449" y="418"/>
			<point x="473" y="357"/>
			<point x="473" y="251" type="curve" smooth="yes"/>
			<point x="473" y="132"/>
			<point x="414" y="67"/>
			<point x="331" y="66" type="curve"/>
			<point x="332" y="-9" type="line"/>
			<point x="454" y="-9"/>
			<point x="567" y="87"/>
			<point x="567" y="257" type="curve" smooth="yes"/>
			<point x="567" y="409"/>
			<point x="508" y="501"/>
			<point x="408" y="501" type="curve" smooth="yes"/>
			<point x="319" y="501"/>
			<point x="254" y="438"/>
			<point x="254" y="286" type="curve" smooth="yes"/>
		</contour>
		<contour>
			<point x="270" y="-9" type="curve"/>
			<point x="274" y="66" type="line"/>
			<point x="186" y="66"/>
			<point x="127" y="128"/>
			<point x="127" y="237" type="curve" smooth="yes"/>
			<point x="127" y="322"/>
			<point x="157" y="381"/>
			<point x="212" y="448" type="curve"/>
			<point x="140" y="506" type="line"/>
			<point x="79" y="434"/>
			<point x="33" y="344"/>
			<point x="33" y="247" type="curve" smooth="yes"/>
			<point x="33" y="76"/>
			<point x="147" y="-9"/>
		</contour>
	</outline>
</glyph>
<glyph name="kai" format="1">
	<unicode hex="03D7"/>
	<advance width="600"/>
	<outline>
		<contour>
			<point x="445" y="-187" type="line"/>
			<point x="482" y="-143"/>
			<point x="535" y="-70"/>
			<point x="579" y="0" type="curve"/>
			<point x="474" y="4" type="line"/>
			<point x="436" y="-55"/>
			<point x="384" y="-121"/>
			<point x="329" y="-178" type="curve"/>
		</contour>
		<component base="kappa"/>
	</outline>
</glyph>
<glyph name="koppa" format="1">
	<unicode hex="03D9"/>
	<advance width="600"/>
	<outline>
		<contour>
			<point x="300" y="-12" type="curve" smooth="yes"/>
			<point x="431" y="-12"/>
			<point x="542" y="81"/>
			<point x="542" y="244" type="curve" smooth="yes"/>
			<point x="542" y="408"/>
			<point x="431" y="501"/>
			<point x="300" y="501" type="curve" smooth="yes"/>
			<point x="169" y="501"/>
			<point x="58" y="408"/>
			<point x="58" y="244" type="curve" smooth="yes"/>
			<point x="58" y="81"/>
			<point x="169" y="-12"/>
		</contour>
		<contour>
			<point x="300" y="66" type="curve" smooth="yes"/>
			<point x="211" y="66"/>
			<point x="160" y="135"/>
			<point x="160" y="244" type="curve" smooth="yes"/>
			<point x="160" y="350"/>
			<point x="211" y="419"/>
			<point x="300" y="419" type="curve" smooth="yes"/>
			<point x="389" y="419"/>
			<point x="440" y="350"/>
			<point x="440" y="244" type="curve" smooth="yes"/>
			<point x="440" y="135"/>
			<point x="389" y="66"/>
		</contour>
		<contour>
			<point x="255" y="-178" type="line"/>
			<point x="355" y="-178" type="line"/>
			<point x="353" y="-99"/>
			<point x="351" y="-52"/>
			<point x="348" y="27" type="curve"/>
			<point x="255" y="30" type="line"/>
		</contour>
	</outline>
</glyph>
<glyph name="Dje" format="1">
	<unicode hex="0402"/>
	<advance width="600"/>
	<outline>
		<contour>
			<point x="412" y="-12" type="curve" smooth="yes"/>
			<point x="496" y="-12"/>
			<point x="574" y="36"/>
			<point x="574" y="192" type="curve" smooth="yes"/>
			<point x="574" y="342"/>
			<point x="483" y="403"/>
			<point x="365" y="403" type="curve" smooth="yes"/>
			<point x="333" y="403"/>
			<point x="297" y="398"/>
			<point x="270" y="394" type="curve"/>
			<point x="270" y="571" type="line"/>
			<point x="467" y="571" type="line"/>
			<point x="467" y="655" type="line"/>
			<point x="9" y="655" type="line"/>
			<point x="9" y="571" type="line"/>
			<point x="169" y="571" type="line"/>
			<point x="169" y="0" type="line"/>
			<point x="270" y="0" type="line"/>
			<point x="270" y="312" type="line"/>
			<point x="291" y="317"/>
			<point x="322" y="321"/>
			<point x="350" y="321" type="curve" smooth="yes"/>
			<point x="430" y="321"/>
			<point x="479" y="281"/>
			<point x="479" y="191" type="curve" smooth="yes"/>
			<point x="479" y="94"/>
			<point x="434" y="70"/>
			<point x="398" y="70" type="curve" smooth="yes"/>
			<point x="387" y="70"/>
			<point x="372" y="73"/>
			<point x="364" y="77" type="curve"/>
			<point x="347" y="-2" type="line"/>
			<point x="363" y="-8"/>
			<point x="388" y="-12"/>
		</contour>
	</outline>
</glyph>
<glyph name="Nje" format="1">
	<unicode hex="040A"/>
	<advance width="600"/>
	<outline>
		<contour>
			<point x="37" y="0" type="line"/>
			<point x="127" y="0" type="line"/>
			<point x="127" y="299" type="line"/>
			<point x="278" y="299" type="line"/>
			<point x="278" y="386" type="line"/>
			<point x="127" y="386" type="line"/>
			<point x="127" y="655" type="line"/>
			<point x="37" y="655" type="line"/>
		</contour>
		<contour>
			<point x="262" y="0" type="line"/>
			<point x="382" y="0" type="line" smooth="yes"/>
			<point x="497" y="0"/>
			<point x="575" y="61"/>
			<point x="575" y="205" type="curve" smooth="yes"/>
			<point x="575" y="339"/>
			<point x="496" y="394"/>
			<point x="382" y="394" type="curve" smooth="yes"/>
			<point x="352" y="394" type="line"/>
			<point x="352" y="655" type="line"/>
			<point x="262" y="655" type="line"/>
		</contour>
		<contour>
			<point x="352" y="81" type="line"/>
			<point x="352" y="314" type="line"/>
			<point x="374" y="314" type="line" smooth="yes"/>
			<point x="450" y="314"/>
			<point x="488" y="282"/>
			<point x="488" y="203" type="curve" smooth="yes"/>
			<point x="488" y="114"/>
			<point x="450" y="81"/>
			<point x="376" y="81" type="curve" smooth="yes"/>
		</contour>
	</outline>
</glyph>
<glyph name="Be" format="1">
	<unicode hex="0411"/>
	<advance width="600"/>
	<outline>
		<contour>
			<point x="92" y="0" type="line"/>
			<point x="313" y="0" type="line" smooth="yes"/>
			<point x="455" y="0"/>
			<point x="551" y="61"/>
			<point x="551" y="201" type="curve" smooth="yes"/>
			<point x="551" y="335"/>
			<point x="448" y="384"/>
			<point x="309" y="384" type="curve" smooth="yes"/>
			<point x="192" y="384" type="line"/>
			<point x="192" y="571" type="line"/>
			<point x="508" y="571" type="line"/>
			<point x="508" y="655" type="line"/>
			<point x="92" y="655" type="line"/>
		</contour>
		<contour>
			<point x="192" y="82" type="line"/>
			<point x="192" y="304" type="line"/>
			<point x="297" y="304" type="line" smooth="yes"/>
			<point x="400" y="304"/>
			<point x="453" y="275"/>
			<point x="453" y="197" type="curve" smooth="yes"/>
			<point x="453" y="114"/>
			<point x="402" y="82"/>
			<point x="299" y="82" type="curve" smooth="yes"/>
		</contour>
	</outline>
</glyph>
<glyph name="Zhe" format="2">
	<unicode hex="0416"/>
	<advance width="600"/>
	<outline>
		<contour>
			<point x="2" y="0" type="line"/>
			<point x="104" y="0" type="line"/>
			<point x="202" y="300" type="line"/>
			<point x="256" y="300" type="line"/>
			<point x="256" y="0" type="line"/>
			<point x="344" y="0" type="line"/>
			<point x="344" y="300" type="line"/>
			<point x="398" y="300" type="line"/>
			<point x="496" y="0" type="line"/>
			<point x="598" y="0" type="line"/>
			<point x="454" y="384" type="line"/>
			<point x="344" y="384" type="line"/>
			<point x="344" y="655" type="line"/>
			<point x="256" y="655" type="line"/>
			<point x="256" y="384" type="line"/>
			<point x="146" y="384" type="line"/>
		</contour>
		<contour>
			<point x="137" y="335" type="line"/>
			<point x="220" y="349" type="line"/>
			<point x="166" y="549" type="line" smooth="yes"/>
			<point x="138" y="648"/>
			<point x="96" y="667"/>
			<point x="43" y="667" type="curve" smooth="yes"/>
			<point x="30" y="667"/>
			<point x="11" y="665"/>
			<point x="1" y="661" type="curve"/>
			<point x="17" y="567" type="line"/>
			<point x="23" y="569"/>
			<point x="31" y="571"/>
			<point x="38" y="571" type="curve" smooth="yes"/>
			<point x="58" y="571"/>
			<point x="78" y="562"/>
			<point x="95" y="500" type="curve" smooth="yes"/>
		</contour>
		<contour>
			<point x="463" y="335" type="line"/>
			<point x="505" y="500" type="line" smooth="yes"/>
			<point x="522" y="562"/>
			<point x="542" y="571"/>
			<point x="562" y="571" type="curve" smooth="yes"/>
			<point x="569" y="571"/>
			<point x="577" y="569"/>
			<point x="583" y="567" type="curve"/>
			<point x="599" y="661" type="line"/>
			<point x="589" y="665"/>
			<point x="567" y="667"/>
			<point x="554" y="667" type="curve" smooth="yes"/>
			<point x="501" y="667"/>
			<point x="461" y="648"/>
			<point x="434" y="549" type="curve" smooth="yes"/>
			<point x="380" y="349" type="line"/>
		</contour>
	</outline>
</glyph>
<glyph name="Icyr" format="2">
	<unicode hex="0418"/>
	<advance width="600"/>
	<outline>
		<contour>
			<point x="74" y="0" type="line"/>
			<point x="182" y="0" type="line"/>
			<point x="382" y="389" type="line"/>
			<point x="443" y="527" type="line"/>
			<point x="445" y="527" type="line"/>
			<point x="441" y="459"/>
			<point x="432" y="384"/>
			<point x="432" y="314" type="curve" smooth="yes"/>
			<point x="432" y="0" type="line"/>
			<point x="526" y="0" type="line"/>
			<point x="526" y="655" type="line"/>
			<point x="418" y="655" type="line"/>
			<point x="218" y="266" type="line"/>
			<point x="157" y="128" type="line"/>
			<point x="155" y="128" type="line"/>
			<point x="159" y="194"/>
			<point x="168" y="272"/>
			<point x="168" y="343" type="curve" smooth="yes"/>
			<point x="168" y="655" type="line"/>
			<point x="74" y="655" type="line"/>
		</contour>
	</outline>
</glyph>
<glyph name="Ka" format="1">
	<unicode hex="041A"/>
	<advance width="600"/>
	<outline>
		<contour>
			<point x="93" y="0" type="line"/>
			<point x="193" y="0" type="line"/>
			<point x="193" y="300" type="line"/>
			<point x="288" y="300" type="line"/>
			<point x="475" y="0" type="line"/>
			<point x="584" y="0" type="line"/>
			<point x="346" y="384" type="line"/>
			<point x="193" y="384" type="line"/>
			<point x="193" y="655" type="line"/>
			<point x="93" y="655" type="line"/>
		</contour>
		<contour>
			<point x="365" y="345" type="line"/>
			<point x="443" y="495" type="line" smooth="yes"/>
			<point x="477" y="561"/>
			<point x="496" y="572"/>
			<point x="525" y="572" type="curve" smooth="yes"/>
			<point x="531" y="572"/>
			<point x="541" y="571"/>
			<point x="550" y="568" type="curve"/>
			<point x="567" y="660" type="line"/>
			<point x="556" y="665"/>
			<point x="540" y="667"/>
			<point x="526" y="667" type="curve" smooth="yes"/>
			<point x="463" y="667"/>
			<point x="423" y="644"/>
			<point x="372" y="546" type="curve" smooth="yes"/>
			<point x="277" y="364" type="line"/>
		</contour>
		<contour>
			<point name="aboveUC" x="320" y="675" type="move"/>
		</contour>
	</outline>
</glyph>
<glyph name="El" format="1">
	<unicode hex="041B"/>
	<advance width="600"/>
	<outline>
		<contour>
			<point x="62" y="-12" type="curve" smooth="yes"/>
			<point x="143" y="-12"/>
			<point x="184" y="38"/>
			<point x="224" y="243" type="curve" smooth="yes"/>
			<point x="245" y="356"/>
			<point x="261" y="458"/>
			<point x="280" y="571" type="curve"/>
			<point x="424" y="571" type="line"/>
			<point x="424" y="0" type="line"/>
			<point x="525" y="0" type="line"/>
			<point x="525" y="655" type="line"/>
			<point x="203" y="655" type="line"/>
			<point x="177" y="512"/>
			<point x="158" y="392"/>
			<point x="130" y="254" type="curve" smooth="yes"/>
			<point x="99" y="101"/>
			<point x="79" y="83"/>
			<point x="48" y="83" type="curve" smooth="yes"/>
			<point x="37" y="83"/>
			<point x="29" y="85"/>
			<point x="20" y="88" type="curve"/>
			<point x="0" y="-3" type="line"/>
			<point x="19" y="-10"/>
			<point x="37" y="-12"/>
		</contour>
	</outline>
</glyph>
<glyph name="Ef" format="1">
	<unicode hex="0424"/>
	<advance width="600"/>
	<outline>
		<contour>
			<point x="292" y="80" type="curve"/>
			<point x="308" y="80" type="line" smooth="yes"/>
			<point x="478" y="80"/>
			<point x="577" y="169"/>
			<point x="577" y="331" type="curve" smooth="yes"/>
			<point x="577" y="491"/>
			<point x="478" y="577"/>
			<point x="308" y="577" type="curve" smooth="yes"/>
			<point x="292" y="577" type="line" smooth="yes"/>
			<point x="122" y="577"/>
			<point x="23" y="491"/>
			<point x="23" y="331" type="curve" smooth="yes"/>
			<point x="23" y="169"/>
			<point x="122" y="80"/>
		</contour>
		<contour>
			<point x="285" y="156" type="line" smooth="yes"/>
			<point x="172" y="156"/>
			<point x="116" y="219"/>
			<point x="116" y="331" type="curve" smooth="yes"/>
			<point x="116" y="442"/>
			<point x="172" y="501"/>
			<point x="285" y="501" type="curve" smooth="yes"/>
			<point x="315" y="501" type="line" smooth="yes"/>
			<point x="428" y="501"/>
			<point x="484" y="442"/>
			<point x="484" y="331" type="curve" smooth="yes"/>
			<point x="484" y="219"/>
			<point x="428" y="156"/>
			<point x="315" y="156" type="curve" smooth="yes"/>
		</contour>
		<contour>
			<point x="257" y="-12" type="line"/>
			<point x="343" y="-12" type="line"/>
			<point x="343" y="667" type="line"/>
			<point x="257" y="667" type="line"/>
		</contour>
	</outline>
</glyph>
<glyph name="Sha" format="1">
	<unicode hex="0428"/>
	<advance width="600"/>
	<outline>
		<contour>
			<point x="37" y="0" type="line"/>
			<point x="563" y="0" type="line"/>
			<point x="563" y="655" type="line"/>
			<point x="472" y="655" type="line"/>
			<point x="472" y="85" type="line"/>
			<point x="344" y="85" type="line"/>
			<point x="344" y="655" type="line"/>
			<point x="256" y="655" type="line"/>
			<point x="256" y="85" type="line"/>
			<point x="128" y="85" type="line"/>
			<point x="128" y="655" type="line"/>
			<point x="37" y="655" type="line"/>
		</contour>
	</outline>
</glyph>
<glyph name="Hard" format="1">
	<unicode hex="042A"/>
	<advance width="600"/>
	<outline>
		<contour>
			<point x="192" y="0" type="line"/>
			<point x="346" y="0" type="line" smooth="yes"/>
			<point x="481" y="0"/>
			<point x="572" y="60"/>
			<point x="572" y="205" type="curve" smooth="yes"/>
			<point x="572" y="337"/>
			<point x="471" y="394"/>
			<point x="340" y="394" type="curve" smooth="yes"/>
			<point x="292" y="394" type="line"/>
			<point x="292" y="655" type="line"/>
			<point x="21" y="655" type="line"/>
			<point x="21" y="571" type="line"/>
			<point x="192" y="571" type="line"/>
		</contour>
		<contour>
			<point x="292" y="80" type="line"/>
			<point x="292" y="314" type="line"/>
			<point x="330" y="314" type="line" smooth="yes"/>
			<point x="426" y="314"/>
			<point x="477" y="277"/>
			<point x="477" y="203" type="curve" smooth="yes"/>
			<point x="477" y="117"/>
			<point x="428" y="80"/>
			<point x="336" y="80" type="curve" smooth="yes"/>
		</contour>
	</outline>
</glyph>
<glyph name="Yu" format="2">
	<unicode hex="042E"/>
	<advance width="600"/>
	<outline>
		<contour>
			<point x="41" y="0" type="line"/>
			<point x="137" y="0" type="line"/>
			<point x="137" y="299" type="line"/>
			<point x="259" y="299" type="line"/>
			<point x="259" y="386" type="line"/>
			<point x="137" y="386" type="line"/>
			<point x="137" y="655" type="line"/>
			<point x="41" y="655" type="line"/>
		</contour>
		<contour>
			<point x="381" y="-12" type="curve" smooth="yes"/>
			<point x="497" y="-12"/>
			<point x="568" y="97"/>
			<point x="568" y="331" type="curve" smooth="yes"/>
			<point x="568" y="564"/>
			<point x="497" y="667"/>
			<point x="381" y="667" type="curve" smooth="yes"/>
			<point x="273" y="667"/>
			<point x="205" y="564"/>
			<point x="205" y="331" type="curve" smooth="yes"/>
			<point x="205" y="97"/>
			<point x="273" y="-12"/>
		</contour>
		<contour>
			<point x="381" y="75" type="curve" smooth="yes"/>
			<point x="329" y="75"/>
			<point x="295" y="144"/>
			<point x="295" y="331" type="curve" smooth="yes"/>
			<point x="295" y="517"/>
			<point x="329" y="580"/>
			<point x="381" y="580" type="curve" smooth="yes"/>
			<point x="437" y="580"/>
			<point x="468" y="517"/>
			<point x="468" y="331" type="curve" smooth="yes"/>
			<point x="468" y="144"/>
			<point x="437" y="75"/>
		</contour>
	</outline>
</glyph>
<glyph name="ve" format="2">
	<unicode hex="0432"/>
	<advance width="600"/>
	<outline>
		<contour>
			<point x="99" y="0" type="line"/>
			<point x="335" y="0" type="line" smooth="yes"/>
			<point x="453" y="0"/>
			<point x="541" y="42"/>
			<point x="541" y="140" type="curve" smooth="yes"/>
			<point x="541" y="209"/>
			<point x="494" y="242"/>
			<point x="436" y="257" type="curve"/>
			<point x="436" y="260" type="line"/>
			<point x="490" y="276"/>
			<point x="521" y="313"/>
			<point x="521" y="364" type="curve" smooth="yes"/>
			<point x="521" y="454"/>
			<point x="439" y="489"/>
			<point x="326" y="489" type="curve" smooth="yes"/>
			<point x="99" y="489" type="line"/>
		</contour>
		<contour>
			<point x="196" y="289" type="line"/>
			<point x="196" y="414" type="line"/>
			<point x="318" y="414" type="line" smooth="yes"/>
			<point x="393" y="414"/>
			<point x="425" y="395"/>
			<point x="425" y="354" type="curve" smooth="yes"/>
			<point x="425" y="313"/>
			<point x="393" y="289"/>
			<point x="314" y="289" type="curve" smooth="yes"/>
		</contour>
		<contour>
			<point x="196" y="75" type="line"/>
			<point x="196" y="216" type="line"/>
			<point x="322" y="216" type="line" smooth="yes"/>
			<point x="403" y="216"/>
			<point x="443" y="190"/>
			<point x="443" y="146" type="curve" smooth="yes"/>
			<point x="443" y="98"/>
			<point x="407" y="75"/>
			<point x="327" y="75" type="curve" smooth="yes"/>
		</contour>
	</outline>
</glyph>
<glyph name="ghe" format="1">
	<unicode hex="0433"/>
	<advance width="600"/>
	<outline>
		<contour>
			<point x="138" y="0" type="line"/>
			<point x="237" y="0" type="line"/>
			<point x="237" y="409" type="line"/>
			<point x="524" y="409" type="line"/>
			<point x="524" y="489" type="line"/>
			<point x="138" y="489" type="line"/>
		</contour>
		<contour>
			<point name="aboveLC" x="345" y="510" type="move"/>
		</contour>
	</outline>
</glyph>
<glyph name="zhe" format="1">
	<unicode hex="0436"/>
	<advance width="600"/>
	<outline>
		<contour>
			<point x="5" y="0" type="line"/>
			<point x="104" y="0" type="line"/>
			<point x="198" y="216" type="line"/>
			<point x="256" y="216" type="line"/>
			<point x="256" y="0" type="line"/>
			<point x="344" y="0" type="line"/>
			<point x="344" y="216" type="line"/>
			<point x="402" y="216" type="line"/>
			<point x="496" y="0" type="line"/>
			<point x="595" y="0" type="line"/>
			<point x="456" y="289" type="line"/>
			<point x="344" y="289" type="line"/>
			<point x="344" y="489" type="line"/>
			<point x="256" y="489" type="line"/>
			<point x="256" y="289" type="line"/>
			<point x="144" y="289" type="line"/>
		</contour>
		<contour>
			<point x="140" y="241" type="line"/>
			<point x="220" y="253" type="line"/>
			<point x="167" y="399" type="line" smooth="yes"/>
			<point x="137" y="479"/>
			<point x="97" y="501"/>
			<point x="43" y="501" type="curve" smooth="yes"/>
			<point x="30" y="501"/>
			<point x="19" y="500"/>
			<point x="11" y="495" type="curve"/>
			<point x="25" y="403" type="line"/>
			<point x="31" y="405"/>
			<point x="35" y="405"/>
			<point x="43" y="405" type="curve" smooth="yes"/>
			<point x="64" y="405"/>
			<point x="84" y="396"/>
			<point x="101" y="348" type="curve" smooth="yes"/>
		</contour>
		<contour>
			<point x="460" y="241" type="line"/>
			<point x="499" y="348" type="line" smooth="yes"/>
			<point x="516" y="396"/>
			<point x="536" y="405"/>
			<point x="557" y="405" type="curve" smooth="yes"/>
			<point x="565" y="405"/>
			<point x="569" y="405"/>
			<point x="575" y="403" type="curve"/>
			<point x="589" y="495" type="line"/>
			<point x="581" y="499"/>
			<point x="570" y="501"/>
			<point x="557" y="501" type="curve" smooth="yes"/>
			<point x="503" y="501"/>
			<point x="463" y="479"/>
			<point x="433" y="399" type="curve" smooth="yes"/>
			<point x="380" y="253" type="line"/>
		</contour>
		<contour>
			<point name="aboveLC" x="300" y="509" type="move"/>
		</contour>
	</outline>
</glyph>
<glyph name="el" format="1">
	<unicode hex="043B"/>
	<advance width="600"/>
	<outline>
		<contour>
			<point x="74" y="-12" type="curve" smooth="yes"/>
			<point x="151" y="-12"/>
			<point x="197" y="44"/>
			<point x="212" y="153" type="curve" smooth="yes"/>
			<point x="223" y="238"/>
			<point x="233" y="324"/>
			<point x="243" y="409" type="curve"/>
			<point x="404" y="409" type="line"/>
			<point x="404" y="0" type="line"/>
			<point x="503" y="0" type="line"/>
			<point x="503" y="489" type="line"/>
			<point x="165" y="489" type="line"/>
			<point x="153" y="385"/>
			<point x="141" y="282"/>
			<point x="128" y="179" type="curve" smooth="yes"/>
			<point x="120" y="112"/>
			<point x="98" y="83"/>
			<point x="66" y="83" type="curve" smooth="yes"/>
			<point x="57" y="83"/>
			<point x="50" y="85"/>
			<point x="43" y="87" type="curve"/>
			<point x="25" y="-3" type="line"/>
			<point x="40" y="-9"/>
			<point x="54" y="-12"/>
		</contour>
		<contour>
			<point name="aboveLC" x="345" y="510" type="move"/>
		</contour>
	</outline>
</glyph>
<glyph name="pe" format="2">
	<unicode hex="043F"/>
	<advance width="600"/>
	<outline>
		<contour>
			<point x="88" y="0" type="line"/>
			<point x="187" y="0" type="line"/>
			<point x="187" y="409" type="line"/>
			<point x="413" y="409" type="line"/>
			<point x="413" y="0" type="line"/>
			<point x="512" y="0" type="line"/>
			<point x="512" y="489" type="line"/>
			<point x="88" y="489" type="line"/>
		</contour>
	</outline>
	<anchor name="aboveLC" x="300" y="510"/>
</glyph>
<glyph name="te" format="1">
	<unicode hex="0442"/>
	<advance width="600"/>
	<outline>
		<contour>
			<point x="250" y="0" type="line"/>
			<point x="350" y="0" type="line"/>
			<point x="350" y="409" type="line"/>
			<point x="538" y="409" type="line"/>
			<point x="538" y="489" type="line"/>
			<point x="62" y="489" type="line"/>
			<point x="62" y="409" type="line"/>
			<point x="250" y="409" type="line"/>
		</contour>
		<contour>
			<point name="aboveLC" x="300" y="510" type="move"/>
		</contour>
	</outline>
</glyph>
<glyph name="che" format="1">
	<unicode hex="0447"/>
	<advance width="600"/>
	<outline>
		<contour>
			<point x="399" y="0" type="line"/>
			<point x="498" y="0" type="line"/>
			<point x="498" y="489" type="line"/>
			<point x="399" y="489" type="line"/>
			<point x="399" y="268" type="line"/>
			<point x="368" y="261"/>
			<point x="344" y="257"/>
			<point x="312" y="257" type="curve" smooth="yes"/>
			<point x="220" y="257"/>
			<point x="181" y="288"/>
			<point x="181" y="364" type="curve" smooth="yes"/>
			<point x="181" y="489" type="line"/>
			<point x="82" y="489" type="line"/>
			<point x="82" y="364" type="line" smooth="yes"/>
			<point x="82" y="229"/>
			<point x="161" y="178"/>
			<point x="292" y="178" type="curve" smooth="yes"/>
			<point x="341" y="178"/>
			<point x="361" y="181"/>
			<point x="399" y="189" type="curve"/>
		</contour>
		<contour>
			<point name="aboveLC" x="305" y="510" type="move"/>
		</contour>
	</outline>
</glyph>
<glyph name="yeru" format="1">
	<unicode hex="044B"/>
	<advance width="600"/>
	<outline>
		<contour>
			<point x="62" y="0" type="line"/>
			<point x="211" y="0" type="line" smooth="yes"/>
			<point x="317" y="0"/>
			<point x="390" y="46"/>
			<point x="390" y="159" type="curve" smooth="yes"/>
			<point x="390" y="270"/>
			<point x="317" y="315"/>
			<point x="211" y="315" type="curve" smooth="yes"/>
			<point x="151" y="315" type="line"/>
			<point x="151" y="489" type="line"/>
			<point x="62" y="489" type="line"/>
		</contour>
		<contour>
			<point x="151" y="78" type="line"/>
			<point x="151" y="239" type="line"/>
			<point x="203" y="239" type="line" smooth="yes"/>
			<point x="271" y="239"/>
			<point x="304" y="215"/>
			<point x="304" y="159" type="curve" smooth="yes"/>
			<point x="304" y="103"/>
			<point x="271" y="78"/>
			<point x="203" y="78" type="curve" smooth="yes"/>
		</contour>
		<contour>
			<point x="449" y="0" type="line"/>
			<point x="538" y="0" type="line"/>
			<point x="538" y="489" type="line"/>
			<point x="449" y="489" type="line"/>
		</contour>
		<contour>
			<point name="aboveLC" x="300" y="510" type="move"/>
		</contour>
	</outline>
</glyph>
<glyph name="soft" format="1">
	<unicode hex="044C"/>
	<advance width="600"/>
	<outline>
		<contour>
			<point x="114" y="0" type="line"/>
			<point x="324" y="0" type="line" smooth="yes"/>
			<point x="444" y="0"/>
			<point x="527" y="46"/>
			<point x="527" y="159" type="curve" smooth="yes"/>
			<point x="527" y="270"/>
			<point x="444" y="315"/>
			<point x="324" y="315" type="curve" smooth="yes"/>
			<point x="213" y="315" type="line"/>
			<point x="213" y="489" type="line"/>
			<point x="114" y="489" type="line"/>
		</contour>
		<contour>
			<point x="213" y="78" type="line"/>
			<point x="213" y="239" type="line"/>
			<point x="316" y="239" type="line" smooth="yes"/>
			<point x="394" y="239"/>
			<point x="431" y="215"/>
			<point x="431" y="159" type="curve" smooth="yes"/>
			<point x="431" y="103"/>
			<point x="394" y="78"/>
			<point x="316" y="78" type="curve" smooth="yes"/>
		</contour>
		<contour>
			<point name="aboveLC" x="165" y="510" type="move"/>
		</contour>
	</outline>
</glyph>
<glyph name="ya" format="1">
	<unicode hex="044F"/>
	<advance width="600"/>
	<outline>
		<contour>
			<point x="408" y="0" type="line"/>
			<point x="508" y="0" type="line"/>
			<point x="508" y="489" type="line"/>
			<point x="264" y="489" type="line" smooth="yes"/>
			<point x="157" y="489"/>
			<point x="75" y="451"/>
			<point x="75" y="339" type="curve" smooth="yes"/>
			<point x="75" y="228"/>
			<point x="170" y="183"/>
			<point x="262" y="183" type="curve"/>
			<point x="408" y="183" type="line"/>
		</contour>
		<contour>
			<point x="280" y="256" type="line" smooth="yes"/>
			<point x="212" y="256"/>
			<point x="173" y="284"/>
			<point x="173" y="337" type="curve" smooth="yes"/>
			<point x="173" y="391"/>
			<point x="212" y="412"/>
			<point x="280" y="412" type="curve" smooth="yes"/>
			<point x="408" y="412" type="line"/>
			<point x="408" y="256" type="line"/>
		</contour>
		<contour>
			<point x="50" y="0" type="line"/>
			<point x="161" y="0" type="line"/>
			<point x="308" y="206" type="line"/>
			<point x="223" y="235" type="line"/>
		</contour>
		<contour>
			<point name="aboveLC" x="319" y="509" type="move"/>
		</contour>
	</outline>
</glyph>
<glyph name="dje" format="1">
	<unicode hex="0452"/>
	<advance width="600"/>
	<outline>
		<contour>
			<point x="330" y="-212" type="curve" smooth="yes"/>
			<point x="460" y="-212"/>
			<point x="541" y="-124"/>
			<point x="541" y="173" type="curve" smooth="yes"/>
			<point x="541" y="374"/>
			<point x="473" y="481"/>
			<point x="348" y="481" type="curve" smooth="yes"/>
			<point x="280" y="481"/>
			<point x="228" y="441"/>
			<point x="184" y="392" type="curve"/>
			<point x="180" y="392" type="line"/>
			<point x="186" y="501" type="line"/>
			<point x="186" y="709" type="line"/>
			<point x="88" y="709" type="line"/>
			<point x="88" y="0" type="line"/>
			<point x="186" y="0" type="line"/>
			<point x="186" y="317" type="line"/>
			<point x="236" y="369"/>
			<point x="270" y="396"/>
			<point x="315" y="396" type="curve" smooth="yes"/>
			<point x="397" y="396"/>
			<point x="439" y="332"/>
			<point x="439" y="162" type="curve" smooth="yes"/>
			<point x="439" y="-72"/>
			<point x="388" y="-132"/>
			<point x="322" y="-132" type="curve" smooth="yes"/>
			<point x="308" y="-132"/>
			<point x="294" y="-128"/>
			<point x="283" y="-124" type="curve"/>
			<point x="264" y="-198" type="line"/>
			<point x="279" y="-206"/>
			<point x="302" y="-212"/>
		</contour>
		<contour>
			<point x="16" y="561" type="line"/>
			<point x="391" y="561" type="line"/>
			<point x="391" y="627" type="line"/>
			<point x="94" y="627" type="line"/>
			<point x="16" y="622" type="line"/>
		</contour>
	</outline>
</glyph>
<glyph name="nje" format="2">
	<unicode hex="045A"/>
	<advance width="600"/>
	<outline>
		<contour>
			<point x="52" y="0" type="line"/>
			<point x="145" y="0" type="line"/>
			<point x="145" y="209" type="line"/>
			<point x="261" y="209" type="line"/>
			<point x="261" y="0" type="line"/>
			<point x="354" y="0" type="line"/>
			<point x="354" y="489" type="line"/>
			<point x="261" y="489" type="line"/>
			<point x="261" y="296" type="line"/>
			<point x="145" y="296" type="line"/>
			<point x="145" y="489" type="line"/>
			<point x="52" y="489" type="line"/>
		</contour>
		<contour>
			<point x="261" y="0" type="line"/>
			<point x="378" y="0" type="line" smooth="yes"/>
			<point x="487" y="0"/>
			<point x="558" y="46"/>
			<point x="558" y="159" type="curve" smooth="yes"/>
			<point x="558" y="270"/>
			<point x="487" y="315"/>
			<point x="378" y="315" type="curve" smooth="yes"/>
			<point x="354" y="315" type="line"/>
			<point x="354" y="489" type="line"/>
			<point x="261" y="489" type="line"/>
		</contour>
		<contour>
			<point x="354" y="78" type="line"/>
			<point x="354" y="239" type="line"/>
			<point x="369" y="239" type="line" smooth="yes"/>
			<point x="439" y="239"/>
			<point x="471" y="216"/>
			<point x="471" y="159" type="curve" smooth="yes"/>
			<point x="471" y="103"/>
			<point x="439" y="78"/>
			<point x="369" y="78" type="curve" smooth="yes"/>
		</contour>
	</outline>
</glyph>
<glyph name="ghestroke" format="1">
	<unicode hex="0493"/>
	<advance width="600"/>
	<outline>
		<contour>
			<point x="142" y="0" type="line"/>
			<point x="241" y="0" type="line"/>
			<point x="241" y="409" type="line"/>
			<point x="524" y="409" type="line"/>
			<point x="524" y="489" type="line"/>
			<point x="142" y="489" type="line"/>
		</contour>
		<contour>
			<point x="66" y="202" type="line"/>
			<point x="407" y="202" type="line"/>
			<point x="407" y="268" type="line"/>
			<point x="146" y="268" type="line"/>
			<point x="66" y="262" type="line"/>
		</contour>
	</outline>
</glyph>
<glyph name="zhedescender" format="2">
	<unicode hex="0497"/>
	<advance width="600"/>
	<outline>
		<contour>
			<point x="530" y="-172" type="line"/>
			<point x="598" y="-172" type="line"/>
			<point x="608" y="16" type="line"/>
			<point x="608" y="80" type="line"/>
			<point x="514" y="80" type="line"/>
			<point x="514" y="0" type="line"/>
			<point x="530" y="0" type="line"/>
		</contour>
		<component base="zhe"/>
	</outline>
</glyph>
<glyph name="Zedescender" format="1">
	<unicode hex="0498"/>
	<advance width="600"/>
	<outline>
		<contour>
			<point x="256" y="-188" type="line"/>
			<point x="345" y="-188" type="line"/>
			<point x="355" y="18" type="line"/>
			<point x="256" y="0" type="line"/>
		</contour>
		<component base="Ze" yOffset="-1"/>
	</outline>
</glyph>
<glyph name="Kadescender" format="1">
	<unicode hex="049A"/>
	<advance width="600"/>
	<outline>
		<contour>
			<point x="504" y="-188" type="line"/>
			<point x="583" y="-188" type="line"/>
			<point x="592" y="24" type="line"/>
			<point x="592" y="84" type="line"/>
			<point x="484" y="84" type="line"/>
			<point x="484" y="0" type="line"/>
			<point x="504" y="0" type="line"/>
		</contour>
		<component base="Ka"/>
	</outline>
</glyph>
<glyph name="Kabashkir" format="1">
	<unicode hex="04A0"/>
	<advance width="600"/>
	<outline>
		<contour>
			<point x="197" y="0" type="line"/>
			<point x="287" y="0" type="line"/>
			<point x="287" y="300" type="line"/>
			<point x="347" y="300" type="line"/>
			<point x="506" y="0" type="line"/>
			<point x="600" y="0" type="line"/>
			<point x="401" y="384" type="line"/>
			<point x="287" y="384" type="line"/>
			<point x="287" y="655" type="line"/>
			<point x="197" y="655" type="line"/>
		</contour>
		<contour>
			<point x="21" y="571" type="line"/>
			<point x="197" y="571" type="line"/>
			<point x="287" y="655" type="line"/>
			<point x="21" y="655" type="line"/>
		</contour>
		<contour>
			<point x="415" y="340" type="line"/>
			<point x="484" y="495" type="line" smooth="yes"/>
			<point x="515" y="561"/>
			<point x="532" y="572"/>
			<point x="551" y="572" type="curve" smooth="yes"/>
			<point x="557" y="572"/>
			<point x="564" y="571"/>
			<point x="570" y="569" type="curve"/>
			<point x="587" y="660" type="line"/>
			<point x="577" y="664"/>
			<point x="564" y="667"/>
			<point x="551" y="667" type="curve" smooth="yes"/>
			<point x="494" y="667"/>
			<point x="460" y="647"/>
			<point x="418" y="546" type="curve" smooth="yes"/>
			<point x="340" y="364" type="line"/>
		</contour>
	</outline>
</glyph>
<glyph name="kabashkir" format="1">
	<unicode hex="04A1"/>
	<advance width="600"/>
	<outline>
		<contour>
			<point x="195" y="0" type="line"/>
			<point x="284" y="0" type="line"/>
			<point x="284" y="214" type="line"/>
			<point x="368" y="214" type="line"/>
			<point x="491" y="0" type="line"/>
			<point x="586" y="0" type="line"/>
			<point x="412" y="293" type="line"/>
			<point x="284" y="293" type="line"/>
			<point x="284" y="489" type="line"/>
			<point x="195" y="489" type="line"/>
		</contour>
		<contour>
			<point x="32" y="409" type="line"/>
			<point x="195" y="409" type="line"/>
			<point x="284" y="489" type="line"/>
			<point x="32" y="489" type="line"/>
		</contour>
		<contour>
			<point x="431" y="236" type="line"/>
			<point x="472" y="343" type="line" smooth="yes"/>
			<point x="492" y="397"/>
			<point x="509" y="406"/>
			<point x="530" y="406" type="curve" smooth="yes"/>
			<point x="537" y="406"/>
			<point x="541" y="405"/>
			<point x="547" y="403" type="curve"/>
			<point x="564" y="495" type="line"/>
			<point x="555" y="499"/>
			<point x="544" y="501"/>
			<point x="532" y="501" type="curve" smooth="yes"/>
			<point x="479" y="501"/>
			<point x="439" y="483"/>
			<point x="407" y="397" type="curve" smooth="yes"/>
			<point x="353" y="253" type="line"/>
		</contour>
	</outline>
</glyph>
<glyph name="Esdescender" format="2">
	<unicode hex="04AA"/>
	<advance width="600"/>
	<outline>
		<contour>
			<point x="307" y="-188" type="line"/>
			<point x="395" y="-188" type="line"/>
			<point x="405" y="18" type="line"/>
			<point x="307" y="0" type="line"/>
		</contour>
		<component base="Es"/>
	</outline>
</glyph>
<glyph name="Ustraightstroke" format="2">
	<unicode hex="04B0"/>
	<advance width="600"/>
	<outline>
		<contour>
			<point x="100" y="217" type="line"/>
			<point x="500" y="217" type="line"/>
			<point x="500" y="282" type="line"/>
			<point x="190" y="282" type="line"/>
			<point x="100" y="278" type="line"/>
		</contour>
		<component base="Ustraight"/>
	</outline>
</glyph>
<glyph name="Chedescender" format="1">
	<unicode hex="04B6"/>
	<advance width="600"/>
	<outline>
		<contour>
			<point x="415" y="0" type="line"/>
			<point x="515" y="0" type="line"/>
			<point x="515" y="655" type="line"/>
			<point x="415" y="655" type="line"/>
			<point x="415" y="367" type="line"/>
			<point x="390" y="362"/>
			<point x="356" y="358"/>
			<point x="309" y="358" type="curve" smooth="yes"/>
			<point x="211" y="358"/>
			<point x="158" y="393"/>
			<point x="158" y="499" type="curve" smooth="yes"/>
			<point x="158" y="655" type="line"/>
			<point x="60" y="655" type="line"/>
			<point x="60" y="499" type="line" smooth="yes"/>
			<point x="60" y="335"/>
			<point x="150" y="277"/>
			<point x="300" y="277" type="curve" smooth="yes"/>
			<point x="349" y="277"/>
			<point x="384" y="281"/>
			<point x="415" y="286" type="curve"/>
		</contour>
		<contour>
			<point x="494" y="-188" type="line"/>
			<point x="577" y="-188" type="line"/>
			<point x="587" y="24" type="line"/>
			<point x="587" y="84" type="line"/>
			<point x="457" y="84" type="line"/>
			<point x="457" y="0" type="line"/>
			<point x="494" y="0" type="line"/>
		</contour>
	</outline>
</glyph>
<glyph name="a.sups" format="2">
	<unicode hex="1D43"/>
	<advance width="600"/>
	<outline>
		<contour>
			<point x="265" y="382" type="curve" smooth="yes"/>
			<point x="309" y="382"/>
			<point x="350" y="401"/>
			<point x="382" y="427" type="curve"/>
			<point x="384" y="427" type="line"/>
			<point x="389" y="390" type="line"/>
			<point x="450" y="390" type="line"/>
			<point x="450" y="583" type="line" smooth="yes"/>
			<point x="450" y="671"/>
			<point x="404" y="721"/>
			<point x="317" y="721" type="curve" smooth="yes"/>
			<point x="262" y="721"/>
			<point x="208" y="701"/>
			<point x="171" y="679" type="curve"/>
			<point x="199" y="629" type="line"/>
			<point x="231" y="648"/>
			<point x="267" y="662"/>
			<point x="303" y="662" type="curve" smooth="yes"/>
			<point x="355" y="662"/>
			<point x="373" y="633"/>
			<point x="376" y="595" type="curve"/>
			<point x="226" y="584"/>
			<point x="159" y="545"/>
			<point x="159" y="476" type="curve" smooth="yes"/>
			<point x="159" y="420"/>
			<point x="204" y="382"/>
		</contour>
		<contour>
			<point x="285" y="438" type="curve" smooth="yes"/>
			<point x="255" y="438"/>
			<point x="230" y="451"/>
			<point x="230" y="483" type="curve" smooth="yes"/>
			<point x="230" y="518"/>
			<point x="269" y="541"/>
			<point x="376" y="551" type="curve"/>
			<point x="376" y="475" type="line"/>
			<point x="346" y="452"/>
			<point x="318" y="438"/>
		</contour>
	</outline>
</glyph>
<glyph name="Epsilonasperacute" format="2">
	<unicode hex="1F1D"/>
	<advance width="600"/>
	<outline>
		<contour>
			<point x="192" y="0" type="line"/>
			<point x="526" y="0" type="line"/>
			<point x="526" y="28" type="line"/>
			<point x="224" y="28" type="line"/>
			<point x="224" y="338" type="line"/>
			<point x="460" y="338" type="line"/>
			<point x="460" y="366" type="line"/>
			<point x="224" y="366" type="line"/>
			<point x="224" y="632" type="line"/>
			<point x="516" y="632" type="line"/>
			<point x="516" y="660" type="line"/>
			<point x="192" y="660" type="line"/>
		</contour>
		<component base="asperacute.cap" xOffset="-200"/>
	</outline>
</glyph>
<glyph name="iotaadscript" format="1">
	<unicode hex="1FBE"/>
	<advance width="600"/>
	<outline>
		<contour>
			<point x="349" y="-12" type="curve" smooth="yes"/>
			<point x="380" y="-12"/>
			<point x="399" y="-6"/>
			<point x="415" y="1" type="curve"/>
			<point x="402" y="75" type="line"/>
			<point x="391" y="71"/>
			<point x="381" y="69"/>
			<point x="372" y="69" type="curve" smooth="yes"/>
			<point x="350" y="69"/>
			<point x="335" y="80"/>
			<point x="335" y="109" type="curve" smooth="yes"/>
			<point x="335" y="197"/>
			<point x="338" y="305"/>
			<point x="342" y="409" type="curve"/>
			<point x="242" y="409" type="line"/>
			<point x="242" y="115" type="line" smooth="yes"/>
			<point x="242" y="35"/>
			<point x="270" y="-12"/>
		</contour>
	</outline>
</glyph>
<glyph name="quoteright" format="1">
	<unicode hex="2019"/>
	<advance width="600"/>
	<outline>
		<contour>
			<point x="244" y="334" type="line"/>
			<point x="340" y="382"/>
			<point x="395" y="465"/>
			<point x="395" y="567" type="curve" smooth="yes"/>
			<point x="395" y="650"/>
			<point x="356" y="698"/>
			<point x="298" y="698" type="curve" smooth="yes"/>
			<point x="252" y="698"/>
			<point x="219" y="664"/>
			<point x="219" y="615" type="curve" smooth="yes"/>
			<point x="219" y="569"/>
			<point x="250" y="538"/>
			<point x="295" y="538" type="curve" smooth="yes"/>
			<point x="317" y="538"/>
			<point x="342" y="551"/>
			<point x="360" y="569" type="curve"/>
			<point x="304" y="640" type="line"/>
			<point x="320" y="558" type="line"/>
			<point x="320" y="483"/>
			<point x="282" y="427"/>
			<point x="213" y="390" type="curve"/>
		</contour>
	</outline>
</glyph>
<glyph name="daggerdbl" format="1">
	<unicode hex="2021"/>
	<advance width="600"/>
	<outline>
		<contour>
			<point x="259" y="-80" type="line"/>
			<point x="341" y="-80" type="line"/>
			<point x="335" y="84" type="line"/>
			<point x="483" y="78" type="line"/>
			<point x="483" y="160" type="line"/>
			<point x="335" y="152" type="line"/>
			<point x="341" y="316" type="line"/>
			<point x="335" y="480" type="line"/>
			<point x="483" y="472" type="line"/>
			<point x="483" y="554" type="line"/>
			<point x="335" y="548" type="line"/>
			<point x="341" y="712" type="line"/>
			<point x="259" y="712" type="line"/>
			<point x="265" y="548" type="line"/>
			<point x="117" y="554" type="line"/>
			<point x="117" y="472" type="line"/>
			<point x="265" y="480" type="line"/>
			<point x="259" y="316" type="line"/>
			<point x="265" y="152" type="line"/>
			<point x="117" y="160" type="line"/>
			<point x="117" y="78" type="line"/>
			<point x="265" y="84" type="line"/>
		</contour>
	</outline>
</glyph>
<glyph name="ellipsis" format="1">
	<unicode hex="2026"/>
	<advance width="600"/>
	<outline>
		<contour>
			<point x="99" y="-12" type="curve" smooth="yes"/>
			<point x="142" y="-12"/>
			<point x="174" y="22"/>
			<point x="174" y="68" type="curve" smooth="yes"/>
			<point x="174" y="116"/>
			<point x="142" y="149"/>
			<point x="99" y="149" type="curve" smooth="yes"/>
			<point x="56" y="149"/>
			<point x="23" y="116"/>
			<point x="23" y="68" type="curve" smooth="yes"/>
			<point x="23" y="22"/>
			<point x="56" y="-12"/>
		</contour>
		<contour>
			<point x="300" y="-12" type="curve" smooth="yes"/>
			<point x="343" y="-12"/>
			<point x="375" y="22"/>
			<point x="375" y="68" type="curve" smooth="yes"/>
			<point x="375" y="116"/>
			<point x="343" y="149"/>
			<point x="300" y="149" type="curve" smooth="yes"/>
			<point x="257" y="149"/>
			<point x="225" y="116"/>
			<point x="225" y="68" type="curve" smooth="yes"/>
			<point x="225" y="22"/>
			<point x="257" y="-12"/>
		</contour>
		<contour>
			<point x="501" y="-12" type="curve" smooth="yes"/>
			<point x="544" y="-12"/>
			<point x="577" y="22"/>
			<point x="577" y="68" type="curve" smooth="yes"/>
			<point x="577" y="116"/>
			<point x="544" y="149"/>
			<point x="501" y="149" type="curve" smooth="yes"/>
			<point x="458" y="149"/>
			<point x="426" y="116"/>
			<point x="426" y="68" type="curve" smooth="yes"/>
			<point x="426" y="22"/>
			<point x="458" y="-12"/>
		</contour>
	</outline>
</glyph>
<glyph name="perthousand" format="1">
	<unicode hex="2030"/>
	<advance width="600"/>
	<outline>
		<contour>
			<point x="163" y="389" type="curve" smooth="yes"/>
			<point x="233" y="389"/>
			<point x="283" y="438"/>
			<point x="283" y="521" type="curve" smooth="yes"/>
			<point x="283" y="602"/>
			<point x="233" y="649"/>
			<point x="163" y="649" type="curve" smooth="yes"/>
			<point x="93" y="649"/>
			<point x="44" y="602"/>
			<point x="44" y="521" type="curve" smooth="yes"/>
			<point x="44" y="438"/>
			<point x="93" y="389"/>
		</contour>
		<contour>
			<point x="163" y="436" type="curve" smooth="yes"/>
			<point x="131" y="436"/>
			<point x="106" y="462"/>
			<point x="106" y="521" type="curve" smooth="yes"/>
			<point x="106" y="578"/>
			<point x="131" y="602"/>
			<point x="163" y="602" type="curve" smooth="yes"/>
			<point x="196" y="602"/>
			<point x="221" y="579"/>
			<point x="221" y="521" type="curve" smooth="yes"/>
			<point x="221" y="462"/>
			<point x="196" y="436"/>
		</contour>
		<contour>
			<point x="117" y="276" type="line"/>
			<point x="577" y="443" type="line"/>
			<point x="549" y="511" type="line"/>
			<point x="102" y="310" type="line"/>
		</contour>
		<contour>
			<point x="163" y="-12" type="curve" smooth="yes"/>
			<point x="233" y="-12"/>
			<point x="283" y="37"/>
			<point x="283" y="120" type="curve" smooth="yes"/>
			<point x="283" y="201"/>
			<point x="233" y="248"/>
			<point x="163" y="248" type="curve" smooth="yes"/>
			<point x="93" y="248"/>
			<point x="44" y="201"/>
			<point x="44" y="120" type="curve" smooth="yes"/>
			<point x="44" y="37"/>
			<point x="93" y="-12"/>
		</contour>
		<contour>
			<point x="163" y="35" type="curve" smooth="yes"/>
			<point x="131" y="35"/>
			<point x="106" y="61"/>
			<point x="106" y="120" type="curve" smooth="yes"/>
			<point x="106" y="177"/>
			<point x="131" y="201"/>
			<point x="163" y="201" type="curve" smooth="yes"/>
			<point x="196" y="201"/>
			<point x="221" y="178"/>
			<point x="221" y="120" type="curve" smooth="yes"/>
			<point x="221" y="61"/>
			<point x="196" y="35"/>
		</contour>
		<contour>
			<point x="438" y="-12" type="curve" smooth="yes"/>
			<point x="508" y="-12"/>
			<point x="557" y="37"/>
			<point x="557" y="120" type="curve" smooth="yes"/>
			<point x="557" y="201"/>
			<point x="508" y="248"/>
			<point x="438" y="248" type="curve" smooth="yes"/>
			<point x="368" y="248"/>
			<point x="318" y="201"/>
			<point x="318" y="120" type="curve" smooth="yes"/>
			<point x="318" y="37"/>
			<point x="368" y="-12"/>
		</contour>
		<contour>
			<point x="438" y="35" type="curve" smooth="yes"/>
			<point x="405" y="35"/>
			<point x="380" y="61"/>
			<point x="380" y="120" type="curve" smooth="yes"/>
			<point x="380" y="177"/>
			<point x="405" y="201"/>
			<point x="438" y="201" type="curve" smooth="yes"/>
			<point x="470" y="201"/>
			<point x="495" y="178"/>
			<point x="495" y="120" type="curve" smooth="yes"/>
			<point x="495" y="61"/>
			<point x="470" y="35"/>
		</contour>
	</outline>
</glyph>
<glyph name="prime" format="1">
	<unicode hex="2032"/>
	<advance width="600"/>
	<outline>
		<contour>
			<point x="250" y="413" type="line"/>
			<point x="315" y="413" type="line"/>
			<point x="352" y="578" type="line"/>
			<point x="370" y="689" type="line"/>
			<point x="272" y="689" type="line"/>
		</contour>
	</outline>
</glyph>
<glyph name="questionexclam" format="1">
	<unicode hex="2048"/>
	<advance width="600"/>
	<outline>
		<contour>
			<point x="96" y="238" type="curve"/>
			<point x="178" y="238" type="line"/>
			<point x="160" y="364"/>
			<point x="294" y="408"/>
			<point x="294" y="549" type="curve" smooth="yes"/>
			<point x="294" y="626"/>
			<point x="236" y="682"/>
			<point x="152" y="682" type="curve" smooth="yes"/>
			<point x="97" y="682"/>
			<point x="51" y="660"/>
			<point x="12" y="617" type="curve"/>
			<point x="59" y="559" type="line"/>
			<point x="84" y="589"/>
			<point x="105" y="601"/>
			<point x="134" y="601" type="curve" smooth="yes"/>
			<point x="176" y="601"/>
			<point x="198" y="570"/>
			<point x="198" y="531" type="curve" smooth="yes"/>
			<point x="198" y="429"/>
			<point x="72" y="375"/>
		</contour>
		<contour>
			<point x="146" y="-12" type="curve" smooth="yes"/>
			<point x="190" y="-12"/>
			<point x="226" y="21"/>
			<point x="226" y="72" type="curve" smooth="yes"/>
			<point x="226" y="122"/>
			<point x="190" y="155"/>
			<point x="146" y="155" type="curve" smooth="yes"/>
			<point x="102" y="155"/>
			<point x="66" y="122"/>
			<point x="66" y="72" type="curve" smooth="yes"/>
			<point x="66" y="21"/>
			<point x="102" y="-12"/>
		</contour>
		<component base="exclam" xOffset="140"/>
	</outline>
</glyph>
<glyph name="two.subs" format="2">
	<unicode hex="2082"/>
	<advance width="600"/>
	<outline>
		<contour>
			<point x="160" y="-180" type="line"/>
			<point x="449" y="-180" type="line"/>
			<point x="449" y="-116" type="line"/>
			<point x="276" y="-116" type="line"/>
			<point x="366" y="-32"/>
			<point x="431" y="23"/>
			<point x="431" y="94" type="curve" smooth="yes"/>
			<point x="431" y="177"/>
			<point x="373" y="222"/>
			<point x="287" y="222" type="curve" smooth="yes"/>
			<point x="228" y="222"/>
			<point x="175" y="193"/>
			<point x="142" y="145" type="curve"/>
			<point x="186" y="105" type="line"/>
			<point x="209" y="138"/>
			<point x="241" y="159"/>
			<point x="276" y="159" type="curve" smooth="yes"/>
			<point x="326" y="159"/>
			<point x="357" y="130"/>
			<point x="357" y="83" type="curve" smooth="yes"/>
			<point x="357" y="26"/>
			<point x="285" y="-30"/>
			<point x="155" y="-137" type="curve"/>
		</contour>
	</outline>
</glyph>
<glyph name="seven.subs" format="2">
	<unicode hex="2087"/>
	<advance width="600"/>
	<outline>
		<contour>
			<point x="243" y="-180" type="curve"/>
			<point x="322" y="-180" type="line"/>
			<point x="329" y="-45"/>
			<point x="357" y="46"/>
			<point x="453" y="169" type="curve"/>
			<point x="453" y="210" type="line"/>
			<point x="155" y="210" type="line"/>
			<point x="155" y="146" type="line"/>
			<point x="369" y="146" type="line"/>
			<point x="290" y="36"/>
			<point x="251" y="-48"/>
		</contour>
	</outline>
</glyph>
<glyph name="eight.subs" format="2">
	<unicode hex="2088"/>
	<advance width="600"/>
	<outline>
		<contour>
			<point x="299" y="-192" type="curve" smooth="yes"/>
			<point x="391" y="-192"/>
			<point x="450" y="-144"/>
			<point x="450" y="-82" type="curve" smooth="yes"/>
			<point x="450" y="-33"/>
			<point x="423" y="-2"/>
			<point x="368" y="22" type="curve"/>
			<point x="368" y="26" type="line"/>
			<point x="408" y="46"/>
			<point x="437" y="75"/>
			<point x="437" y="118" type="curve" smooth="yes"/>
			<point x="437" y="182"/>
			<point x="382" y="222"/>
			<point x="299" y="222" type="curve" smooth="yes"/>
			<point x="219" y="222"/>
			<point x="163" y="181"/>
			<point x="163" y="118" type="curve" smooth="yes"/>
			<point x="163" y="77"/>
			<point x="187" y="54"/>
			<point x="231" y="28" type="curve"/>
			<point x="231" y="24" type="line"/>
			<point x="180" y="1"/>
			<point x="148" y="-35"/>
			<point x="148" y="-84" type="curve" smooth="yes"/>
			<point x="148" y="-143"/>
			<point x="204" y="-192"/>
		</contour>
		<contour>
			<point x="320" y="47" type="curve"/>
			<point x="267" y="64"/>
			<point x="232" y="80"/>
			<point x="232" y="116" type="curve" smooth="yes"/>
			<point x="232" y="146"/>
			<point x="257" y="167"/>
			<point x="298" y="167" type="curve" smooth="yes"/>
			<point x="341" y="167"/>
			<point x="368" y="147"/>
			<point x="368" y="115" type="curve" smooth="yes"/>
			<point x="368" y="91"/>
			<point x="358" y="72"/>
		</contour>
		<contour>
			<point x="299" y="-139" type="curve" smooth="yes"/>
			<point x="245" y="-139"/>
			<point x="218" y="-109"/>
			<point x="218" y="-77" type="curve" smooth="yes"/>
			<point x="218" y="-47"/>
			<point x="236" y="-22"/>
			<point x="277" y="0" type="curve"/>
			<point x="331" y="-23"/>
			<point x="380" y="-33"/>
			<point x="380" y="-78" type="curve" smooth="yes"/>
			<point x="380" y="-111"/>
			<point x="350" y="-139"/>
		</contour>
	</outline>
</glyph>
<glyph name="parenright.subs" format="2">
	<unicode hex="208E"/>
	<advance width="600"/>
	<outline>
		<contour>
			<point x="261" y="-261" type="line"/>
			<point x="337" y="-173"/>
			<point x="368" y="-100"/>
			<point x="368" y="15" type="curve" smooth="yes"/>
			<point x="368" y="129"/>
			<point x="337" y="202"/>
			<point x="261" y="291" type="curve"/>
			<point x="206" y="261" type="line"/>
			<point x="274" y="178"/>
			<point x="296" y="102"/>
			<point x="296" y="15" type="curve" smooth="yes"/>
			<point x="296" y="-72"/>
			<point x="274" y="-147"/>
			<point x="206" y="-232" type="curve"/>
		</contour>
	</outline>
</glyph>
<glyph name="colonmonetary" format="1">
	<unicode hex="20A1"/>
	<advance width="600"/>
	<outline>
		<contour>
			<point x="356" y="-12" type="curve" smooth="yes"/>
			<point x="437" y="-12"/>
			<point x="499" y="22"/>
			<point x="550" y="81" type="curve"/>
			<point x="493" y="133" type="line"/>
			<point x="455" y="90"/>
			<point x="416" y="66"/>
			<point x="362" y="66" type="curve" smooth="yes"/>
			<point x="255" y="66"/>
			<point x="193" y="163"/>
			<point x="193" y="320" type="curve" smooth="yes"/>
			<point x="193" y="475"/>
			<point x="254" y="571"/>
			<point x="366" y="571" type="curve" smooth="yes"/>
			<point x="415" y="571"/>
			<point x="451" y="548"/>
			<point x="484" y="516" type="curve"/>
			<point x="542" y="571" type="line"/>
			<point x="499" y="617"/>
			<point x="437" y="649"/>
			<point x="372" y="649" type="curve" smooth="yes"/>
			<point x="203" y="649"/>
			<point x="92" y="524"/>
			<point x="92" y="317" type="curve" smooth="yes"/>
			<point x="92" y="109"/>
			<point x="201" y="-12"/>
		</contour>
		<contour>
			<point x="219" y="-102" type="line"/>
			<point x="268" y="-110" type="line"/>
			<point x="368" y="741" type="line"/>
			<point x="319" y="749" type="line"/>
		</contour>
		<contour>
			<point x="325" y="-102" type="line"/>
			<point x="374" y="-110" type="line"/>
			<point x="474" y="741" type="line"/>
			<point x="425" y="749" type="line"/>
		</contour>
	</outline>
</glyph>
<glyph name="naira" format="2">
	<unicode hex="20A6"/>
	<advance width="600"/>
	<outline>
		<contour>
			<point x="115" y="0" type="line"/>
			<point x="190" y="0" type="line"/>
			<point x="190" y="266" type="line"/>
			<point x="171" y="553" type="line"/>
			<point x="175" y="553" type="line"/>
			<point x="248" y="362" type="line"/>
			<point x="388" y="0" type="line"/>
			<point x="485" y="0" type="line"/>
			<point x="485" y="637" type="line"/>
			<point x="410" y="637" type="line"/>
			<point x="410" y="371" type="line"/>
			<point x="429" y="83" type="line"/>
			<point x="425" y="83" type="line"/>
			<point x="352" y="276" type="line"/>
			<point x="212" y="637" type="line"/>
			<point x="115" y="637" type="line"/>
		</contour>
		<contour>
			<point x="41" y="350" type="line"/>
			<point x="557" y="350" type="line"/>
			<point x="557" y="401" type="line"/>
			<point x="115" y="401" type="line"/>
			<point x="41" y="396" type="line"/>
		</contour>
		<contour>
			<point x="41" y="235" type="line"/>
			<point x="557" y="235" type="line"/>
			<point x="557" y="286" type="line"/>
			<point x="115" y="286" type="line"/>
			<point x="41" y="281" type="line"/>
		</contour>
	</outline>
</glyph>
<glyph name="peseta" format="1">
	<unicode hex="20A7"/>
	<advance width="600"/>
	<outline>
		<contour>
			<point x="126" y="0" type="line"/>
			<point x="220" y="0" type="line"/>
			<point x="220" y="237" type="line"/>
			<point x="283" y="237" type="line" smooth="yes"/>
			<point x="411" y="237"/>
			<point x="512" y="301"/>
			<point x="512" y="439" type="curve" smooth="yes"/>
			<point x="512" y="584"/>
			<point x="413" y="637"/>
			<point x="283" y="637" type="curve" smooth="yes"/>
			<point x="126" y="637" type="line"/>
		</contour>
		<contour>
			<point x="220" y="303" type="line"/>
			<point x="220" y="571" type="line"/>
			<point x="272" y="571" type="line" smooth="yes"/>
			<point x="367" y="571"/>
			<point x="418" y="534"/>
			<point x="418" y="439" type="curve" smooth="yes"/>
			<point x="418" y="350"/>
			<point x="367" y="303"/>
			<point x="272" y="303" type="curve" smooth="yes"/>
		</contour>
		<contour>
			<point x="37" y="407" type="line"/>
			<point x="584" y="407" type="line"/>
			<point x="584" y="472" type="line"/>
			<point x="135" y="472" type="line"/>
			<point x="37" y="467" type="line"/>
		</contour>
	</outline>
</glyph>
<glyph name="won" format="1">
	<unicode hex="20A9"/>
	<advance width="600"/>
	<outline>
		<contour>
			<point x="134" y="0" type="line"/>
			<point x="251" y="0" type="line"/>
			<point x="285" y="340" type="line"/>
			<point x="298" y="518" type="line"/>
			<point x="302" y="518" type="line"/>
			<point x="315" y="340" type="line"/>
			<point x="352" y="0" type="line"/>
			<point x="474" y="0" type="line"/>
			<point x="543" y="637" type="line"/>
			<point x="460" y="637" type="line"/>
			<point x="423" y="211" type="line"/>
			<point x="412" y="77" type="line"/>
			<point x="408" y="77" type="line"/>
			<point x="396" y="211" type="line"/>
			<point x="355" y="597" type="line"/>
			<point x="252" y="597" type="line"/>
			<point x="211" y="211" type="line"/>
			<point x="199" y="77" type="line"/>
			<point x="195" y="77" type="line"/>
			<point x="187" y="211" type="line"/>
			<point x="148" y="637" type="line"/>
			<point x="58" y="637" type="line"/>
		</contour>
		<contour>
			<point x="23" y="295" type="line"/>
			<point x="576" y="295" type="line"/>
			<point x="576" y="354" type="line"/>
			<point x="96" y="354" type="line"/>
			<point x="23" y="348" type="line"/>
		</contour>
	</outline>
</glyph>
<glyph name="tugrik" format="1">
	<unicode hex="20AE"/>
	<advance width="600"/>
	<outline>
		<contour>
			<point x="118" y="244" type="line"/>
			<point x="256" y="310" type="line"/>
			<point x="344" y="347" type="line"/>
			<point x="507" y="425" type="line"/>
			<point x="482" y="471" type="line"/>
			<point x="344" y="407" type="line"/>
			<point x="256" y="370" type="line"/>
			<point x="93" y="293" type="line"/>
		</contour>
		<contour>
			<point x="118" y="117" type="line"/>
			<point x="256" y="182" type="line"/>
			<point x="344" y="219" type="line"/>
			<point x="507" y="297" type="line"/>
			<point x="482" y="343" type="line"/>
			<point x="344" y="279" type="line"/>
			<point x="256" y="242" type="line"/>
			<point x="93" y="165" type="line"/>
		</contour>
		<contour>
			<point x="250" y="0" type="line"/>
			<point x="350" y="0" type="line"/>
			<point x="350" y="562" type="line"/>
			<point x="550" y="562" type="line"/>
			<point x="550" y="637" type="line"/>
			<point x="50" y="637" type="line"/>
			<point x="50" y="562" type="line"/>
			<point x="250" y="562" type="line"/>
		</contour>
	</outline>
</glyph>
<glyph name="guarani" format="2">
	<unicode hex="20B2"/>
	<advance width="600"/>
	<outline>
		<contour>
			<point x="341" y="-12" type="curve" smooth="yes"/>
			<point x="413" y="-12"/>
			<point x="478" y="14"/>
			<point x="529" y="61" type="curve"/>
			<point x="529" y="339" type="line"/>
			<point x="334" y="339" type="line"/>
			<point x="334" y="257" type="line"/>
			<point x="439" y="257" type="line"/>
			<point x="439" y="100" type="line"/>
			<point x="421" y="83"/>
			<point x="384" y="69"/>
			<point x="347" y="69" type="curve" smooth="yes"/>
			<point x="243" y="69"/>
			<point x="181" y="163"/>
			<point x="181" y="320" type="curve" smooth="yes"/>
			<point x="181" y="475"/>
			<point x="242" y="571"/>
			<point x="351" y="571" type="curve" smooth="yes"/>
			<point x="399" y="571"/>
			<point x="436" y="548"/>
			<point x="470" y="514" type="curve"/>
			<point x="527" y="569" type="line"/>
			<point x="485" y="615"/>
			<point x="422" y="649"/>
			<point x="354" y="649" type="curve" smooth="yes"/>
			<point x="191" y="649"/>
			<point x="80" y="524"/>
			<point x="80" y="317" type="curve" smooth="yes"/>
			<point x="80" y="109"/>
			<point x="189" y="-12"/>
		</contour>
		<contour>
			<point x="307" y="615" type="line"/>
			<point x="376" y="615" type="line"/>
			<point x="376" y="747" type="line"/>
			<point x="307" y="747" type="line"/>
		</contour>
		<contour>
			<point x="307" y="-110" type="line"/>
			<point x="376" y="-110" type="line"/>
			<point x="376" y="25" type="line"/>
			<point x="307" y="25" type="line"/>
		</contour>
	</outline>
</glyph>
<glyph name="tenge" format="1">
	<unicode hex="20B8"/>
	<advance width="600"/>
	<outline>
		<contour>
			<point x="250" y="0" type="line"/>
			<point x="350" y="0" type="line"/>
			<point x="350" y="464" type="line"/>
			<point x="550" y="464" type="line"/>
			<point x="550" y="519" type="line"/>
			<point x="137" y="519" type="line"/>
			<point x="50" y="514" type="line"/>
			<point x="50" y="464" type="line"/>
			<point x="250" y="464" type="line"/>
		</contour>
		<contour>
			<point x="50" y="582" type="line"/>
			<point x="550" y="582" type="line"/>
			<point x="550" y="637" type="line"/>
			<point x="50" y="637" type="line"/>
		</contour>
	</outline>
</glyph>
<glyph name="liraturkish" format="1">
	<unicode hex="20BA"/>
	<advance width="600"/>
	<outline>
		<contour>
			<point x="150" y="-12" type="line"/>
			<point x="376" y="-17"/>
			<point x="540" y="69"/>
			<point x="540" y="241" type="curve" smooth="yes"/>
			<point x="540" y="256"/>
			<point x="538" y="274"/>
			<point x="532" y="296" type="curve"/>
			<point x="450" y="276" type="line"/>
			<point x="455" y="258"/>
			<point x="455" y="246"/>
			<point x="455" y="236" type="curve" smooth="yes"/>
			<point x="455" y="140"/>
			<point x="345" y="86"/>
			<point x="250" y="81" type="curve"/>
			<point x="250" y="299" type="line"/>
			<point x="440" y="389" type="line"/>
			<point x="414" y="438" type="line"/>
			<point x="250" y="359" type="line"/>
			<point x="250" y="427" type="line"/>
			<point x="440" y="517" type="line"/>
			<point x="414" y="565" type="line"/>
			<point x="250" y="487" type="line"/>
			<point x="250" y="637" type="line"/>
			<point x="150" y="637" type="line"/>
			<point x="150" y="438" type="line"/>
			<point x="38" y="386" type="line"/>
			<point x="63" y="338" type="line"/>
			<point x="150" y="378" type="line"/>
			<point x="150" y="310" type="line"/>
			<point x="38" y="258" type="line"/>
			<point x="63" y="210" type="line"/>
			<point x="150" y="250" type="line"/>
		</contour>
	</outline>
</glyph>
<glyph name="ruble" format="2">
	<unicode hex="20BD"/>
	<advance width="600"/>
	<outline>
		<contour>
			<point x="151" y="0" type="line"/>
			<point x="245" y="0" type="line"/>
			<point x="245" y="276" type="line"/>
			<point x="330" y="276" type="line" smooth="yes"/>
			<point x="460" y="276"/>
			<point x="563" y="330"/>
			<point x="563" y="459" type="curve" smooth="yes"/>
			<point x="563" y="585"/>
			<point x="463" y="637"/>
			<point x="330" y="637" type="curve" smooth="yes"/>
			<point x="151" y="637" type="line"/>
		</contour>
		<contour>
			<point x="245" y="332" type="line"/>
			<point x="245" y="571" type="line"/>
			<point x="322" y="571" type="line" smooth="yes"/>
			<point x="416" y="571"/>
			<point x="470" y="539"/>
			<point x="470" y="455" type="curve" smooth="yes"/>
			<point x="470" y="374"/>
			<point x="416" y="332"/>
			<point x="322" y="332" type="curve" smooth="yes"/>
		</contour>
		<contour>
			<point x="37" y="276" type="line"/>
			<point x="196" y="276" type="line"/>
			<point x="196" y="332" type="line"/>
			<point x="160" y="332" type="line"/>
			<point x="37" y="327" type="line"/>
		</contour>
		<contour>
			<point x="37" y="159" type="line"/>
			<point x="497" y="159" type="line"/>
			<point x="497" y="214" type="line"/>
			<point x="160" y="214" type="line"/>
			<point x="37" y="209" type="line"/>
		</contour>
	</outline>
</glyph>
<glyph name="numero" format="2">
	<unicode hex="2116"/>
	<advance width="600"/>
	<outline>
		<contour>
			<point x="30" y="-12" type="curve" smooth="yes"/>
			<point x="81" y="-12"/>
			<point x="105" y="24"/>
			<point x="105" y="95" type="curve" smooth="yes"/>
			<point x="105" y="233" type="line" smooth="yes"/>
			<point x="105" y="321"/>
			<point x="96" y="399"/>
			<point x="85" y="523" type="curve"/>
			<point x="89" y="523" type="line"/>
			<point x="98" y="490"/>
			<point x="112" y="435"/>
			<point x="122" y="399" type="curve" smooth="yes"/>
			<point x="234" y="0" type="line"/>
			<point x="334" y="0" type="line"/>
			<point x="334" y="526" type="line" smooth="yes"/>
			<point x="334" y="560"/>
			<point x="344" y="569"/>
			<point x="363" y="569" type="curve"/>
			<point x="358" y="646" type="line"/>
			<point x="348" y="648"/>
			<point x="336" y="649"/>
			<point x="328" y="649" type="curve" smooth="yes"/>
			<point x="277" y="649"/>
			<point x="253" y="613"/>
			<point x="253" y="542" type="curve" smooth="yes"/>
			<point x="253" y="404" type="line" smooth="yes"/>
			<point x="253" y="317"/>
			<point x="263" y="239"/>
			<point x="273" y="114" type="curve"/>
			<point x="269" y="114" type="line"/>
			<point x="259" y="148"/>
			<point x="246" y="204"/>
			<point x="236" y="239" type="curve" smooth="yes"/>
			<point x="123" y="637" type="line"/>
			<point x="24" y="637" type="line"/>
			<point x="24" y="111" type="line" smooth="yes"/>
			<point x="24" y="78"/>
			<point x="15" y="69"/>
			<point x="-5" y="69" type="curve"/>
			<point x="1" y="-9" type="line"/>
			<point x="10" y="-12"/>
			<point x="23" y="-12"/>
		</contour>
		<contour>
			<point x="497" y="274" type="curve" smooth="yes"/>
			<point x="559" y="274"/>
			<point x="612" y="325"/>
			<point x="612" y="437" type="curve" smooth="yes"/>
			<point x="612" y="549"/>
			<point x="559" y="599"/>
			<point x="497" y="599" type="curve" smooth="yes"/>
			<point x="435" y="599"/>
			<point x="381" y="549"/>
			<point x="381" y="437" type="curve" smooth="yes"/>
			<point x="381" y="325"/>
			<point x="435" y="274"/>
		</contour>
		<contour>
			<point x="497" y="338" type="curve" smooth="yes"/>
			<point x="467" y="338"/>
			<point x="451" y="369"/>
			<point x="451" y="437" type="curve" smooth="yes"/>
			<point x="451" y="505"/>
			<point x="467" y="536"/>
			<point x="497" y="536" type="curve" smooth="yes"/>
			<point x="527" y="536"/>
			<point x="543" y="505"/>
			<point x="543" y="437" type="curve" smooth="yes"/>
			<point x="543" y="369"/>
			<point x="527" y="338"/>
		</contour>
		<contour>
			<point x="411" y="163" type="line"/>
			<point x="584" y="163" type="line"/>
			<point x="584" y="223" type="line"/>
			<point x="411" y="223" type="line"/>
		</contour>
	</outline>
</glyph>
<glyph name="servicemark" format="1">
	<unicode hex="2120"/>
	<advance width="600"/>
	<outline>
		<contour>
			<point x="121" y="353" type="curve" smooth="yes"/>
			<point x="190" y="353"/>
			<point x="233" y="398"/>
			<point x="233" y="447" type="curve" smooth="yes"/>
			<point x="233" y="494"/>
			<point x="211" y="517"/>
			<point x="172" y="535" type="curve" smooth="yes"/>
			<point x="127" y="557" type="line" smooth="yes"/>
			<point x="101" y="569"/>
			<point x="88" y="578"/>
			<point x="88" y="596" type="curve" smooth="yes"/>
			<point x="88" y="614"/>
			<point x="102" y="631"/>
			<point x="130" y="631" type="curve" smooth="yes"/>
			<point x="153" y="631"/>
			<point x="176" y="617"/>
			<point x="197" y="601" type="curve"/>
			<point x="231" y="646" type="line"/>
			<point x="206" y="667"/>
			<point x="170" y="684"/>
			<point x="132" y="684" type="curve" smooth="yes"/>
			<point x="67" y="684"/>
			<point x="25" y="646"/>
			<point x="25" y="593" type="curve" smooth="yes"/>
			<point x="25" y="545"/>
			<point x="54" y="521"/>
			<point x="84" y="506" type="curve" smooth="yes"/>
			<point x="129" y="483" type="line" smooth="yes"/>
			<point x="157" y="469"/>
			<point x="169" y="464"/>
			<point x="169" y="441" type="curve" smooth="yes"/>
			<point x="169" y="420"/>
			<point x="153" y="406"/>
			<point x="125" y="406" type="curve" smooth="yes"/>
			<point x="93" y="406"/>
			<point x="70" y="421"/>
			<point x="46" y="444" type="curve"/>
			<point x="9" y="401" type="line"/>
			<point x="41" y="370"/>
			<point x="77" y="353"/>
		</contour>
		<contour>
			<point x="288" y="365" type="line"/>
			<point x="350" y="365" type="line"/>
			<point x="350" y="491" type="line"/>
			<point x="342" y="599" type="line"/>
			<point x="346" y="599" type="line"/>
			<point x="412" y="422" type="line"/>
			<point x="459" y="422" type="line"/>
			<point x="525" y="599" type="line"/>
			<point x="529" y="599" type="line"/>
			<point x="521" y="491" type="line"/>
			<point x="521" y="365" type="line"/>
			<point x="584" y="365" type="line"/>
			<point x="584" y="676" type="line"/>
			<point x="505" y="676" type="line"/>
			<point x="463" y="567" type="line"/>
			<point x="438" y="489" type="line"/>
			<point x="434" y="489" type="line"/>
			<point x="409" y="567" type="line"/>
			<point x="367" y="676" type="line"/>
			<point x="288" y="676" type="line"/>
		</contour>
	</outline>
</glyph>
<glyph name="arrowright" format="1">
	<unicode hex="2192"/>
	<advance width="600"/>
	<outline>
		<contour>
			<point x="309" y="-16" type="line"/>
			<point x="583" y="250" type="line"/>
			<point x="583" y="254" type="line"/>
			<point x="309" y="520" type="line"/>
			<point x="260" y="465" type="line"/>
			<point x="447" y="292" type="line"/>
			<point x="30" y="292" type="line"/>
			<point x="30" y="212" type="line"/>
			<point x="447" y="212" type="line"/>
			<point x="260" y="39" type="line"/>
		</contour>
	</outline>
</glyph>
<glyph name="arrowboth" format="1">
	<unicode hex="2194"/>
	<advance width="600"/>
	<outline>
		<contour>
			<point x="612" y="254" type="line"/>
			<point x="433" y="470" type="line"/>
			<point x="379" y="426" type="line"/>
			<point x="496" y="292" type="line"/>
			<point x="104" y="292" type="line"/>
			<point x="221" y="426" type="line"/>
			<point x="167" y="470" type="line"/>
			<point x="-12" y="254" type="line"/>
			<point x="-12" y="250" type="line"/>
			<point x="167" y="34" type="line"/>
			<point x="221" y="78" type="line"/>
			<point x="104" y="212" type="line"/>
			<point x="496" y="212" type="line"/>
			<point x="379" y="78" type="line"/>
			<point x="433" y="34" type="line"/>
			<point x="612" y="250" type="line"/>
		</contour>
	</outline>
</glyph>
<glyph name="arrowupright" format="1">
	<unicode hex="2197"/>
	<advance width="600"/>
	<outline>
		<contour>
			<point x="133" y="28" type="line"/>
			<point x="428" y="323" type="line"/>
			<point x="418" y="68" type="line"/>
			<point x="492" y="64" type="line"/>
			<point x="497" y="445" type="line"/>
			<point x="494" y="448" type="line"/>
			<point x="113" y="443" type="line"/>
			<point x="117" y="369" type="line"/>
			<point x="371" y="380" type="line"/>
			<point x="76" y="84" type="line"/>
		</contour>
	</outline>
</glyph>
<glyph name="arrowdownright" format="1">
	<unicode hex="2198"/>
	<advance width="600"/>
	<outline>
		<contour>
			<point x="500" y="55" type="line"/>
			<point x="503" y="58" type="line"/>
			<point x="498" y="439" type="line"/>
			<point x="424" y="435" type="line"/>
			<point x="435" y="181" type="line"/>
			<point x="139" y="476" type="line"/>
			<point x="82" y="419" type="line"/>
			<point x="378" y="124" type="line"/>
			<point x="123" y="134" type="line"/>
			<point x="119" y="60" type="line"/>
		</contour>
	</outline>
</glyph>
<glyph name="arrowdownleft" format="1">
	<unicode hex="2199"/>
	<advance width="600"/>
	<outline>
		<contour>
			<point x="106" y="55" type="line"/>
			<point x="487" y="60" type="line"/>
			<point x="483" y="134" type="line"/>
			<point x="229" y="123" type="line"/>
			<point x="524" y="419" type="line"/>
			<point x="467" y="475" type="line"/>
			<point x="172" y="180" type="line"/>
			<point x="182" y="435" type="line"/>
			<point x="108" y="439" type="line"/>
			<point x="103" y="58" type="line"/>
		</contour>
	</outline>
</glyph>
<glyph name="arrowupdnbse" format="1">
	<unicode hex="21A8"/>
	<advance width="600"/>
	<outline>
		<contour>
			<point x="60" y="-147" type="line"/>
			<point x="540" y="-147" type="line"/>
			<point x="540" y="-71" type="line"/>
			<point x="60" y="-71" type="line"/>
		</contour>
		<component base="arrowupdn"/>
	</outline>
</glyph>
<glyph name="arrowdblup" format="1">
	<unicode hex="21D1"/>
	<advance width="600"/>
	<outline>
		<contour>
			<point x="87" y="205" type="line"/>
			<point x="298" y="437" type="line"/>
			<point x="302" y="437" type="line"/>
			<point x="513" y="205" type="line"/>
			<point x="568" y="254" type="line"/>
			<point x="302" y="528" type="line"/>
			<point x="298" y="528" type="line"/>
			<point x="32" y="254" type="line"/>
		</contour>
		<contour>
			<point x="357" y="-25" type="line"/>
			<point x="419" y="-25" type="line"/>
			<point x="419" y="395" type="line"/>
			<point x="357" y="395" type="line"/>
		</contour>
		<contour>
			<point x="181" y="-25" type="line"/>
			<point x="243" y="-25" type="line"/>
			<point x="243" y="395" type="line"/>
			<point x="181" y="395" type="line"/>
		</contour>
	</outline>
</glyph>
<glyph name="arrowdbldown" format="1">
	<unicode hex="21D3"/>
	<advance width="600"/>
	<outline>
		<contour>
			<point x="298" y="-25" type="line"/>
			<point x="302" y="-25" type="line"/>
			<point x="568" y="249" type="line"/>
			<point x="513" y="298" type="line"/>
			<point x="302" y="66" type="line"/>
			<point x="298" y="66" type="line"/>
			<point x="87" y="298" type="line"/>
			<point x="32" y="249" type="line"/>
		</contour>
		<contour>
			<point x="181" y="108" type="line"/>
			<point x="243" y="108" type="line"/>
			<point x="243" y="528" type="line"/>
			<point x="181" y="528" type="line"/>
		</contour>
		<contour>
			<point x="357" y="108" type="line"/>
			<point x="419" y="108" type="line"/>
			<point x="419" y="528" type="line"/>
			<point x="357" y="528" type="line"/>
		</contour>
	</outline>
</glyph>
<glyph name="product" format="1">
	<unicode hex="220F"/>
	<advance width="600"/>
	<outline>
		<contour>
			<point x="45" y="-120" type="line"/>
			<point x="145" y="-120" type="line"/>
			<point x="145" y="550" type="line"/>
			<point x="454" y="550" type="line"/>
			<point x="454" y="-120" type="line"/>
			<point x="555" y="-120" type="line"/>
			<point x="555" y="637" type="line"/>
			<point x="45" y="637" type="line"/>
		</contour>
	</outline>
</glyph>
<glyph name="minus" format="1">
	<unicode hex="2212"/>
	<advance width="600"/>
	<outline>
		<contour>
			<point x="81" y="294" type="line"/>
			<point x="519" y="294" type="line"/>
			<point x="519" y="366" type="line"/>
			<point x="81" y="366" type="line"/>
		</contour>
	</outline>
</glyph>
<glyph name="infinity" format="1">
	<unicode hex="221E"/>
	<advance width="600"/>
	<outline>
		<contour>
			<point x="447" y="143" type="curve" smooth="yes"/>
			<point x="539" y="143"/>
			<point x="606" y="218"/>
			<point x="606" y="337" type="curve" smooth="yes"/>
			<point x="606" y="440"/>
			<point x="539" y="513"/>
			<point x="450" y="513" type="curve" smooth="yes"/>
			<point x="379" y="513"/>
			<point x="329" y="471"/>
			<point x="286" y="401" type="curve"/>
			<point x="282" y="401" type="line"/>
			<point x="252" y="455"/>
			<point x="209" y="497"/>
			<point x="144" y="497" type="curve" smooth="yes"/>
			<point x="58" y="497"/>
			<point x="-6" y="432"/>
			<point x="-6" y="322" type="curve" smooth="yes"/>
			<point x="-6" y="235"/>
			<point x="55" y="164"/>
			<point x="130" y="164" type="curve" smooth="yes"/>
			<point x="197" y="164"/>
			<point x="241" y="211"/>
			<point x="271" y="259" type="curve"/>
			<point x="275" y="259" type="line"/>
			<point x="327" y="176"/>
			<point x="375" y="143"/>
		</contour>
		<contour>
			<point x="144" y="238" type="curve" smooth="yes"/>
			<point x="102" y="238"/>
			<point x="69" y="276"/>
			<point x="69" y="325" type="curve" smooth="yes"/>
			<point x="69" y="374"/>
			<point x="97" y="404"/>
			<point x="141" y="404" type="curve" smooth="yes"/>
			<point x="178" y="404"/>
			<point x="210" y="379"/>
			<point x="240" y="318" type="curve"/>
			<point x="216" y="266"/>
			<point x="184" y="238"/>
		</contour>
		<contour>
			<point x="443" y="236" type="curve" smooth="yes"/>
			<point x="394" y="236"/>
			<point x="358" y="266"/>
			<point x="317" y="343" type="curve"/>
			<point x="354" y="410"/>
			<point x="392" y="439"/>
			<point x="436" y="439" type="curve" smooth="yes"/>
			<point x="495" y="439"/>
			<point x="531" y="396"/>
			<point x="531" y="334" type="curve" smooth="yes"/>
			<point x="531" y="281"/>
			<point x="498" y="236"/>
		</contour>
	</outline>
</glyph>
<glyph name="orthogonal" format="1">
	<unicode hex="221F"/>
	<advance width="600"/>
	<outline>
		<contour>
			<point x="81" y="101" type="line"/>
			<point x="519" y="101" type="line"/>
			<point x="519" y="174" type="line"/>
			<point x="158" y="174" type="line"/>
			<point x="158" y="559" type="line"/>
			<point x="81" y="559" type="line"/>
		</contour>
	</outline>
</glyph>
<glyph name="revlogicalnot" format="1">
	<unicode hex="2310"/>
	<advance width="600"/>
	<outline>
		<contour>
			<point x="81" y="101" type="line"/>
			<point x="158" y="101" type="line"/>
			<point x="158" y="294" type="line"/>
			<point x="519" y="294" type="line"/>
			<point x="519" y="366" type="line"/>
			<point x="81" y="366" type="line"/>
		</contour>
	</outline>
</glyph>
<glyph name="integraltp" format="1">
	<unicode hex="2320"/>
	<advance width="600"/>
	<outline>
		<contour>
			<point x="348" y="-400" type="line"/>
			<point x="348" y="559" type="line"/>
			<point x="348" y="660"/>
			<point x="359" y="713"/>
			<point x="413" y="713" type="curve" smooth="yes"/>
			<point x="427" y="713"/>
			<point x="439" y="712"/>
			<point x="448" y="709" type="curve"/>
			<point x="459" y="783" type="line"/>
			<point x="450" y="786"/>
			<point x="430" y="790"/>
			<point x="410" y="790" type="curve" smooth="yes"/>
			<point x="284" y="790"/>
			<point x="258" y="689"/>
			<point x="258" y="557" type="curve"/>
			<point x="258" y="-400" type="line"/>
		</contour>
	</outline>
</glyph>
<glyph name="integralbt" format="1">
	<unicode hex="2321"/>
	<advance width="600"/>
	<outline>
		<contour>
			<point x="196" y="-158" type="curve" smooth="yes"/>
			<point x="321" y="-158"/>
			<point x="348" y="-58"/>
			<point x="348" y="75" type="curve"/>
			<point x="348" y="1000" type="line"/>
			<point x="258" y="1000" type="line"/>
			<point x="258" y="71" type="line"/>
			<point x="258" y="-30"/>
			<point x="247" y="-81"/>
			<point x="192" y="-81" type="curve" smooth="yes"/>
			<point x="178" y="-81"/>
			<point x="166" y="-80"/>
			<point x="157" y="-77" type="curve"/>
			<point x="146" y="-151" type="line"/>
			<point x="156" y="-155"/>
			<point x="175" y="-158"/>
		</contour>
	</outline>
</glyph>
<glyph name="heavyhorzbxd" format="1">
	<unicode hex="2501"/>
	<advance width="600"/>
	<outline>
		<contour>
			<point x="-47" y="207" type="line"/>
			<point x="647" y="207" type="line"/>
			<point x="647" y="393" type="line"/>
			<point x="-47" y="393" type="line"/>
		</contour>
	</outline>
</glyph>
<glyph name="heavydnrightbxd" format="1">
	<unicode hex="250F"/>
	<advance width="600"/>
	<outline>
		<contour>
			<point x="647" y="207" type="line"/>
			<point x="647" y="393" type="line"/>
			<point x="207" y="393" type="line"/>
			<point x="207" y="-400" type="line"/>
			<point x="393" y="-400" type="line"/>
			<point x="393" y="207" type="line"/>
		</contour>
	</outline>
</glyph>
<glyph name="lightdnleftbxd" format="1">
	<unicode hex="2510"/>
	<advance width="600"/>
	<outline>
		<contour>
			<point x="347" y="-400" type="line"/>
			<point x="347" y="347" type="line"/>
			<point x="-47" y="347" type="line"/>
			<point x="-47" y="253" type="line"/>
			<point x="253" y="253" type="line"/>
			<point x="253" y="-400" type="line"/>
		</contour>
	</outline>
</glyph>
<glyph name="uplightrightheavybxd" format="1">
	<unicode hex="2515"/>
	<advance width="600"/>
	<outline>
		<contour>
			<point x="647" y="207" type="line"/>
			<point x="647" y="393" type="line"/>
			<point x="347" y="393" type="line"/>
			<point x="347" y="1000" type="line"/>
			<point x="253" y="1000" type="line"/>
			<point x="253" y="207" type="line"/>
		</contour>
	</outline>
</glyph>
<glyph name="vertlightrightheavybxd" format="2">
	<unicode hex="251D"/>
	<advance width="600"/>
	<outline>
		<contour>
			<point x="647" y="207" type="line"/>
			<point x="647" y="393" type="line"/>
			<point x="347" y="393" type="line"/>
			<point x="347" y="1000" type="line"/>
			<point x="253" y="1000" type="line"/>
			<point x="253" y="-400" type="line"/>
			<point x="347" y="-400" type="line"/>
			<point x="347" y="207" type="line"/>
		</contour>
	</outline>
</glyph>
<glyph name="vertheavyhorzlightbxd" format="1">
	<unicode hex="2542"/>
	<advance width="600"/>
	<outline>
		<contour>
			<point x="647" y="253" type="line"/>
			<point x="647" y="347" type="line"/>
			<point x="393" y="347" type="line"/>
			<point x="393" y="1000" type="line"/>
			<point x="207" y="1000" type="line"/>
			<point x="207" y="347" type="line"/>
			<point x="-47" y="347" type="line"/>
			<point x="-47" y="253" type="line"/>
			<point x="207" y="253" type="line"/>
			<point x="207" y="-400" type="line"/>
			<point x="393" y="-400" type="line"/>
			<point x="393" y="253" type="line"/>
		</contour>
	</outline>
</glyph>
<glyph name="leftlightrightvertheavybxd" format="2">
	<unicode hex="254A"/>
	<advance width="600"/>
	<outline>
		<contour>
			<point x="647" y="207" type="line"/>
			<point x="647" y="393" type="line"/>
			<point x="393" y="393" type="line"/>
			<point x="393" y="1000" type="line"/>
			<point x="207" y="1000" type="line"/>
			<point x="207" y="347" type="line"/>
			<point x="-47" y="347" type="line"/>
			<point x="-47" y="253" type="line"/>
			<point x="207" y="253" type="line"/>
			<point x="207" y="-400" type="line"/>
			<point x="393" y="-400" type="line"/>
			<point x="393" y="207" type="line"/>
		</contour>
	</outline>
</glyph>
<glyph name="dblhorzbxd" format="1">
	<unicode hex="2550"/>
	<advance width="600"/>
	<outline>
		<contour>
			<point x="-47" y="347" type="line"/>
			<point x="647" y="347" type="line"/>
			<point x="647" y="440" type="line"/>
			<point x="-47" y="440" type="line"/>
		</contour>
		<contour>
			<point x="-47" y="160" type="line"/>
			<point x="647" y="160" type="line"/>
			<point x="647" y="253" type="line"/>
			<point x="-47" y="253" type="line"/>
		</contour>
	</outline>
</glyph>
<glyph name="upsngrightdblbxd" format="1">
	<unicode hex="2558"/>
	<advance width="600"/>
	<outline>
		<contour>
			<point x="253" y="160" type="line"/>
			<point x="647" y="160" type="line"/>
			<point x="647" y="253" type="line"/>
			<point x="347" y="253" type="line"/>
			<point x="347" y="347" type="line"/>
			<point x="647" y="347" type="line"/>
			<point x="647" y="440" type="line"/>
			<point x="347" y="440" type="line"/>
			<point x="347" y="1000" type="line"/>
			<point x="253" y="1000" type="line"/>
		</contour>
	</outline>
</glyph>
<glyph name="vertdblrightsngbxd" format="2">
	<unicode hex="255F"/>
	<advance width="600"/>
	<outline>
		<contour>
			<point x="160" y="-400" type="line"/>
			<point x="253" y="-400" type="line"/>
			<point x="253" y="1000" type="line"/>
			<point x="160" y="1000" type="line"/>
		</contour>
		<contour>
			<point x="647" y="253" type="line"/>
			<point x="647" y="347" type="line"/>
			<point x="440" y="347" type="line"/>
			<point x="440" y="1000" type="line"/>
			<point x="347" y="1000" type="line"/>
			<point x="347" y="-400" type="line"/>
			<point x="440" y="-400" type="line"/>
			<point x="440" y="253" type="line"/>
		</contour>
	</outline>
</glyph>
<glyph name="vertsnghorzdblbxd" format="1">
	<unicode hex="256A"/>
	<advance width="600"/>
	<outline>
		<contour>
			<point x="647" y="160" type="line"/>
			<point x="647" y="253" type="line"/>
			<point x="347" y="253" type="line"/>
			<point x="347" y="347" type="line"/>
			<point x="647" y="347" type="line"/>
			<point x="647" y="440" type="line"/>
			<point x="347" y="440" type="line"/>
			<point x="347" y="1000" type="line"/>
			<point x="253" y="1000" type="line"/>
			<point x="253" y="440" type="line"/>
			<point x="-47" y="440" type="line"/>
			<point x="-47" y="347" type="line"/>
			<point x="253" y="347" type="line"/>
			<point x="253" y="253" type="line"/>
			<point x="-47" y="253" type="line"/>
			<point x="-47" y="160" type="line"/>
			<point x="253" y="160" type="line"/>
			<point x="253" y="-400" type="line"/>
			<point x="347" y="-400" type="line"/>
			<point x="347" y="160" type="line"/>
		</contour>
	</outline>
</glyph>
<glyph name="upleftquadrant" format="1">
	<unicode hex="2598"/>
	<advance width="600"/>
	<outline>
		<contour>
			<point x="0" y="300" type="line"/>
			<point x="300" y="300" type="line"/>
			<point x="300" y="1000" type="line"/>
			<point x="0" y="1000" type="line"/>
		</contour>
	</outline>
</glyph>
